<?xml version="1.0" standalone="no"?>
<!DOCTYPE svg PUBLIC "-//W3C//DTD SVG 1.1//EN" "http://www.w3.org/Graphics/SVG/1.1/DTD/svg11.dtd" >
<svg xmlns="http://www.w3.org/2000/svg" xmlns:xlink="http://www.w3.org/1999/xlink" version="1.1">
<metadata>
Created by Christoph Koeberlin (http://christoph.koe.berlin)
Copyright (c) 2014 Swiss Typefaces Sa`rl. All rights reserved.
</metadata>
<defs>
<font id="Font" horiz-adv-x="245" >
  <font-face 
    font-family="Font"
    font-weight="250"
    font-stretch="normal"
    units-per-em="1000"
    panose-1="2 7 2 0 8 0 0 0 0 3"
    ascent="800"
    descent="-200"
    x-height="430"
    cap-height="692"
    bbox="-40 -307 1118 892"
    underline-thickness="7"
    underline-position="-124"
    unicode-range="U+0020-FB02"
  />
<missing-glyph horiz-adv-x="396" 
d="M396 0h-396v711h396v-711zM388 7v697h-380v-697h380z" />
    <glyph glyph-name=".notdef" horiz-adv-x="396" 
d="M396 0h-396v711h396v-711zM388 7v697h-380v-697h380z" />
    <glyph glyph-name=".null" horiz-adv-x="0" 
 />
    <glyph glyph-name="nonmarkingreturn" horiz-adv-x="230" 
 />
    <glyph glyph-name="space" unicode=" " horiz-adv-x="230" 
 />
    <glyph glyph-name="exclam" unicode="!" horiz-adv-x="295" 
d="M183 672q0 -40 -2 -83.5t-4 -102.5t-4 -139t-2 -193h-7q0 113 -2 193t-4 139t-4 102.5t-2 83.5q0 28 2.5 37t12.5 9q11 0 13.5 -9t2.5 -37zM195 21q0 -12 -8 -20t-19 -8q-12 0 -20 8t-8 19q0 12 8 20t19 8q12 0 20 -8t8 -19z" />
    <glyph glyph-name="quotedbl" unicode="&#x22;" horiz-adv-x="282" 
d="M210 475h-4l-12 236h28zM76 475h-4l-12 236h28z" />
    <glyph glyph-name="numbersign" unicode="#" horiz-adv-x="544" 
d="M143 248l32 228h-124l1 7h124l32 228h8l-32 -228h208l32 228h8l-32 -228h124l-1 -7h-124l-32 -228h126l-1 -7h-126l-34 -241h-8l34 241h-208l-34 -241h-8l34 241h-122l1 7h122zM151 248h208l32 228h-208z" />
    <glyph glyph-name="dollar" unicode="$" horiz-adv-x="568" 
d="M268 -7q-43 1 -80 13.5t-64.5 32.5t-43 45t-15.5 51h7q1 -28 18 -52.5t44 -42.5t61.5 -29t72.5 -11v363l-38 14q-47 18 -75.5 39.5t-43.5 44.5t-20 46t-5 43q0 30 13 56.5t37 46.5t57.5 32t74.5 13v84h7v-84q42 -1 75 -13t56.5 -31t36 -43.5t12.5 -50.5h-7
q-1 27 -14.5 51t-36.5 41.5t-54.5 27.5t-67.5 11v-302l41 -15q36 -13 68.5 -29t57.5 -38.5t39.5 -53.5t14.5 -74q0 -52 -19.5 -87.5t-50.5 -57t-71 -31.5t-80 -10v-67h-7v67zM275 360v-360q34 0 71.5 8t69 28t52 54.5t20.5 88.5q0 42 -15.5 69t-41 45t-58.5 31t-69 26z
M94 550q0 -53 37.5 -88t126.5 -67l10 -4v300q-38 0 -70 -11t-55 -30t-36 -44.5t-13 -55.5z" />
    <glyph glyph-name="percent" unicode="%" horiz-adv-x="854" 
d="M44 510q0 39 9.5 77t29 67.5t49 48t70.5 18.5q40 0 70 -18.5t49.5 -48t29 -67.5t9.5 -77t-9.5 -77t-29 -67.5t-49.5 -48t-70 -18.5q-41 0 -70.5 18.5t-49 48t-29 67.5t-9.5 77zM352 510q0 43 -10 80.5t-29.5 65t-47.5 43t-63 15.5t-63 -15.5t-47.5 -43t-29.5 -65
t-10 -80.5t10 -80.5t29.5 -65t47.5 -43t63 -15.5t63 15.5t47.5 43t29.5 65t10 80.5zM627 717l-396 -726l-6 4l395 726zM494 204q0 39 9.5 77t29 67.5t49 48t70.5 18.5q40 0 70 -18.5t49.5 -48t29 -67.5t9.5 -77t-9.5 -77t-29 -67.5t-49.5 -48t-70 -18.5q-41 0 -70.5 18.5
t-49 48t-29 67.5t-9.5 77zM802 204q0 43 -10 80.5t-29.5 65t-47.5 43t-63 15.5t-63 -15.5t-47.5 -43t-29.5 -65t-10 -80.5t10 -80.5t29.5 -65t47.5 -43t63 -15.5t63 15.5t47.5 43t29.5 65t10 80.5z" />
    <glyph glyph-name="ampersand" unicode="&#x26;" horiz-adv-x="730" 
d="M45 211q0 37 12 74t39 70t70 60t105 45q-8 29 -12 56.5t-4 53.5q0 37 10.5 65t28 46.5t40 27.5t47.5 9q43 0 72.5 -23.5t29.5 -68.5q0 -28 -14.5 -53.5t-40 -47t-60.5 -38.5t-75 -28q15 -44 37 -90.5t49 -93.5t57.5 -92t62.5 -86l1 1q87 107 87 281v44h-86v7h185v-7h-91
v-39q0 -95 -23 -165.5t-68 -127.5q37 -47 75 -84h111v-7h-139q-14 13 -30.5 31t-33.5 40q-37 -38 -87.5 -58t-106.5 -20q-62 0 -108 19t-77.5 49.5t-47 69.5t-15.5 80zM292 0q66 0 111.5 22.5t77.5 54.5q-29 36 -59.5 81t-58.5 94t-51.5 100.5t-38.5 101.5
q-68 -20 -107.5 -50.5t-59.5 -64t-25.5 -67.5t-5.5 -61q0 -38 11.5 -76t37 -68t67 -48.5t101.5 -18.5zM268 589q0 -53 23 -124q36 10 69.5 25.5t59 36.5t40.5 46t15 53q0 22 -8 38t-21 26.5t-30 15.5t-34 5q-21 0 -41 -7t-36.5 -22t-26.5 -38t-10 -55z" />
    <glyph glyph-name="quotesingle" unicode="'" horiz-adv-x="148" 
d="M76 475h-4l-12 236h28z" />
    <glyph glyph-name="parenleft" unicode="(" horiz-adv-x="235" 
d="M40 236q0 86 13.5 158t35 131.5t48 107t52.5 85.5l6 -4q-40 -60 -68 -118.5t-45.5 -117.5t-25.5 -119t-8 -123t8 -123.5t25.5 -119t45.5 -117.5t68 -119l-6 -4q-26 37 -52.5 85t-48 107.5t-35 132t-13.5 158.5z" />
    <glyph glyph-name="parenright" unicode=")" horiz-adv-x="235" 
d="M195 235q0 -86 -13.5 -158t-35 -131.5t-48 -107.5t-52.5 -85l-6 4q40 60 68 118.5t45.5 117.5t25.5 119t8 123t-8 123.5t-25.5 119t-45.5 117.5t-68 119l6 4q26 -38 52.5 -85.5t48 -107t35 -132t13.5 -158.5z" />
    <glyph glyph-name="asterisk" unicode="*" horiz-adv-x="383" 
d="M190 554q0 55 -4.5 88.5t-4.5 50.5q0 15 1.5 22t9.5 7t10 -7t2 -22q0 -17 -5 -50.5t-5 -88.5h-4zM194 544q0 -55 5 -88.5t5 -50.5q0 -15 -2 -22t-10 -7t-9.5 7t-1.5 22q0 17 4.5 50.5t4.5 88.5h4zM187 549q-48 28 -79.5 41t-45.5 21q-13 8 -18.5 12.5t-1.5 11.5t11 5.5
t21 -9.5t40.5 -29.5t74.5 -48.5zM198 548q48 -28 79.5 -40.5t45.5 -20.5q13 -8 18 -13t1 -12t-10.5 -5t-20.5 10t-40.5 29t-74.5 48zM189 544q-48 -27 -75 -48t-41 -29q-13 -8 -20 -10t-11 5t1 12.5t19 13.5t45.5 20.5t79.5 39.5zM195 553q48 28 75 49t41 29q13 8 20 9.5
t11 -5.5t-1 -11.5t-19 -12.5t-45 -21t-79 -40z" />
    <glyph glyph-name="plus" unicode="+" horiz-adv-x="536" 
d="M272 228v-224h-8v224h-224v7h224v224h8v-224h224v-7h-224z" />
    <glyph glyph-name="comma" unicode="," horiz-adv-x="191" 
d="M101 48q22 0 31 -15.5t9 -33.5q0 -14 -4.5 -35t-15.5 -44t-25.5 -45t-30.5 -38l-5 5q13 13 27.5 34.5t25.5 44.5q13 31 15.5 56t-13.5 25q-5 0 -8 -4.5t-11 -4.5q-11 0 -18 8.5t-7 19.5t8 19t22 8z" />
    <glyph glyph-name="hyphen" unicode="-" horiz-adv-x="311" 
d="M45 218v27h221v-27h-221z" />
    <glyph glyph-name="period" unicode="." horiz-adv-x="165" 
d="M125 21q0 -12 -8 -20t-19 -8q-12 0 -20 8t-8 19q0 12 8 20t19 8q12 0 20 -8t8 -19z" />
    <glyph glyph-name="slash" unicode="/" horiz-adv-x="402" 
d="M402 721l-396 -726l-6 4l395 726z" />
    <glyph glyph-name="zero" unicode="0" horiz-adv-x="630" 
d="M70 346q0 86 20 151.5t53.5 110t78 67.5t93.5 23t93 -23t78 -67.5t54 -110t20 -151.5t-20 -152t-54 -110.5t-78 -67.5t-93 -23t-93.5 23t-78 67.5t-53.5 110.5t-20 152zM100 346q0 -98 18 -164t47.5 -106.5t68.5 -58t81 -17.5t81 17.5t68.5 58t47.5 106.5t18 164
q0 97 -18 163.5t-47.5 106.5t-68.5 57.5t-81 17.5t-81 -17.5t-68.5 -57.5t-47.5 -106.5t-18 -163.5z" />
    <glyph glyph-name="one" unicode="1" horiz-adv-x="405" 
d="M103 0v7h108v670q-32 -20 -67 -36t-76 -28l-1 7q28 8 54.5 19t48 22.5t37.5 21.5t24 16h6v-692h91v-7h-225z" />
    <glyph glyph-name="two" unicode="2" horiz-adv-x="567" 
d="M15 0q27 23 63.5 51.5t78 62t85 71.5t84.5 80q60 60 87 122t27 120q0 41 -8.5 75t-29.5 58t-55 37.5t-85 13.5q-45 0 -81 -15t-61.5 -40t-39 -57.5t-13.5 -66.5q0 -31 9.5 -56.5t23.5 -42.5l-6 -4q-16 19 -25.5 44.5t-9.5 57.5q0 40 15.5 74t43.5 59t65 39.5t81 14.5
q39 0 76 -10.5t66 -34t46.5 -59.5t17.5 -87q0 -63 -36.5 -123.5t-101.5 -124.5q-36 -35 -73.5 -68.5t-74 -63.5t-69.5 -56t-60 -47h425v127h7v-151h-472z" />
    <glyph glyph-name="three" unicode="3" horiz-adv-x="549" 
d="M251 698q44 0 81 -9.5t63.5 -28.5t41 -47.5t14.5 -65.5q0 -40 -20.5 -69.5t-51 -50.5t-66.5 -34t-67 -20v-1q45 1 86.5 -10t73.5 -35t51 -60.5t19 -84.5q0 -46 -19 -81t-50.5 -59t-72.5 -36.5t-84 -12.5q-46 0 -84.5 13t-66 35t-42.5 50.5t-15 60.5h8q1 -38 19.5 -66
t47 -47.5t63 -29t69.5 -9.5q41 0 77 10.5t62.5 32.5t42 56.5t15.5 82.5q0 49 -15.5 84.5t-42.5 57.5t-63 32.5t-76 10.5q-14 0 -33.5 -4.5t-40.5 -11.5v7l59 17q33 9 66.5 20.5t60 30t43.5 47.5t17 74q0 72 -43 108t-127 36q-28 0 -57.5 -8t-55 -25t-44 -43t-23.5 -61h-8
q6 36 24.5 63t44.5 45t57 27t62 9z" />
    <glyph glyph-name="four" unicode="4" horiz-adv-x="561" 
d="M516 194v-7h-137v-180h92v-7h-211v7h93v180h-333v5q33 37 75 84.5t84 103t78 119t56 133.5q6 20 9 32t5.5 18.5t5.5 8.5t9 2h3q13 0 11 -17t-21 -59q-25 -56 -60.5 -112t-76 -110.5t-84 -105t-84.5 -95.5h323v182l23 43h3v-225h137z" />
    <glyph glyph-name="five" unicode="5" horiz-adv-x="557" 
d="M490 218q0 -53 -17 -94.5t-47.5 -70.5t-72.5 -44.5t-92 -15.5q-46 0 -84 13.5t-65.5 36t-43 52.5t-15.5 62h8q1 -38 19.5 -67.5t47 -49.5t63.5 -30t69 -10q43 0 80 12t63.5 38t41.5 67t15 100q0 44 -10.5 83t-33 68t-58 45.5t-86.5 16.5q-27 0 -52.5 -6t-48 -18
t-39 -28.5t-25.5 -37.5h-12l48 373q30 -29 78 -47t99 -18t97 22.5t69 75.5l6 -3q-23 -54 -74.5 -83.5t-116.5 -29.5q-38 0 -77.5 10.5t-77.5 34.5l-41 -321h1q9 18 25 33t37.5 26t48 17.5t55.5 6.5q48 0 88.5 -16.5t69 -45.5t44.5 -69t16 -88z" />
    <glyph glyph-name="six" unicode="6" horiz-adv-x="586" 
d="M107 202q0 -44 14 -81t39 -64t60 -42t76 -15q34 0 68 10t60 34.5t42.5 65.5t16.5 104q0 61 -16 102.5t-42 67t-58.5 36t-64.5 10.5q-37 0 -72 -14t-62.5 -42.5t-44 -71.5t-16.5 -100zM361 691q-63 0 -114.5 -32t-87 -91.5t-52 -144t-10.5 -190.5h2q5 50 23 88t45.5 64
t62 39t72.5 13q41 0 79.5 -14.5t68 -42.5t47.5 -70t18 -96q0 -51 -18 -92t-48 -69.5t-69.5 -44t-83.5 -15.5q-49 0 -90.5 20t-71.5 59t-47 97t-17 133q0 90 23 163.5t62.5 125t92.5 79.5t113 28q28 0 55 -8t48.5 -24t37 -41t21.5 -58h-8q-5 33 -20.5 56.5t-36.5 38.5
t-46.5 22t-50.5 7z" />
    <glyph glyph-name="seven" unicode="7" horiz-adv-x="507" 
d="M54 667v-127h-7v151h468q-65 -65 -122.5 -138t-100 -154t-67.5 -170.5t-25 -188.5q0 -16 -1 -25t-3.5 -13.5t-5 -6t-5.5 -1.5h-2q-6 0 -9.5 7t-3.5 27q0 17 3 46q8 90 39.5 176t76 163t96 142t99.5 112h-430z" />
    <glyph glyph-name="eight" unicode="8" horiz-adv-x="579" 
d="M488 558q0 -33 -14.5 -61t-39.5 -50t-58.5 -38.5t-71.5 -27.5l40 -19q34 -17 65 -34t54.5 -39t37 -51t13.5 -69q0 -51 -21 -84.5t-53.5 -54t-72.5 -29t-79 -8.5q-48 0 -89 12.5t-70.5 36t-46.5 57t-17 75.5q0 69 49.5 119.5t146.5 79.5l-13 7q-30 15 -56.5 32.5t-45.5 39
t-30 48.5t-11 61q0 27 14 52t39.5 43.5t60.5 30t78 11.5q39 0 73.5 -10t61 -28.5t41.5 -44.5t15 -57zM269 369q-93 -26 -144.5 -74.5t-51.5 -120.5q0 -40 16 -72t44.5 -54.5t68 -35t86.5 -12.5q42 0 81.5 9t69.5 29.5t48 52.5t18 78q0 33 -14 57.5t-38.5 44t-57.5 36.5
t-71 36zM113 561q0 -45 34.5 -83t115.5 -77l33 -16q40 12 73.5 28t58 37.5t38.5 48t14 59.5q0 29 -14.5 53.5t-39.5 42t-58.5 27.5t-70.5 10q-35 0 -68.5 -9t-59 -25.5t-41 -41t-15.5 -54.5z" />
    <glyph glyph-name="nine" unicode="9" horiz-adv-x="578" 
d="M237 0q63 0 111.5 32t80 91.5t45 144t7.5 190.5h-2q-5 -50 -23 -88t-45.5 -64t-62 -39t-72.5 -13q-41 0 -79.5 14.5t-68 42.5t-47.5 70t-18 96q0 51 18 92t48 69.5t69.5 44t83.5 15.5q49 0 90.5 -20t71.5 -59t47 -97t17 -133q0 -90 -20 -163.5t-55.5 -125t-85.5 -79.5
t-110 -28q-28 0 -55.5 8t-50 24t-38 41t-21.5 58h8q5 -33 21 -56.5t37.5 -38.5t47.5 -22t51 -7zM471 489q0 44 -14 81t-39 64t-60 42t-76 15q-35 0 -68.5 -10t-59.5 -34.5t-42.5 -65.5t-16.5 -104q0 -62 16 -103t42 -66.5t58.5 -36t64.5 -10.5q37 0 72 14t62.5 42.5t44 71.5
t16.5 100z" />
    <glyph glyph-name="colon" unicode=":" horiz-adv-x="205" 
d="M155 412q0 -12 -8 -20t-19 -8q-12 0 -20 8t-8 19q0 12 8 20t19 8q12 0 20 -8t8 -19zM155 21q0 -12 -8 -20t-19 -8q-12 0 -20 8t-8 19q0 12 8 20t19 8q12 0 20 -8t8 -19z" />
    <glyph glyph-name="semicolon" unicode=";" horiz-adv-x="221" 
d="M156 412q0 -12 -8 -20t-19 -8q-12 0 -20 8t-8 19q0 12 8 20t19 8q12 0 20 -8t8 -19zM131 48q22 0 31 -15.5t9 -33.5q0 -14 -4.5 -35t-15.5 -44t-25.5 -45t-30.5 -38l-5 5q13 13 27.5 34.5t25.5 44.5q13 31 15.5 56t-13.5 25q-5 0 -8 -4.5t-11 -4.5q-11 0 -18 8.5t-7 19.5
t8 19t22 8z" />
    <glyph glyph-name="equal" unicode="=" horiz-adv-x="476" 
d="M50 334v7h376v-7h-376zM50 127v7h376v-7h-376z" />
    <glyph glyph-name="question" unicode="?" horiz-adv-x="482" 
d="M60 569q0 30 14.5 57.5t40.5 47.5t63 32t81 12q46 0 83.5 -11t64 -29.5t41 -43t14.5 -51.5q0 -35 -16 -63t-40 -54t-52.5 -52.5t-52.5 -58.5t-40 -72t-16 -92v-37h-9v37q0 50 14.5 88t36.5 68.5t47 57t47 53t36.5 56.5t14.5 68q0 63 -47.5 96t-125.5 33
q-44 0 -79.5 -11.5t-60 -31t-38 -45.5t-13.5 -54q0 -24 6.5 -43.5t17.5 -33.5l-6 -5q-12 16 -19 36t-7 46zM269 21q0 -12 -8 -20t-19 -8q-12 0 -20 8t-8 19q0 12 8 20t19 8q12 0 20 -8t8 -19z" />
    <glyph glyph-name="at" unicode="@" horiz-adv-x="823" 
d="M765 409q0 70 -25 126t-68.5 95t-101.5 60t-123 21q-86 0 -157.5 -30t-123 -81t-80 -118.5t-28.5 -141.5t26.5 -136t73.5 -107.5t113 -71t144 -25.5q49 0 89.5 7.5t75 20t62.5 29.5t51 35l4 -5q-16 -14 -41 -30t-60 -30.5t-80 -24t-101 -9.5q-75 0 -141 24.5t-116 69.5
t-79 109t-29 144q0 79 30 148t83.5 120t126 80.5t157.5 29.5q66 0 125 -21t103.5 -60.5t71 -97t26.5 -130.5q0 -53 -12.5 -102.5t-37.5 -88.5t-61 -62.5t-82 -23.5q-39 0 -62 13t-34 34t-12 46.5t3 49.5h-1q-10 -22 -25 -44t-34 -39.5t-42.5 -28.5t-50.5 -11
q-25 0 -47.5 11.5t-39 32.5t-26 50t-9.5 63q0 53 21.5 101.5t55 86t73.5 60t77 22.5q27 0 45.5 -14t29 -36.5t14 -51t0.5 -57.5h1l43 151h27l-80 -290q-7 -26 -8.5 -51.5t6 -45.5t25.5 -32.5t50 -12.5q39 0 73 20t58.5 56t39 85.5t14.5 108.5zM322 159q35 0 63.5 19t50 47.5
t36.5 61t23 59.5q11 35 14 74.5t-4.5 73.5t-26.5 56t-51 22q-37 0 -72.5 -21t-63 -57t-44.5 -83.5t-17 -101.5q0 -68 22 -109t70 -41z" />
    <glyph glyph-name="A" unicode="A" horiz-adv-x="660" 
d="M474 240h-318l-67 -233h104v-7h-193v7h80l177 610q12 43 25 62t33 19q28 0 42.5 -21.5t26.5 -60.5l190 -609h86v-7h-212v7h98zM158 247h314l-115 379q-11 34 -18 49.5t-24 15.5q-22 0 -32.5 -25t-20.5 -60z" />
    <glyph glyph-name="B" unicode="B" horiz-adv-x="646" 
d="M173 692h28.5t33.5 0.5t32.5 0.5h26.5q120 0 185 -37.5t65 -123.5q0 -36 -13.5 -64.5t-37 -49.5t-55 -33.5t-66.5 -15.5v-1q38 -3 74.5 -15t65.5 -34.5t46.5 -55.5t17.5 -77q0 -49 -17.5 -84t-50.5 -58t-79.5 -34t-104.5 -11q-22 0 -62.5 0.5t-88.5 0.5h-133v7h102v678
h-100v7h131zM315 6q111 -1 171 42t60 138q0 36 -12.5 68t-38 57t-66 39.5t-95.5 14.5h-166v-358zM168 685v-313h166q85 0 132.5 39.5t47.5 120.5q0 43 -13 73t-41 48t-71 26t-103 7z" />
    <glyph glyph-name="C" unicode="C" horiz-adv-x="722" 
d="M382 -7q-68 0 -126 27.5t-100.5 75.5t-66.5 112t-24 137t24 137.5t66.5 112.5t100.5 75.5t126 27.5q106 0 178.5 -56.5t92.5 -167.5h-9q-10 56 -34 97t-58.5 67.5t-78 39.5t-91.5 13q-54 0 -106 -20t-92 -62t-64.5 -107.5t-24.5 -156.5q0 -92 24.5 -157t64.5 -107
t92 -61.5t106 -19.5q48 0 92 13t79 39.5t60 67.5t35 97h9q-10 -55 -34 -97t-60 -70t-82 -42.5t-99 -14.5z" />
    <glyph glyph-name="D" unicode="D" horiz-adv-x="727" 
d="M662 347q0 -77 -26 -141t-74 -110t-116 -71.5t-152 -25.5q-26 0 -56.5 0.5t-56.5 0.5h-141v7h102v678h-100v7h133q28 0 59.5 0.5t59.5 0.5q84 0 152 -25t116 -71t74 -109.5t26 -140.5zM631 347q0 99 -30 164.5t-78 104.5t-109 54.5t-124 15.5h-27.5t-94.5 -1v-678
q68 -1 94.5 -1h27.5q63 0 124 16t109 55t78 105t30 165z" />
    <glyph glyph-name="E" unicode="E" horiz-adv-x="638" 
d="M548 692v-166h-8v159h-372v-312h257v113h8v-229h-8v109h-257v-359h397v171h8v-178h-533v7h102v678h-100v7h506z" />
    <glyph glyph-name="F" unicode="F" horiz-adv-x="603" 
d="M289 0h-249v7h102v678h-100v7h531v-166h-8v159h-397v-312h257v113h8v-230h-8v110h-257v-359h121v-7z" />
    <glyph glyph-name="G" unicode="G" horiz-adv-x="765" 
d="M65 345q0 73 24 137.5t66.5 112.5t100.5 75.5t126 27.5q53 0 98.5 -14.5t81.5 -42.5t60 -70t34 -97h-9q-10 56 -34.5 97t-59.5 67.5t-79 39.5t-92 13q-54 0 -106 -20t-92 -62t-64.5 -107.5t-24.5 -156.5q0 -92 25 -157t66.5 -107t94 -61.5t108.5 -19.5q38 0 84.5 10.5
t87.5 40.5t68.5 85t27.5 144v50h-162v7h170v-337h-8v136q0 29 0.5 44t1.5 28h-1q-8 -54 -32 -94.5t-59.5 -67.5t-81 -40t-96.5 -13q-70 0 -129 27.5t-102.5 75.5t-68 112t-24.5 137z" />
    <glyph glyph-name="H" unicode="H" horiz-adv-x="753" 
d="M587 366h-421v-359h100v-7h-226v7h100v678h-100v7h226v-7h-100v-312h421v312h-100v7h226v-7h-100v-678h100v-7h-226v7h100v359z" />
    <glyph glyph-name="I" unicode="I" horiz-adv-x="306" 
d="M140 685h-100v7h226v-7h-100v-678h100v-7h-226v7h100v678z" />
    <glyph glyph-name="J" unicode="J" horiz-adv-x="459" 
d="M303 685h-110v7h236v-7h-100v-490q0 -94 -45.5 -148t-126.5 -54q-30 0 -57.5 10.5t-49 31.5t-35 51t-15.5 69h8q2 -39 15.5 -68t34 -48.5t46.5 -29t53 -9.5q29 0 55.5 8t46.5 30t32 59.5t12 97.5v490z" />
    <glyph glyph-name="K" unicode="K" horiz-adv-x="687" 
d="M539 685h-111v7h237v-7h-114l-353 -323l387 -355h102v-7h-244v7h107l-377 343zM140 685h-100v7h226v-7h-100v-678h100v-7h-226v7h100v678z" />
    <glyph glyph-name="L" unicode="L" horiz-adv-x="588" 
d="M168 685v-678h367v171h8v-178h-503v7h102v678h-100v7h234v-7h-108z" />
    <glyph glyph-name="M" unicode="M" horiz-adv-x="849" 
d="M809 692v-7h-100v-678h100v-7h-226v7h100v678l-197 -560q-14 -42 -24.5 -61t-32.5 -19q-27 0 -43 21.5t-30 59.5l-200 559v-678h100v-7h-216v7h108v678h-108v7h142l210 -592q10 -29 17.5 -39t19.5 -10q9 0 15 3.5t11.5 13.5t11.5 26.5t15 42.5l195 555h132z" />
    <glyph glyph-name="N" unicode="N" horiz-adv-x="726" 
d="M604 81q0 -50 -13.5 -69t-35.5 -19q-24 0 -45 22t-50 79l-306 591v-678h100v-7h-214v7h106v678h-106v7h141l318 -622q11 -21 18.5 -35t13.5 -21.5t12 -10.5t13 -3q23 0 31.5 22t8.5 64v599h-100v7h216v-7h-108v-604z" />
    <glyph glyph-name="O" unicode="O" horiz-adv-x="782" 
d="M95 345q0 -92 25.5 -157t67 -107t94.5 -61.5t109 -19.5q55 0 108.5 19.5t95 61.5t67 107t25.5 157q0 91 -25.5 156.5t-67 107.5t-95 62t-108.5 20q-56 0 -109 -20t-94.5 -62t-67 -107.5t-25.5 -156.5zM65 345q0 73 25 137.5t68.5 112.5t103 75.5t129.5 27.5t129.5 -27.5
t103 -75.5t68.5 -112.5t25 -137.5t-25 -137t-68.5 -112t-103 -75.5t-129.5 -27.5t-129.5 27.5t-103 75.5t-68.5 112t-25 137z" />
    <glyph glyph-name="P" unicode="P" horiz-adv-x="604" 
d="M286 7v-7h-246v7h102v678h-100v7h132h31.5t38 0.5t38 0.5h31.5q122 0 189 -47t67 -141q0 -39 -15.5 -74t-47 -60.5t-79.5 -40.5t-112 -15h-147v-308h118zM168 322h147q115 0 169.5 48t54.5 132q0 94 -54 139t-172 45h-70.5t-74.5 -1v-363z" />
    <glyph glyph-name="Q" unicode="Q" horiz-adv-x="782" 
d="M391 691q-56 0 -109 -20t-94.5 -62t-67 -107.5t-25.5 -156.5q0 -92 25.5 -157t67 -107t94.5 -61.5t109 -19.5q55 0 108.5 19.5t95 61.5t67 107t25.5 157q0 91 -25.5 156.5t-67 107.5t-95 62t-108.5 20zM232 -132v20l245 117q-17 -6 -43 -9t-43 -3q-70 0 -129.5 27.5
t-103 75.5t-68.5 112t-25 137t25 137.5t68.5 112.5t103 75.5t129.5 27.5t129.5 -27.5t103 -75.5t68.5 -112.5t25 -137.5q0 -57 -14.5 -107.5t-41 -92.5t-64.5 -75t-84 -55l-267 -127h351v-20h-365z" />
    <glyph glyph-name="R" unicode="R" horiz-adv-x="701" 
d="M676 53q-9 -35 -25 -47.5t-38 -12.5q-35 0 -59.5 40t-26.5 121l-1 39q-1 49 -15 81.5t-40 51.5t-64.5 26.5t-89.5 7.5h-149v-353h108v-7h-236v7h102v678h-100v7h136h29t35.5 0.5t35.5 0.5h29q49 0 93 -8.5t76.5 -27t51.5 -49t19 -74.5q0 -36 -14 -66t-38 -52t-57.5 -35
t-72.5 -16v-1q91 -5 138.5 -54t49.5 -125l1 -31q1 -40 3.5 -69t9 -48t18 -28t30.5 -9q16 0 31.5 10t22.5 45zM306 686q-31 0 -61.5 -0.5t-76.5 -0.5v-318h162q39 0 73 9t59.5 28t40 49.5t14.5 72.5q0 49 -15.5 80t-43 49t-66.5 24.5t-86 6.5z" />
    <glyph glyph-name="S" unicode="S" horiz-adv-x="596" 
d="M100 557q0 -54 43 -91t133 -69l58 -21q39 -14 73.5 -31.5t60.5 -42t41 -56.5t15 -75q0 -46 -16 -79.5t-45.5 -55.5t-70.5 -32.5t-91 -10.5t-91.5 15t-72 43t-49.5 67t-23 86h9q4 -47 22.5 -84.5t48.5 -64t69.5 -41t86.5 -14.5q40 0 78.5 8t68.5 28t48.5 52.5t18.5 82.5
q0 40 -17 68.5t-44 49t-61.5 35.5t-70.5 28l-59 22q-85 31 -128.5 75.5t-43.5 107.5q0 30 14 56t39 44.5t59.5 29.5t75.5 11q39 0 75 -9t65.5 -29.5t49.5 -54t28 -82.5h-9q-7 47 -27 79.5t-48.5 52t-62.5 28t-70 8.5q-38 0 -71 -9.5t-57 -27t-38 -42.5t-14 -55z" />
    <glyph glyph-name="T" unicode="T" horiz-adv-x="670" 
d="M45 692h580v-166h-8v159h-269v-678h120v-7h-266v7h120v678h-269v-159h-8v166z" />
    <glyph glyph-name="U" unicode="U" horiz-adv-x="707" 
d="M146 212q0 -54 16 -94t45 -66.5t68.5 -39t86.5 -12.5q49 0 90 12.5t70 39t45.5 66.5t16.5 95v472h-106v7h219v-7h-105v-471q0 -59 -18 -101t-49.5 -68.5t-73 -39t-89.5 -12.5q-69 0 -115.5 20t-74.5 53t-40 75t-12 85v459h-100v7h226v-7h-100v-473z" />
    <glyph glyph-name="V" unicode="V" horiz-adv-x="700" 
d="M602 685h-85v7h173v-7h-79l-187 -611q-12 -39 -23.5 -60t-34.5 -21q-29 0 -43.5 22t-26.5 60l-200 610h-86v7h212v-7h-98l199 -620q13 -39 20.5 -52t22.5 -13q22 0 31.5 24.5t20.5 58.5z" />
    <glyph glyph-name="W" unicode="W" horiz-adv-x="930" 
d="M511 596q-7 38 -16.5 51.5t-26.5 13.5q-23 0 -33.5 -19t-15.5 -57l-69 -511q-6 -45 -22.5 -63t-37.5 -18q-29 0 -45 21t-24 61l-120 610h-86v7h212v-7h-98l119 -620q7 -37 15.5 -51t26.5 -14q25 0 36.5 22.5t16.5 60.5l68 504q6 47 21.5 64t37.5 17q29 0 45 -21.5
t23 -60.5l90 -521q6 -37 15.5 -51t26.5 -14q25 0 36 24t17 59l104 602h-85v7h173v-7h-79l-107 -611q-8 -44 -23 -62.5t-36 -18.5q-55 0 -69 82z" />
    <glyph glyph-name="X" unicode="X" horiz-adv-x="698" 
d="M359 371l232 -364h97v-7h-233v7h105l-217 341l-227 -341h96v-7h-202v7h96l232 348l-209 330h-99v7h232v-7h-102l194 -306l204 306h-96v7h202v-7h-96z" />
    <glyph glyph-name="Y" unicode="Y" horiz-adv-x="687" 
d="M581 685l-219 -377v-301h106v-7h-238v7h106v303l-230 375h-96v7h224v-7h-100l225 -366l212 366h-107v7h213v-7h-96z" />
    <glyph glyph-name="Z" unicode="Z" horiz-adv-x="616" 
d="M45 0l465 685h-401v-184h-7v191h444l-467 -685h451v198h7v-205h-492z" />
    <glyph glyph-name="bracketleft" unicode="[" horiz-adv-x="235" 
d="M100 -240v951h105v-7h-96v-937h96v-7h-105z" />
    <glyph glyph-name="bracketright" unicode="]" horiz-adv-x="235" 
d="M30 -240v7h96v937h-96v7h105v-951h-105z" />
    <glyph glyph-name="underscore" unicode="_" horiz-adv-x="499" 
d="M40 -7v7h419v-7h-419z" />
    <glyph glyph-name="grave" unicode="`" horiz-adv-x="160" 
d="M123 520l-125 161h20l112 -161h-7z" />
    <glyph glyph-name="a" unicode="a" horiz-adv-x="450" 
d="M197 441q22 0 47 -5.5t46 -21.5t34.5 -43.5t13.5 -72.5v-237q0 -35 12 -46.5t28 -11.5q38 0 47 46l7 -2q-6 -28 -20.5 -39.5t-34.5 -11.5q-11 0 -22 4t-20.5 15.5t-15 32t-5.5 54.5h-1q-5 -21 -17 -41t-30.5 -35t-42.5 -24t-54 -9q-27 0 -50.5 7.5t-41.5 22t-28.5 34.5
t-10.5 44q0 35 19 57.5t54.5 37.5t86 26t114.5 23v63q0 39 -9.5 63.5t-25 38.5t-36.5 19t-45 5q-21 0 -43 -6t-40.5 -19t-31.5 -33t-15 -48h-9q3 28 16 49t32.5 35.5t43.5 21.5t48 7zM312 238q-60 -10 -105.5 -20t-76.5 -25t-46.5 -37t-15.5 -56q0 -47 26 -73.5t75 -26.5
q31 0 57.5 11t45.5 31t29.5 47.5t10.5 60.5v88z" />
    <glyph glyph-name="b" unicode="b" horiz-adv-x="516" 
d="M124 215q0 -38 10.5 -76.5t30 -70t48.5 -51t67 -19.5q27 0 54 11.5t48.5 37.5t35 67.5t13.5 100.5t-13.5 100.5t-35 67.5t-48.5 37.5t-54 11.5q-38 0 -67 -19.5t-48.5 -51t-30 -70t-10.5 -76.5zM127 291q7 28 20 55t32.5 47.5t45 33t55.5 12.5q39 0 72 -17.5t57 -48
t38 -71.5t14 -87t-14 -87t-38 -71.5t-57 -48t-72 -17.5q-30 0 -55.5 12.5t-45 33t-32.5 47t-20 55.5h-1q0 -4 0.5 -12t1 -18t0.5 -20v-18v-71h-108v7h82v697h-82v7h108v-342q0 -24 -0.5 -47t-1.5 -31h1z" />
    <glyph glyph-name="c" unicode="c" horiz-adv-x="461" 
d="M85 216q0 -60 13.5 -101t36 -66.5t52 -37t60.5 -11.5q25 0 49.5 7.5t45.5 22.5t35.5 38.5t20.5 56.5h8q-5 -33 -20 -57.5t-36.5 -41t-48 -25t-54.5 -8.5q-42 0 -77.5 17.5t-61 47.5t-39.5 70.5t-14 87.5q0 46 14.5 87t40 71t61 47.5t76.5 17.5q28 0 54 -8t47 -24
t35.5 -41t20.5 -58h-8q-5 33 -19.5 56.5t-35 38.5t-45 22t-49.5 7q-30 0 -59 -11.5t-52 -37t-37 -66.5t-14 -101z" />
    <glyph glyph-name="d" unicode="d" horiz-adv-x="531" 
d="M390 291q-1 8 -1.5 31t-0.5 47v335h-98v7h124v-704h82v-7h-108v71v18t0.5 20t1 18t0.5 12h-1q-7 -29 -20 -55.5t-32.5 -47t-45 -33t-55.5 -12.5q-39 0 -72 17.5t-57 48t-38 71.5t-14 87t14 87t38 71.5t57 48t72 17.5q30 0 55.5 -12.5t45 -33t32.5 -47.5t20 -55h1z
M392 215q0 38 -10.5 76.5t-30 70t-49 51t-66.5 19.5q-27 0 -54 -11.5t-48.5 -37.5t-35 -67.5t-13.5 -100.5t13.5 -100.5t35 -67.5t48.5 -37.5t54 -11.5q37 0 66.5 19.5t49 51t30 70t10.5 76.5z" />
    <glyph glyph-name="e" unicode="e" horiz-adv-x="468" 
d="M86 243q-1 -7 -1 -13.5v-14.5q0 -60 13 -101t35.5 -66.5t52.5 -36.5t63 -11q24 0 48 7t45 22.5t37.5 40.5t24.5 62l8 -2q-8 -37 -25 -63t-39 -42.5t-47.5 -24t-51.5 -7.5q-44 0 -80 17t-61.5 47t-39 70.5t-13.5 87.5t14.5 87.5t40 70.5t60 47t75.5 17q31 0 61.5 -11.5
t54.5 -35.5t38.5 -60.5t13.5 -86.5h-327zM245 430q-27 0 -54 -9.5t-49 -31t-37 -56t-19 -84.5h300q1 54 -12 89.5t-34 55.5t-46 28t-49 8z" />
    <glyph glyph-name="f" unicode="f" horiz-adv-x="295" 
d="M29 0v7h82v416h-82v7h82v28q0 47 16.5 92.5t48 81t77 57.5t103.5 22h9v-133h-8v126h-1q-48 0 -91 -17.5t-74.5 -50t-47.5 -78.5t-9 -103l3 -25h165v-7h-165v-416h112v-7h-220z" />
    <glyph glyph-name="g" unicode="g" horiz-adv-x="478" 
d="M282 423q44 -19 72.5 -57.5t28.5 -87.5q0 -53 -29.5 -92t-78.5 -56v-1q47 2 73.5 -10t26.5 -33q0 -9 -4.5 -17t-15.5 -15t-29.5 -10.5t-46.5 -3.5l-1 -1q25 -1 52 -9.5t48.5 -24.5t35.5 -40.5t14 -57.5q0 -35 -17 -63.5t-45.5 -49t-66.5 -31.5t-81 -11t-80.5 11t-65 31.5
t-43.5 49t-16 63.5q0 27 10 50.5t26.5 41.5t37.5 30t44 17l1 -6q-20 -5 -40 -16t-36 -28t-25.5 -39.5t-9.5 -49.5q0 -34 15.5 -61t42 -46.5t62.5 -30t77 -10.5q37 0 70 8t57.5 26t38.5 46t14 68q0 42 -15 67.5t-36.5 39t-46.5 18t-45 4.5h-8l3 6h10q16 0 32 1t29 5
t21.5 12.5t8.5 24.5q0 13 -7 21t-17.5 12t-23 5t-24.5 1h-18q-9 -2 -22 -3.5t-23 -1.5q-33 0 -63 12.5t-53.5 34t-37 50.5t-13.5 62t13.5 62t37 50.5t53.5 34t63 12.5q12 0 24 -2t24 -5h204v-7h-186zM79 278q0 -41 11.5 -70t30.5 -47.5t43.5 -27t51.5 -8.5t51.5 8.5t43.5 27
t30.5 47.5t11.5 70t-11.5 70t-30.5 47.5t-43.5 27t-51.5 8.5t-51.5 -8.5t-43.5 -27t-30.5 -47.5t-11.5 -70z" />
    <glyph glyph-name="h" unicode="h" horiz-adv-x="510" 
d="M128 7h82v-7h-190v7h82v697h-80v7h106v-362q0 -24 -0.5 -39t-1.5 -23h1q4 19 15 45t29.5 49.5t45 39.5t62.5 16q24 0 47 -7.5t41 -24.5t29.5 -44t11.5 -67v-287h82v-7h-190v7h82v283q0 76 -28.5 108t-74.5 32q-40 0 -68.5 -21.5t-47 -52t-27 -63t-8.5 -54.5v-232z" />
    <glyph glyph-name="i" unicode="i" 
d="M128 7h82v-7h-190v7h82v416h-80v7h106v-423zM90 647q0 9 6.5 15.5t15.5 6.5t15.5 -6.5t6.5 -15.5t-6.5 -15.5t-15.5 -6.5t-15.5 6.5t-6.5 15.5z" />
    <glyph glyph-name="j" unicode="j" horiz-adv-x="244" 
d="M-40 -240v103h8v-96q37 0 63.5 8t43 28.5t24 54.5t7.5 86v479h-103v7h129v-482q0 -55 -12 -91t-34 -57.5t-52 -30.5t-66 -9h-8zM93 647q0 9 6.5 15.5t15.5 6.5t15.5 -6.5t6.5 -15.5t-6.5 -15.5t-15.5 -6.5t-15.5 6.5t-6.5 15.5z" />
    <glyph glyph-name="k" unicode="k" horiz-adv-x="523" 
d="M128 237v-230h82v-7h-190v7h82v697h-80v7h106v-467h92q12 0 24 1.5t24 7t24 17t23 31.5l69 122h-78v7h166v-7h-79l-75 -131q-11 -20 -27 -33.5t-38 -16.5v-1q24 -2 40.5 -11.5t34.5 -41.5l105 -181h80v-7h-186v7h77l-106 185q-11 20 -27.5 32.5t-51.5 12.5h-91z" />
    <glyph glyph-name="l" unicode="l" 
d="M128 7h82v-7h-190v7h82v697h-80v7h106v-704z" />
    <glyph glyph-name="m" unicode="m" horiz-adv-x="790" 
d="M210 0h-190v7h82v416h-80v7h106v-81q0 -24 -0.5 -39t-1.5 -23h1q4 19 15 45t29.5 49.5t45 39.5t62.5 16q24 0 47 -7.5t41 -24.5t29.5 -44t11.5 -67v-3q5 20 16 45t29 47.5t44.5 38t61.5 15.5q24 0 47 -7.5t41 -24.5t29.5 -44t11.5 -67v-287h82v-7h-190v7h82v283
q0 76 -28.5 108t-74.5 32q-40 0 -68.5 -21.5t-47 -52t-27 -63t-8.5 -54.5v-232h82v-7h-190v7h82v283q0 76 -28.5 108t-74.5 32q-40 0 -68.5 -21.5t-47 -52t-27 -63t-8.5 -54.5v-232h82v-7z" />
    <glyph glyph-name="n" unicode="n" horiz-adv-x="500" 
d="M128 7h82v-7h-190v7h82v416h-80v7h106v-81q0 -24 -0.5 -39t-1.5 -23h1q4 19 15 45t29.5 49.5t45 39.5t62.5 16q24 0 47 -7.5t41 -24.5t29.5 -44t11.5 -67v-287h82v-7h-190v7h82v283q0 76 -28.5 108t-74.5 32q-40 0 -68.5 -21.5t-47 -52t-27 -63t-8.5 -54.5v-232z" />
    <glyph glyph-name="o" unicode="o" horiz-adv-x="484" 
d="M242 432q-31 0 -59.5 -11.5t-50 -37t-34.5 -66.5t-13 -101t13 -101t34.5 -66.5t50 -37t59.5 -11.5t59.5 11.5t50 37t34.5 66.5t13 101t-13 101t-35 66.5t-50 37t-59 11.5zM242 439q41 0 75.5 -18t59 -48.5t38.5 -71t14 -85.5t-13.5 -85.5t-38.5 -71t-59 -48.5t-76 -18
t-76 18t-59 48.5t-38.5 71t-13.5 85.5t13.5 85.5t38.5 71t59.5 48.5t75.5 18z" />
    <glyph glyph-name="p" unicode="p" horiz-adv-x="516" 
d="M124 215q0 -38 10.5 -76.5t30 -70t48.5 -51t67 -19.5q27 0 54 11.5t48.5 37.5t35 67.5t13.5 100.5t-13.5 100.5t-35 67.5t-48.5 37.5t-54 11.5q-38 0 -67 -19.5t-48.5 -51t-30 -70t-10.5 -76.5zM127 291q7 28 20 55t32.5 47.5t45 33t55.5 12.5q39 0 72 -17.5t57 -48
t38 -71.5t14 -87t-14 -87t-38 -71.5t-57 -48t-72 -17.5q-30 0 -55.5 12.5t-45 33t-32.5 47t-20 55.5h-1q0 -4 0.5 -12t1 -18t0.5 -20v-18v-304h102v-7h-210v7h82v656h-82v7h108v-61q0 -24 -0.5 -47t-1.5 -31h1z" />
    <glyph glyph-name="q" unicode="q" horiz-adv-x="529" 
d="M392 215q0 38 -10.5 76.5t-30 70t-49 51t-66.5 19.5q-27 0 -54 -11.5t-48.5 -37.5t-35 -67.5t-13.5 -100.5t13.5 -100.5t35 -67.5t48.5 -37.5t54 -11.5q37 0 66.5 19.5t49 51t30 70t10.5 76.5zM390 291q-1 8 -1.5 31t-0.5 47v61h108v-7h-82v-656h82v-7h-210v7h102v304v18
t0.5 20t1 18t0.5 12h-1q-7 -29 -20 -55.5t-32.5 -47t-45 -33t-55.5 -12.5q-39 0 -72 17.5t-57 48t-38 71.5t-14 87t14 87t38 71.5t57 48t72 17.5q30 0 55.5 -12.5t45 -33t32.5 -47.5t20 -55h1z" />
    <glyph glyph-name="r" unicode="r" horiz-adv-x="331" 
d="M127 285q4 27 15 53t31.5 46.5t53.5 33t83 12.5h16v-7h-18q-94 0 -137 -52t-43 -143v-221h103v-7h-211v7h82v416h-80v7h106v-83q0 -24 -0.5 -39t-1.5 -23h1v0z" />
    <glyph glyph-name="s" unicode="s" horiz-adv-x="385" 
d="M184 439q44 0 78 -9.5t52 -26.5v-88h-8v84q-9 8 -22.5 14.5t-30 10.5t-34.5 6t-35 2q-22 0 -43.5 -5.5t-39 -17t-28 -28t-10.5 -37.5q0 -19 9.5 -33.5t25.5 -26t35 -20.5t39 -16l25 -9q25 -9 50 -19t45 -24.5t32 -35.5t12 -52q0 -28 -11.5 -49.5t-32 -36t-48 -22
t-59.5 -7.5q-42 0 -78 10.5t-58 28.5v103h8v-99q19 -15 54.5 -25.5t73.5 -10.5q63 0 102.5 28.5t39.5 79.5q0 20 -9 34.5t-27 26.5t-44 22.5t-59 22.5l-25 9q-49 17 -79 45t-30 76q0 21 10.5 38.5t28.5 30t41.5 19.5t49.5 7z" />
    <glyph glyph-name="t" unicode="t" horiz-adv-x="320" 
d="M279 71q-8 -42 -31.5 -60t-55.5 -18q-17 0 -33.5 5.5t-29 17.5t-20.5 31.5t-8 47.5v328h-91v7h91v94l23 40h3v-134h158v-7h-158v-331q0 -45 14.5 -68.5t50.5 -23.5q37 0 55 20t25 53z" />
    <glyph glyph-name="u" unicode="u" horiz-adv-x="509" 
d="M123 140q0 -76 27.5 -108t72.5 -32q40 0 68.5 21.5t46.5 51.5t26.5 62.5t8.5 54.5v233h-82v7h108v-423h80v-7h-106v81q0 24 0.5 39t1.5 23h-1q-4 -19 -14.5 -44.5t-29 -49t-45 -40t-62.5 -16.5q-24 0 -46.5 7t-40 24t-28.5 44t-11 68v287h-82v7h108v-290z" />
    <glyph glyph-name="v" unicode="v" horiz-adv-x="458" 
d="M394 423l-95 -363q-10 -36 -25 -51.5t-38 -15.5q-26 0 -43.5 17t-28.5 56l-101 357h-73v7h173v-7h-71l96 -356q9 -35 20 -51t31 -16q14 0 27.5 11t23.5 49l95 363h-74v7h157v-7h-74z" />
    <glyph glyph-name="w" unicode="w" horiz-adv-x="731" 
d="M647 423l-85 -363q-8 -36 -24 -51.5t-37 -15.5q-27 0 -45.5 17t-28.5 56l-60 244l-58 -250q-8 -36 -24.5 -51.5t-38.5 -15.5q-26 0 -44 17t-28 56l-91 357h-73v7h173v-7h-71l86 -356q9 -37 19 -52t29 -15q15 0 30 11t24 49l63 267l-25 103h29l84 -363q8 -36 19 -51.5
t31 -15.5q14 0 28.5 11t23.5 49l85 363h-74v7h157v-7h-74z" />
    <glyph glyph-name="x" unicode="x" horiz-adv-x="493" 
d="M250 247l122 176h-66v7h147v-7h-71l-127 -183l156 -233h62v-7h-168v7h76l-141 211l-146 -211h77v-7h-151v7h65l150 218l-132 198h-64v7h155v-7h-61z" />
    <glyph glyph-name="y" unicode="y" horiz-adv-x="498" 
d="M105 -240v143h8v-136q31 0 55.5 6t41 23.5t25 48.5t8.5 82v68l-170 428h-73v7h173v-7h-71l162 -418l151 418h-74v7h157v-7h-74l-155 -428v-47q0 -61 -13.5 -98t-35.5 -57t-50 -26.5t-57 -6.5h-8z" />
    <glyph glyph-name="z" unicode="z" horiz-adv-x="423" 
d="M34 0l291 423h-254v-123h-7v130h296l-292 -423h287v150h7v-157h-328z" />
    <glyph glyph-name="braceleft" unicode="{" horiz-adv-x="257" 
d="M54 232q40 -8 54 -35t14 -89v-225q0 -38 4.5 -61t15 -35t27.5 -16t42 -4h6v-7h-4q-29 0 -48 4.5t-30.5 18t-16.5 37.5t-5 63v224q0 25 -1.5 46t-9 36t-22 25t-40.5 15v7q26 4 40.5 14.5t22 25.5t9 35.5t1.5 46.5v230q0 39 5 63t16.5 37.5t30.5 18t48 4.5h4v-7h-6
q-25 0 -42 -4t-27.5 -16t-15 -35t-4.5 -61v-231q0 -62 -14 -89t-54 -35v-1z" />
    <glyph glyph-name="bar" unicode="|" horiz-adv-x="209" 
d="M100 -267v978h9v-978h-9z" />
    <glyph glyph-name="braceright" unicode="}" horiz-adv-x="257" 
d="M203 233q-40 8 -54 35t-14 89v231q0 38 -4.5 61t-15 35t-27.5 16t-42 4h-6v7h4q28 0 47.5 -4.5t31 -18t16.5 -37.5t5 -63v-230q0 -26 1.5 -46.5t9 -35.5t22 -25.5t40.5 -14.5v-7q-26 -5 -40.5 -15t-22 -25t-9 -36t-1.5 -46v-224q0 -39 -5 -63t-16.5 -37.5t-31 -18
t-47.5 -4.5h-4v7h6q25 0 42 4t27.5 16t15 35t4.5 61v225q0 62 14 89t54 35v1v0z" />
    <glyph glyph-name="uni00A0" unicode="&#xa0;" horiz-adv-x="230" 
 />
    <glyph glyph-name="exclamdown" unicode="&#xa1;" horiz-adv-x="295" 
d="M183 -201q0 -28 -2.5 -37t-13.5 -9q-10 0 -12.5 9t-2.5 37q0 40 2 77t4 88t4 125t2 187h7q0 -113 2 -187t4 -125t4 -88t2 -77zM195 412q0 -12 -8 -20t-19 -8q-12 0 -20 8t-8 19q0 12 8 20t19 8q12 0 20 -8t8 -19z" />
    <glyph glyph-name="sterling" unicode="&#xa3;" horiz-adv-x="572" 
d="M101 346h147q-18 32 -40.5 59.5t-43 53.5t-34.5 52.5t-14 57.5q0 27 16 51t44 41t66.5 27t84.5 10q42 0 76 -11t58 -30t37 -45.5t13 -56.5h-8q0 28 -12.5 53t-35 43.5t-55.5 29t-73 10.5q-39 0 -72 -7.5t-57 -22.5t-38 -38t-14 -54q0 -27 12 -53t30 -52.5t38 -55.5
t35 -62h187v-7h-183q11 -24 17 -51t6 -58q0 -36 -9 -69.5t-25 -62.5q22 -17 42 -34t40 -31.5t39.5 -23.5t39.5 -9q49 0 75.5 22.5t39.5 70.5l7 -2q-14 -48 -42.5 -73t-79.5 -25q-29 0 -53.5 7.5t-46 19t-40 26.5t-35.5 30q-26 -38 -61.5 -60.5t-73.5 -22.5q-41 0 -62.5 23
t-21.5 53q0 35 26 58.5t72 23.5q37 0 68.5 -14.5t59.5 -34.5q15 27 24 59.5t9 67.5q0 32 -7.5 59t-20.5 51h-151v7zM105 0q35 0 69 22t60 59q-29 25 -56 44t-59 19q-44 0 -67 -21.5t-23 -53.5q0 -33 23 -51t53 -18z" />
    <glyph glyph-name="yen" unicode="&#xa5;" horiz-adv-x="687" 
d="M336 261v48l-230 375h-86v7h204v-7h-90l225 -366l212 366h-97v7h193v-7h-86l-219 -377v-46h159v-7h-159v-140h159v-7h-159v-100h96v-7h-218v7h96v100h-159v7h159v140h-159v7h159z" />
    <glyph glyph-name="dieresis" unicode="&#xa8;" horiz-adv-x="256" 
d="M10 627q0 9 6.5 15.5t15.5 6.5t15.5 -6.5t6.5 -15.5t-6.5 -15.5t-15.5 -6.5t-15.5 6.5t-6.5 15.5zM202 627q0 9 6.5 15.5t15.5 6.5t15.5 -6.5t6.5 -15.5t-6.5 -15.5t-15.5 -6.5t-15.5 6.5t-6.5 15.5z" />
    <glyph glyph-name="copyright" unicode="&#xa9;" horiz-adv-x="840" 
d="M610 267q-14 -76 -65.5 -111.5t-119.5 -35.5q-46 0 -82.5 17.5t-62 47.5t-39 70.5t-13.5 87.5q0 46 13 86.5t38.5 70.5t62.5 47.5t84 17.5q33 0 63 -9t54 -27t41 -45.5t24 -65.5h-8q-14 72 -61.5 106t-113.5 34q-43 0 -78 -16t-59.5 -44.5t-38 -68t-13.5 -86.5t13.5 -87
t38 -68.5t59.5 -44.5t77 -16q67 0 115.5 34t62.5 106h8zM770 343q0 -75 -27.5 -139t-75 -111t-111 -73.5t-136.5 -26.5q-72 0 -136 26.5t-111.5 73.5t-75 111t-27.5 139t27.5 138.5t75 110t111.5 73t136 26.5q73 0 136.5 -26.5t111 -73t75 -110t27.5 -138.5zM762 343
q0 73 -26.5 135t-73 108t-109 72t-133.5 26t-133.5 -26t-109 -72t-73 -108t-26.5 -135t26.5 -136t73 -109t109 -72t133.5 -26t133.5 26t109 72t73 109t26.5 136z" />
    <glyph glyph-name="guillemotleft" unicode="&#xab;" horiz-adv-x="404" 
d="M214 225q0 28 8.5 52.5t22.5 44t30.5 34t33.5 23.5l4 -6q-37 -20 -64 -58.5t-27 -89.5q0 -31 7 -50.5t18 -31t24.5 -16.5t27.5 -7q20 -3 27.5 -8.5t7.5 -15.5t-7.5 -14.5t-18.5 -4.5q-14 0 -30.5 11.5t-30.5 31.5t-23.5 47t-9.5 58zM40 225q0 28 8.5 52.5t22.5 44
t30.5 34t33.5 23.5l4 -6q-37 -20 -64 -58.5t-27 -89.5q0 -31 7 -50.5t18 -31t24.5 -16.5t27.5 -7q20 -3 27.5 -8.5t7.5 -15.5t-7.5 -14.5t-18.5 -4.5q-14 0 -30.5 11.5t-30.5 31.5t-23.5 47t-9.5 58z" />
    <glyph glyph-name="uni00AD" unicode="&#xad;" horiz-adv-x="311" 
d="M45 218v27h221v-27h-221z" />
    <glyph glyph-name="macron" unicode="&#xaf;" horiz-adv-x="274" 
d="M20 602v7h234v-7h-234z" />
    <glyph glyph-name="degree" unicode="&#xb0;" horiz-adv-x="334" 
d="M167 718q26 0 49 -10t40.5 -27t27.5 -40t10 -49t-10 -49t-27.5 -40t-40.5 -27t-49 -10t-49.5 10t-40.5 27t-27 40t-10 49t10 49t27 40t40.5 27t49.5 10zM167 711q-27 0 -48.5 -10t-37.5 -27t-24.5 -38.5t-8.5 -43.5q0 -23 8.5 -44t24.5 -38t37.5 -27t48.5 -10t48.5 10
t37.5 27t24.5 38t8.5 44q0 22 -8.5 43.5t-24.5 38.5t-37.5 27t-48.5 10z" />
    <glyph glyph-name="acute" unicode="&#xb4;" horiz-adv-x="160" 
d="M30 520l112 161h20l-125 -161h-7z" />
    <glyph glyph-name="periodcentered" unicode="&#xb7;" horiz-adv-x="195" 
d="M125 229q0 -12 -8 -20t-19 -8q-12 0 -20 8t-8 19q0 12 8 20t19 8q12 0 20 -8t8 -19z" />
    <glyph glyph-name="cedilla" unicode="&#xb8;" horiz-adv-x="219" 
d="M199 -167q0 -38 -23.5 -62.5t-63.5 -24.5q-35 0 -57 18.5t-30 47.5l7 3q8 -29 28 -45.5t52 -16.5q38 0 58.5 23t20.5 56q0 38 -23 57t-50 19q-24 0 -37 -7t-19 -13l-8 9l55 103h8l-54 -101l1 -1q8 6 20.5 11.5t33.5 5.5q12 0 26.5 -4.5t26.5 -14.5t20 -25.5t8 -37.5z" />
    <glyph glyph-name="guillemotright" unicode="&#xbb;" horiz-adv-x="404" 
d="M364 231q0 -28 -8.5 -52.5t-22.5 -44t-31 -34t-33 -23.5l-4 6q37 20 64 58.5t27 89.5q0 31 -7 50.5t-18 31t-25 16.5t-27 7q-20 3 -27.5 8.5t-7.5 15.5t7.5 14.5t18.5 4.5q14 0 30.5 -11.5t30.5 -31.5t23.5 -47t9.5 -58zM190 231q0 -28 -8.5 -52.5t-22.5 -44t-31 -34
t-33 -23.5l-4 6q37 20 64 58.5t27 89.5q0 31 -7 50.5t-18 31t-25 16.5t-27 7q-20 3 -27.5 8.5t-7.5 15.5t7.5 14.5t18.5 4.5q14 0 30.5 -11.5t30.5 -31.5t23.5 -47t9.5 -58z" />
    <glyph glyph-name="questiondown" unicode="&#xbf;" horiz-adv-x="482" 
d="M472 -98q0 -30 -14.5 -57.5t-41 -47.5t-63 -32t-80.5 -12q-46 0 -83.5 11t-64 29.5t-41 43t-14.5 51.5q0 35 16 63t40 54t52.5 52.5t52.5 58.5t40 71.5t16 92.5v16h9v-16q0 -50 -14.5 -88t-36.5 -68.5t-47 -57t-47 -53t-36.5 -56.5t-14.5 -68q0 -63 47.5 -96t125.5 -33
q44 0 79.5 11.5t60 31t38 45.5t13.5 54q0 24 -6.5 43.5t-17.5 33.5l6 5q12 -16 19 -36t7 -46zM318 410q0 -12 -8 -20t-19 -8q-12 0 -20 8t-8 19q0 12 8 20t19 8q12 0 20 -8t8 -19z" />
    <glyph glyph-name="Agrave" unicode="&#xc0;" horiz-adv-x="660" 
d="M474 240h-318l-67 -233h104v-7h-193v7h80l177 610q12 43 25 62t33 19q28 0 42.5 -21.5t26.5 -60.5l190 -609h86v-7h-212v7h98zM158 247h314l-115 379q-11 34 -18 49.5t-24 15.5q-22 0 -32.5 -25t-20.5 -60zM158 884h28l154 -139h-7z" />
    <glyph glyph-name="Aacute" unicode="&#xc1;" horiz-adv-x="660" 
d="M474 240h-318l-67 -233h104v-7h-193v7h80l177 610q12 43 25 62t33 19q28 0 42.5 -21.5t26.5 -60.5l190 -609h86v-7h-212v7h98zM158 247h314l-115 379q-11 34 -18 49.5t-24 15.5q-22 0 -32.5 -25t-20.5 -60zM305 743l154 139h28l-175 -139h-7z" />
    <glyph glyph-name="Acircumflex" unicode="&#xc2;" horiz-adv-x="660" 
d="M474 240h-318l-67 -233h104v-7h-193v7h80l177 610q12 43 25 62t33 19q28 0 42.5 -21.5t26.5 -60.5l190 -609h86v-7h-212v7h98zM158 247h314l-115 379q-11 34 -18 49.5t-24 15.5q-22 0 -32.5 -25t-20.5 -60zM320 882q3 -24 14.5 -45t27.5 -38.5t35.5 -30.5t38.5 -20l-3 -6
q-14 4 -31 14t-33.5 24t-30.5 31.5t-22 37.5h-1q-8 -20 -22 -37.5t-30.5 -31.5t-34 -24t-30.5 -14l-3 6q19 7 38.5 20t35.5 30.5t27.5 38.5t14.5 45h9z" />
    <glyph glyph-name="Atilde" unicode="&#xc3;" horiz-adv-x="660" 
d="M474 240h-318l-67 -233h104v-7h-193v7h80l177 610q12 43 25 62t33 19q28 0 42.5 -21.5t26.5 -60.5l190 -609h86v-7h-212v7h98zM158 247h314l-115 379q-11 34 -18 49.5t-24 15.5q-22 0 -32.5 -25t-20.5 -60zM244 839q-20 0 -30.5 -12t-15.5 -32h-8q5 26 20 39t35 13
q21 0 41.5 -8.5t40 -19t38.5 -19t38 -8.5q20 0 30.5 12t15.5 32h8q-5 -26 -20 -39t-35 -13q-19 0 -38.5 8.5t-40 19t-40.5 19t-39 8.5z" />
    <glyph glyph-name="Adieresis" unicode="&#xc4;" horiz-adv-x="660" 
d="M474 240h-318l-67 -233h104v-7h-193v7h80l177 610q12 43 25 62t33 19q28 0 42.5 -21.5t26.5 -60.5l190 -609h86v-7h-212v7h98zM158 247h314l-115 379q-11 34 -18 49.5t-24 15.5q-22 0 -32.5 -25t-20.5 -60zM196 817q0 9 6.5 15.5t15.5 6.5t15.5 -6.5t6.5 -15.5
t-6.5 -15.5t-15.5 -6.5t-15.5 6.5t-6.5 15.5zM388 817q0 9 6.5 15.5t15.5 6.5t15.5 -6.5t6.5 -15.5t-6.5 -15.5t-15.5 -6.5t-15.5 6.5t-6.5 15.5z" />
    <glyph glyph-name="Aring" unicode="&#xc5;" horiz-adv-x="660" 
d="M474 240h-318l-67 -233h104v-7h-193v7h80l177 610q12 43 25 62t33 19q28 0 42.5 -21.5t26.5 -60.5l190 -609h86v-7h-212v7h98zM158 247h314l-115 379q-11 34 -18 49.5t-24 15.5q-22 0 -32.5 -25t-20.5 -60zM323 745q12 0 24 4t22 12t16.5 21.5t6.5 31.5t-6.5 31.5
t-16.5 22.5t-22 13t-24 4t-24 -4t-22 -13t-16.5 -22.5t-6.5 -31.5t6.5 -31.5t16.5 -21.5t22 -12t24 -4zM323 892q32 0 54.5 -22t22.5 -56q0 -35 -22.5 -55.5t-54.5 -20.5t-54.5 20.5t-22.5 55.5q0 34 22.5 56t54.5 22z" />
    <glyph glyph-name="AE" unicode="&#xc6;" horiz-adv-x="968" 
d="M878 691v-166h-8v159h-372v-311h257v113h8v-229h-8v109h-257v-359h397v171h8v-178h-523v7h92v261h-246l-157 -261h76v-7h-155v7h70l372 618q12 19 19.5 32t14 20.5t14 10.5t18.5 3h380zM230 275h242v402z" />
    <glyph glyph-name="Ccedilla" unicode="&#xc7;" horiz-adv-x="722" 
d="M382 -7q-68 0 -126 27.5t-100.5 75.5t-66.5 112t-24 137t24 137.5t66.5 112.5t100.5 75.5t126 27.5q106 0 178.5 -56.5t92.5 -167.5h-9q-10 56 -34 97t-58.5 67.5t-78 39.5t-91.5 13q-54 0 -106 -20t-92 -62t-64.5 -107.5t-24.5 -156.5q0 -92 24.5 -157t64.5 -107
t92 -61.5t106 -19.5q48 0 92 13t79 39.5t60 67.5t35 97h9q-10 -55 -34 -97t-60 -70t-82 -42.5t-99 -14.5zM439 -167q0 -38 -23.5 -62.5t-63.5 -24.5q-35 0 -57 18.5t-30 47.5l7 3q8 -29 28 -45.5t52 -16.5q38 0 58.5 23t20.5 56q0 38 -23 57t-50 19q-24 0 -37 -7t-19 -13
l-8 9l55 103h8l-54 -101l1 -1q8 6 20.5 11.5t33.5 5.5q12 0 26.5 -4.5t26.5 -14.5t20 -25.5t8 -37.5z" />
    <glyph glyph-name="Egrave" unicode="&#xc8;" horiz-adv-x="638" 
d="M548 692v-166h-8v159h-372v-312h257v113h8v-229h-8v109h-257v-359h397v171h8v-178h-533v7h102v678h-100v7h506zM184 882h28l154 -139h-7z" />
    <glyph glyph-name="Eacute" unicode="&#xc9;" horiz-adv-x="638" 
d="M548 692v-166h-8v159h-372v-312h257v113h8v-229h-8v109h-257v-359h397v171h8v-178h-533v7h102v678h-100v7h506zM277 743l154 139h28l-175 -139h-7z" />
    <glyph glyph-name="Ecircumflex" unicode="&#xca;" horiz-adv-x="638" 
d="M548 692v-166h-8v159h-372v-312h257v113h8v-229h-8v109h-257v-359h397v171h8v-178h-533v7h102v678h-100v7h506zM346 882q3 -24 14.5 -45t27.5 -38.5t35.5 -30.5t38.5 -20l-3 -6q-14 4 -31 14t-33.5 24t-30.5 31.5t-22 37.5h-1q-8 -20 -22 -37.5t-30.5 -31.5t-34 -24
t-30.5 -14l-3 6q19 7 38.5 20t35.5 30.5t27.5 38.5t14.5 45h9z" />
    <glyph glyph-name="Edieresis" unicode="&#xcb;" horiz-adv-x="638" 
d="M548 692v-166h-8v159h-372v-312h257v113h8v-229h-8v109h-257v-359h397v171h8v-178h-533v7h102v678h-100v7h506zM220 817q0 9 6.5 15.5t15.5 6.5t15.5 -6.5t6.5 -15.5t-6.5 -15.5t-15.5 -6.5t-15.5 6.5t-6.5 15.5zM412 817q0 9 6.5 15.5t15.5 6.5t15.5 -6.5t6.5 -15.5
t-6.5 -15.5t-15.5 -6.5t-15.5 6.5t-6.5 15.5z" />
    <glyph glyph-name="Igrave" unicode="&#xcc;" horiz-adv-x="306" 
d="M15 882h28l154 -139h-7zM140 685h-100v7h226v-7h-100v-678h100v-7h-226v7h100v678z" />
    <glyph glyph-name="Iacute" unicode="&#xcd;" horiz-adv-x="306" 
d="M80 743l154 139h28l-175 -139h-7zM140 685h-100v7h226v-7h-100v-678h100v-7h-226v7h100v678z" />
    <glyph glyph-name="Icircumflex" unicode="&#xce;" horiz-adv-x="306" 
d="M157 882q3 -24 14.5 -45t27.5 -38.5t35.5 -30.5t38.5 -20l-3 -6q-14 4 -31 14t-33.5 24t-30.5 31.5t-22 37.5h-1q-8 -20 -22 -37.5t-30.5 -31.5t-34 -24t-30.5 -14l-3 6q19 7 38.5 20t35.5 30.5t27.5 38.5t14.5 45h9zM140 685h-100v7h226v-7h-100v-678h100v-7h-226v7h100
v678z" />
    <glyph glyph-name="Idieresis" unicode="&#xcf;" horiz-adv-x="306" 
d="M35 817q0 9 6.5 15.5t15.5 6.5t15.5 -6.5t6.5 -15.5t-6.5 -15.5t-15.5 -6.5t-15.5 6.5t-6.5 15.5zM227 817q0 9 6.5 15.5t15.5 6.5t15.5 -6.5t6.5 -15.5t-6.5 -15.5t-15.5 -6.5t-15.5 6.5t-6.5 15.5zM140 685h-100v7h226v-7h-100v-678h100v-7h-226v7h100v678z" />
    <glyph glyph-name="Eth" unicode="&#xd0;" horiz-adv-x="727" 
d="M50 373h92v312h-100v7h133q28 0 59.5 0.5t59.5 0.5q84 0 152 -25t116 -71t74 -109.5t26 -140.5t-26 -141t-74 -110t-116 -71.5t-152 -25.5q-26 0 -56.5 0.5t-56.5 0.5h-141v7h102v359h-92v7zM631 347q0 99 -30 164.5t-78 104.5t-109 54.5t-124 15.5h-27.5t-94.5 -1v-312
h151v-7h-151v-359q68 -1 94.5 -1h27.5q63 0 124 16t109 55t78 105t30 165z" />
    <glyph glyph-name="Ntilde" unicode="&#xd1;" horiz-adv-x="726" 
d="M604 81q0 -50 -13.5 -69t-35.5 -19q-24 0 -45 22t-50 79l-306 591v-678h100v-7h-214v7h106v678h-106v7h141l318 -622q11 -21 18.5 -35t13.5 -21.5t12 -10.5t13 -3q23 0 31.5 22t8.5 64v599h-100v7h216v-7h-108v-604zM317 839q-20 0 -30.5 -12t-15.5 -32h-8q5 26 20 39
t35 13q21 0 41.5 -8.5t40 -19t38.5 -19t38 -8.5q20 0 30.5 12t15.5 32h8q-5 -26 -20 -39t-35 -13q-19 0 -38.5 8.5t-40 19t-40.5 19t-39 8.5z" />
    <glyph glyph-name="Ograve" unicode="&#xd2;" horiz-adv-x="782" 
d="M95 345q0 -92 25.5 -157t67 -107t94.5 -61.5t109 -19.5q55 0 108.5 19.5t95 61.5t67 107t25.5 157q0 91 -25.5 156.5t-67 107.5t-95 62t-108.5 20q-56 0 -109 -20t-94.5 -62t-67 -107.5t-25.5 -156.5zM65 345q0 73 25 137.5t68.5 112.5t103 75.5t129.5 27.5t129.5 -27.5
t103 -75.5t68.5 -112.5t25 -137.5t-25 -137t-68.5 -112t-103 -75.5t-129.5 -27.5t-129.5 27.5t-103 75.5t-68.5 112t-25 137zM234 882h28l154 -139h-7z" />
    <glyph glyph-name="Oacute" unicode="&#xd3;" horiz-adv-x="782" 
d="M95 345q0 -92 25.5 -157t67 -107t94.5 -61.5t109 -19.5q55 0 108.5 19.5t95 61.5t67 107t25.5 157q0 91 -25.5 156.5t-67 107.5t-95 62t-108.5 20q-56 0 -109 -20t-94.5 -62t-67 -107.5t-25.5 -156.5zM65 345q0 73 25 137.5t68.5 112.5t103 75.5t129.5 27.5t129.5 -27.5
t103 -75.5t68.5 -112.5t25 -137.5t-25 -137t-68.5 -112t-103 -75.5t-129.5 -27.5t-129.5 27.5t-103 75.5t-68.5 112t-25 137zM384 743l154 139h28l-175 -139h-7z" />
    <glyph glyph-name="Ocircumflex" unicode="&#xd4;" horiz-adv-x="782" 
d="M95 345q0 -92 25.5 -157t67 -107t94.5 -61.5t109 -19.5q55 0 108.5 19.5t95 61.5t67 107t25.5 157q0 91 -25.5 156.5t-67 107.5t-95 62t-108.5 20q-56 0 -109 -20t-94.5 -62t-67 -107.5t-25.5 -156.5zM65 345q0 73 25 137.5t68.5 112.5t103 75.5t129.5 27.5t129.5 -27.5
t103 -75.5t68.5 -112.5t25 -137.5t-25 -137t-68.5 -112t-103 -75.5t-129.5 -27.5t-129.5 27.5t-103 75.5t-68.5 112t-25 137zM396 882q3 -24 14.5 -45t27.5 -38.5t35.5 -30.5t38.5 -20l-3 -6q-14 4 -31 14t-33.5 24t-30.5 31.5t-22 37.5h-1q-8 -20 -22 -37.5t-30.5 -31.5
t-34 -24t-30.5 -14l-3 6q19 7 38.5 20t35.5 30.5t27.5 38.5t14.5 45h9z" />
    <glyph glyph-name="Otilde" unicode="&#xd5;" horiz-adv-x="782" 
d="M95 345q0 -92 25.5 -157t67 -107t94.5 -61.5t109 -19.5q55 0 108.5 19.5t95 61.5t67 107t25.5 157q0 91 -25.5 156.5t-67 107.5t-95 62t-108.5 20q-56 0 -109 -20t-94.5 -62t-67 -107.5t-25.5 -156.5zM65 345q0 73 25 137.5t68.5 112.5t103 75.5t129.5 27.5t129.5 -27.5
t103 -75.5t68.5 -112.5t25 -137.5t-25 -137t-68.5 -112t-103 -75.5t-129.5 -27.5t-129.5 27.5t-103 75.5t-68.5 112t-25 137zM314 839q-20 0 -30.5 -12t-15.5 -32h-8q5 26 20 39t35 13q21 0 41.5 -8.5t40 -19t38.5 -19t38 -8.5q20 0 30.5 12t15.5 32h8q-5 -26 -20 -39
t-35 -13q-19 0 -38.5 8.5t-40 19t-40.5 19t-39 8.5z" />
    <glyph glyph-name="Odieresis" unicode="&#xd6;" horiz-adv-x="782" 
d="M95 345q0 -92 25.5 -157t67 -107t94.5 -61.5t109 -19.5q55 0 108.5 19.5t95 61.5t67 107t25.5 157q0 91 -25.5 156.5t-67 107.5t-95 62t-108.5 20q-56 0 -109 -20t-94.5 -62t-67 -107.5t-25.5 -156.5zM65 345q0 73 25 137.5t68.5 112.5t103 75.5t129.5 27.5t129.5 -27.5
t103 -75.5t68.5 -112.5t25 -137.5t-25 -137t-68.5 -112t-103 -75.5t-129.5 -27.5t-129.5 27.5t-103 75.5t-68.5 112t-25 137zM273 817q0 9 6.5 15.5t15.5 6.5t15.5 -6.5t6.5 -15.5t-6.5 -15.5t-15.5 -6.5t-15.5 6.5t-6.5 15.5zM465 817q0 9 6.5 15.5t15.5 6.5t15.5 -6.5
t6.5 -15.5t-6.5 -15.5t-15.5 -6.5t-15.5 6.5t-6.5 15.5z" />
    <glyph glyph-name="multiply" unicode="&#xd7;" horiz-adv-x="491" 
d="M250 227l181 -181l-5 -5l-181 181l-179 -180l-5 5l179 180l-180 180l5 5l180 -180l181 180l5 -5z" />
    <glyph glyph-name="Oslash" unicode="&#xd8;" horiz-adv-x="782" 
d="M65 345q0 73 25 137.5t68.5 112.5t103 75.5t129.5 27.5q63 0 117.5 -23t97.5 -63l95 110l6 -5l-95 -110q49 -49 77 -116.5t28 -145.5q0 -73 -25 -137t-68.5 -112t-103 -75.5t-129.5 -27.5q-68 0 -125.5 25.5t-100.5 70.5l-84 -97l-5 5l84 97q-45 48 -70 112t-25 139z
M687 345q0 86 -22.5 148.5t-60.5 104.5l-432 -501q43 -51 100.5 -74t118.5 -23q55 0 108.5 19.5t95 61.5t67 107t25.5 157zM95 345q0 -81 19.5 -140.5t52.5 -101.5l432 501q-42 45 -96.5 66t-111.5 21q-56 0 -109 -20t-94.5 -62t-67 -107.5t-25.5 -156.5z" />
    <glyph glyph-name="Ugrave" unicode="&#xd9;" horiz-adv-x="707" 
d="M146 212q0 -54 16 -94t45 -66.5t68.5 -39t86.5 -12.5q49 0 90 12.5t70 39t45.5 66.5t16.5 95v472h-106v7h219v-7h-105v-471q0 -59 -18 -101t-49.5 -68.5t-73 -39t-89.5 -12.5q-69 0 -115.5 20t-74.5 53t-40 75t-12 85v459h-100v7h226v-7h-100v-473zM230 882h28l154 -139
h-7z" />
    <glyph glyph-name="Uacute" unicode="&#xda;" horiz-adv-x="707" 
d="M146 212q0 -54 16 -94t45 -66.5t68.5 -39t86.5 -12.5q49 0 90 12.5t70 39t45.5 66.5t16.5 95v472h-106v7h219v-7h-105v-471q0 -59 -18 -101t-49.5 -68.5t-73 -39t-89.5 -12.5q-69 0 -115.5 20t-74.5 53t-40 75t-12 85v459h-100v7h226v-7h-100v-473zM334 743l154 139h28
l-175 -139h-7z" />
    <glyph glyph-name="Ucircumflex" unicode="&#xdb;" horiz-adv-x="707" 
d="M146 212q0 -54 16 -94t45 -66.5t68.5 -39t86.5 -12.5q49 0 90 12.5t70 39t45.5 66.5t16.5 95v472h-106v7h219v-7h-105v-471q0 -59 -18 -101t-49.5 -68.5t-73 -39t-89.5 -12.5q-69 0 -115.5 20t-74.5 53t-40 75t-12 85v459h-100v7h226v-7h-100v-473zM386 882
q3 -24 14.5 -45t27.5 -38.5t35.5 -30.5t38.5 -20l-3 -6q-14 4 -31 14t-33.5 24t-30.5 31.5t-22 37.5h-1q-8 -20 -22 -37.5t-30.5 -31.5t-34 -24t-30.5 -14l-3 6q19 7 38.5 20t35.5 30.5t27.5 38.5t14.5 45h9z" />
    <glyph glyph-name="Udieresis" unicode="&#xdc;" horiz-adv-x="707" 
d="M146 212q0 -54 16 -94t45 -66.5t68.5 -39t86.5 -12.5q49 0 90 12.5t70 39t45.5 66.5t16.5 95v472h-106v7h219v-7h-105v-471q0 -59 -18 -101t-49.5 -68.5t-73 -39t-89.5 -12.5q-69 0 -115.5 20t-74.5 53t-40 75t-12 85v459h-100v7h226v-7h-100v-473zM253 817q0 9 6.5 15.5
t15.5 6.5t15.5 -6.5t6.5 -15.5t-6.5 -15.5t-15.5 -6.5t-15.5 6.5t-6.5 15.5zM445 817q0 9 6.5 15.5t15.5 6.5t15.5 -6.5t6.5 -15.5t-6.5 -15.5t-15.5 -6.5t-15.5 6.5t-6.5 15.5z" />
    <glyph glyph-name="Yacute" unicode="&#xdd;" horiz-adv-x="687" 
d="M581 685l-219 -377v-301h106v-7h-238v7h106v303l-230 375h-96v7h224v-7h-100l225 -366l212 366h-107v7h213v-7h-96zM339 743l154 139h28l-175 -139h-7z" />
    <glyph glyph-name="Thorn" unicode="&#xde;" horiz-adv-x="614" 
d="M168 685v-134h145q122 0 189 -46.5t67 -140.5q0 -39 -15.5 -74t-47 -60.5t-79.5 -40.5t-112 -15h-147v-167h118v-7h-246v7h102v678h-100v7h244v-7h-118zM168 181h147q115 0 169.5 48t54.5 132q0 94 -54 138.5t-172 44.5h-145v-363z" />
    <glyph glyph-name="germandbls" unicode="&#xdf;" horiz-adv-x="569" 
d="M315 0q35 0 65.5 10t53.5 33.5t36.5 63.5t13.5 100q0 56 -16 94t-45 61t-68.5 33t-85.5 10h-14v7h18q39 0 72.5 11.5t58 32.5t38 50t13.5 64q0 69 -40.5 105t-102.5 36q-85 0 -132 -58.5t-47 -170.5v-482h-108v7h82v416h-80v7h80v8q0 63 13 114.5t39 88.5t64 57t89 20
q33 0 60.5 -10t48 -28.5t32 -46t11.5 -63.5q0 -35 -12.5 -62.5t-33.5 -48t-47.5 -33.5t-53.5 -17v-1q37 -3 72.5 -17.5t63.5 -40t44.5 -62t16.5 -82.5q0 -50 -14.5 -89.5t-41 -67t-63 -42t-80.5 -14.5q-39 0 -73 9t-56 26v99h8v-95q19 -14 50 -23t71 -9z" />
    <glyph glyph-name="agrave" unicode="&#xe0;" horiz-adv-x="450" 
d="M197 441q22 0 47 -5.5t46 -21.5t34.5 -43.5t13.5 -72.5v-237q0 -35 12 -46.5t28 -11.5q38 0 47 46l7 -2q-6 -28 -20.5 -39.5t-34.5 -11.5q-11 0 -22 4t-20.5 15.5t-15 32t-5.5 54.5h-1q-5 -21 -17 -41t-30.5 -35t-42.5 -24t-54 -9q-27 0 -50.5 7.5t-41.5 22t-28.5 34.5
t-10.5 44q0 35 19 57.5t54.5 37.5t86 26t114.5 23v63q0 39 -9.5 63.5t-25 38.5t-36.5 19t-45 5q-21 0 -43 -6t-40.5 -19t-31.5 -33t-15 -48h-9q3 28 16 49t32.5 35.5t43.5 21.5t48 7zM312 238q-60 -10 -105.5 -20t-76.5 -25t-46.5 -37t-15.5 -56q0 -47 26 -73.5t75 -26.5
q31 0 57.5 11t45.5 31t29.5 47.5t10.5 60.5v88zM207 520l-125 161h20l112 -161h-7z" />
    <glyph glyph-name="aacute" unicode="&#xe1;" horiz-adv-x="450" 
d="M197 441q22 0 47 -5.5t46 -21.5t34.5 -43.5t13.5 -72.5v-237q0 -35 12 -46.5t28 -11.5q38 0 47 46l7 -2q-6 -28 -20.5 -39.5t-34.5 -11.5q-11 0 -22 4t-20.5 15.5t-15 32t-5.5 54.5h-1q-5 -21 -17 -41t-30.5 -35t-42.5 -24t-54 -9q-27 0 -50.5 7.5t-41.5 22t-28.5 34.5
t-10.5 44q0 35 19 57.5t54.5 37.5t86 26t114.5 23v63q0 39 -9.5 63.5t-25 38.5t-36.5 19t-45 5q-21 0 -43 -6t-40.5 -19t-31.5 -33t-15 -48h-9q3 28 16 49t32.5 35.5t43.5 21.5t48 7zM312 238q-60 -10 -105.5 -20t-76.5 -25t-46.5 -37t-15.5 -56q0 -47 26 -73.5t75 -26.5
q31 0 57.5 11t45.5 31t29.5 47.5t10.5 60.5v88zM200 520l112 161h20l-125 -161h-7z" />
    <glyph glyph-name="acircumflex" unicode="&#xe2;" horiz-adv-x="450" 
d="M197 441q22 0 47 -5.5t46 -21.5t34.5 -43.5t13.5 -72.5v-237q0 -35 12 -46.5t28 -11.5q38 0 47 46l7 -2q-6 -28 -20.5 -39.5t-34.5 -11.5q-11 0 -22 4t-20.5 15.5t-15 32t-5.5 54.5h-1q-5 -21 -17 -41t-30.5 -35t-42.5 -24t-54 -9q-27 0 -50.5 7.5t-41.5 22t-28.5 34.5
t-10.5 44q0 35 19 57.5t54.5 37.5t86 26t114.5 23v63q0 39 -9.5 63.5t-25 38.5t-36.5 19t-45 5q-21 0 -43 -6t-40.5 -19t-31.5 -33t-15 -48h-9q3 28 16 49t32.5 35.5t43.5 21.5t48 7zM312 238q-60 -10 -105.5 -20t-76.5 -25t-46.5 -37t-15.5 -56q0 -47 26 -73.5t75 -26.5
q31 0 57.5 11t45.5 31t29.5 47.5t10.5 60.5v88zM212 681q5 -24 15 -47.5t24.5 -44.5t31.5 -38t35 -27l-2 -6q-14 8 -29.5 21t-30.5 30t-27.5 37t-20.5 41h-1q-8 -21 -20.5 -41t-27.5 -37t-31 -30t-29 -21l-2 6q18 10 35 27t31.5 38t24.5 44.5t15 47.5h9z" />
    <glyph glyph-name="atilde" unicode="&#xe3;" horiz-adv-x="450" 
d="M197 441q22 0 47 -5.5t46 -21.5t34.5 -43.5t13.5 -72.5v-237q0 -35 12 -46.5t28 -11.5q38 0 47 46l7 -2q-6 -28 -20.5 -39.5t-34.5 -11.5q-11 0 -22 4t-20.5 15.5t-15 32t-5.5 54.5h-1q-5 -21 -17 -41t-30.5 -35t-42.5 -24t-54 -9q-27 0 -50.5 7.5t-41.5 22t-28.5 34.5
t-10.5 44q0 35 19 57.5t54.5 37.5t86 26t114.5 23v63q0 39 -9.5 63.5t-25 38.5t-36.5 19t-45 5q-21 0 -43 -6t-40.5 -19t-31.5 -33t-15 -48h-9q3 28 16 49t32.5 35.5t43.5 21.5t48 7zM312 238q-60 -10 -105.5 -20t-76.5 -25t-46.5 -37t-15.5 -56q0 -47 26 -73.5t75 -26.5
q31 0 57.5 11t45.5 31t29.5 47.5t10.5 60.5v88zM124 626q-20 0 -30.5 -12t-15.5 -32h-8q5 26 20 39t35 13q21 0 41.5 -8.5t40 -19t38.5 -19t38 -8.5q20 0 30.5 12t15.5 32h8q-5 -26 -20 -39t-35 -13q-19 0 -38.5 8.5t-40 19t-40.5 19t-39 8.5z" />
    <glyph glyph-name="adieresis" unicode="&#xe4;" horiz-adv-x="450" 
d="M197 441q22 0 47 -5.5t46 -21.5t34.5 -43.5t13.5 -72.5v-237q0 -35 12 -46.5t28 -11.5q38 0 47 46l7 -2q-6 -28 -20.5 -39.5t-34.5 -11.5q-11 0 -22 4t-20.5 15.5t-15 32t-5.5 54.5h-1q-5 -21 -17 -41t-30.5 -35t-42.5 -24t-54 -9q-27 0 -50.5 7.5t-41.5 22t-28.5 34.5
t-10.5 44q0 35 19 57.5t54.5 37.5t86 26t114.5 23v63q0 39 -9.5 63.5t-25 38.5t-36.5 19t-45 5q-21 0 -43 -6t-40.5 -19t-31.5 -33t-15 -48h-9q3 28 16 49t32.5 35.5t43.5 21.5t48 7zM312 238q-60 -10 -105.5 -20t-76.5 -25t-46.5 -37t-15.5 -56q0 -47 26 -73.5t75 -26.5
q31 0 57.5 11t45.5 31t29.5 47.5t10.5 60.5v88zM81 627q0 9 6.5 15.5t15.5 6.5t15.5 -6.5t6.5 -15.5t-6.5 -15.5t-15.5 -6.5t-15.5 6.5t-6.5 15.5zM273 627q0 9 6.5 15.5t15.5 6.5t15.5 -6.5t6.5 -15.5t-6.5 -15.5t-15.5 -6.5t-15.5 6.5t-6.5 15.5z" />
    <glyph glyph-name="aring" unicode="&#xe5;" horiz-adv-x="450" 
d="M197 441q22 0 47 -5.5t46 -21.5t34.5 -43.5t13.5 -72.5v-237q0 -35 12 -46.5t28 -11.5q38 0 47 46l7 -2q-6 -28 -20.5 -39.5t-34.5 -11.5q-11 0 -22 4t-20.5 15.5t-15 32t-5.5 54.5h-1q-5 -21 -17 -41t-30.5 -35t-42.5 -24t-54 -9q-27 0 -50.5 7.5t-41.5 22t-28.5 34.5
t-10.5 44q0 35 19 57.5t54.5 37.5t86 26t114.5 23v63q0 39 -9.5 63.5t-25 38.5t-36.5 19t-45 5q-21 0 -43 -6t-40.5 -19t-31.5 -33t-15 -48h-9q3 28 16 49t32.5 35.5t43.5 21.5t48 7zM312 238q-60 -10 -105.5 -20t-76.5 -25t-46.5 -37t-15.5 -56q0 -47 26 -73.5t75 -26.5
q31 0 57.5 11t45.5 31t29.5 47.5t10.5 60.5v88zM204 706q32 0 54.5 -22t22.5 -56q0 -35 -22.5 -55.5t-54.5 -20.5t-54.5 20.5t-22.5 55.5q0 34 22.5 56t54.5 22zM204 559q12 0 24 4t22 12t16.5 21.5t6.5 31.5t-6.5 31.5t-16.5 22.5t-22 13t-24 4t-24 -4t-22 -13t-16.5 -22.5
t-6.5 -31.5t6.5 -31.5t16.5 -21.5t22 -12t24 -4z" />
    <glyph glyph-name="ae" unicode="&#xe6;" horiz-adv-x="725" 
d="M197 441q20 0 42.5 -5t42.5 -17.5t34.5 -35t19.5 -57.5q24 51 67 81t99 30q31 0 61.5 -11.5t54.5 -35.5t38.5 -60.5t13.5 -86.5h-327q-1 -7 -1 -13.5v-14.5q0 -60 13 -101t35.5 -66.5t52.5 -36.5t63 -11q24 0 48 7t45 22.5t37.5 40.5t24.5 62l8 -2q-8 -37 -25 -63
t-39 -42.5t-47.5 -24t-51.5 -7.5q-35 0 -65 11t-54 31t-40.5 47.5t-25.5 60.5q-3 -36 -16 -64t-33.5 -47t-46.5 -29t-56 -10q-27 0 -50.5 7.5t-41.5 22t-28.5 34.5t-10.5 44q0 35 19 57.5t54.5 37.5t86 26t114.5 23v63q0 39 -9.5 63.5t-25 38.5t-36.5 19t-45 5q-21 0 -43 -6
t-40.5 -19t-31.5 -33t-15 -48h-9q3 28 16 49t32.5 35.5t43.5 21.5t48 7zM312 205v10v9v14q-60 -10 -105.5 -20t-76.5 -25t-46.5 -37t-15.5 -56q0 -47 26 -73.5t75 -26.5q31 0 57.5 11t45.5 31t29.5 47.5t10.5 60.5v55zM502 430q-27 0 -54 -9.5t-49 -31t-37 -56t-19 -84.5
h300q1 54 -12 89.5t-34 55.5t-46 28t-49 8z" />
    <glyph glyph-name="ccedilla" unicode="&#xe7;" horiz-adv-x="461" 
d="M85 216q0 -60 13.5 -101t36 -66.5t52 -37t60.5 -11.5q25 0 49.5 7.5t45.5 22.5t35.5 38.5t20.5 56.5h8q-5 -33 -20 -57.5t-36.5 -41t-48 -25t-54.5 -8.5q-42 0 -77.5 17.5t-61 47.5t-39.5 70.5t-14 87.5q0 46 14.5 87t40 71t61 47.5t76.5 17.5q28 0 54 -8t47 -24
t35.5 -41t20.5 -58h-8q-5 33 -19.5 56.5t-35 38.5t-45 22t-49.5 7q-30 0 -59 -11.5t-52 -37t-37 -66.5t-14 -101zM316 -167q0 -38 -23.5 -62.5t-63.5 -24.5q-35 0 -57 18.5t-30 47.5l7 3q8 -29 28 -45.5t52 -16.5q38 0 58.5 23t20.5 56q0 38 -23 57t-50 19q-24 0 -37 -7
t-19 -13l-8 9l55 103h8l-54 -101l1 -1q8 6 20.5 11.5t33.5 5.5q12 0 26.5 -4.5t26.5 -14.5t20 -25.5t8 -37.5z" />
    <glyph glyph-name="egrave" unicode="&#xe8;" horiz-adv-x="468" 
d="M86 243q-1 -7 -1 -13.5v-14.5q0 -60 13 -101t35.5 -66.5t52.5 -36.5t63 -11q24 0 48 7t45 22.5t37.5 40.5t24.5 62l8 -2q-8 -37 -25 -63t-39 -42.5t-47.5 -24t-51.5 -7.5q-44 0 -80 17t-61.5 47t-39 70.5t-13.5 87.5t14.5 87.5t40 70.5t60 47t75.5 17q31 0 61.5 -11.5
t54.5 -35.5t38.5 -60.5t13.5 -86.5h-327zM245 430q-27 0 -54 -9.5t-49 -31t-37 -56t-19 -84.5h300q1 54 -12 89.5t-34 55.5t-46 28t-49 8zM261 520l-125 161h20l112 -161h-7z" />
    <glyph glyph-name="eacute" unicode="&#xe9;" horiz-adv-x="468" 
d="M86 243q-1 -7 -1 -13.5v-14.5q0 -60 13 -101t35.5 -66.5t52.5 -36.5t63 -11q24 0 48 7t45 22.5t37.5 40.5t24.5 62l8 -2q-8 -37 -25 -63t-39 -42.5t-47.5 -24t-51.5 -7.5q-44 0 -80 17t-61.5 47t-39 70.5t-13.5 87.5t14.5 87.5t40 70.5t60 47t75.5 17q31 0 61.5 -11.5
t54.5 -35.5t38.5 -60.5t13.5 -86.5h-327zM245 430q-27 0 -54 -9.5t-49 -31t-37 -56t-19 -84.5h300q1 54 -12 89.5t-34 55.5t-46 28t-49 8zM228 520l112 161h20l-125 -161h-7z" />
    <glyph glyph-name="ecircumflex" unicode="&#xea;" horiz-adv-x="468" 
d="M86 243q-1 -7 -1 -13.5v-14.5q0 -60 13 -101t35.5 -66.5t52.5 -36.5t63 -11q24 0 48 7t45 22.5t37.5 40.5t24.5 62l8 -2q-8 -37 -25 -63t-39 -42.5t-47.5 -24t-51.5 -7.5q-44 0 -80 17t-61.5 47t-39 70.5t-13.5 87.5t14.5 87.5t40 70.5t60 47t75.5 17q31 0 61.5 -11.5
t54.5 -35.5t38.5 -60.5t13.5 -86.5h-327zM245 430q-27 0 -54 -9.5t-49 -31t-37 -56t-19 -84.5h300q1 54 -12 89.5t-34 55.5t-46 28t-49 8zM248 681q5 -24 15 -47.5t24.5 -44.5t31.5 -38t35 -27l-2 -6q-14 8 -29.5 21t-30.5 30t-27.5 37t-20.5 41h-1q-8 -21 -20.5 -41
t-27.5 -37t-31 -30t-29 -21l-2 6q18 10 35 27t31.5 38t24.5 44.5t15 47.5h9z" />
    <glyph glyph-name="edieresis" unicode="&#xeb;" horiz-adv-x="468" 
d="M86 243q-1 -7 -1 -13.5v-14.5q0 -60 13 -101t35.5 -66.5t52.5 -36.5t63 -11q24 0 48 7t45 22.5t37.5 40.5t24.5 62l8 -2q-8 -37 -25 -63t-39 -42.5t-47.5 -24t-51.5 -7.5q-44 0 -80 17t-61.5 47t-39 70.5t-13.5 87.5t14.5 87.5t40 70.5t60 47t75.5 17q31 0 61.5 -11.5
t54.5 -35.5t38.5 -60.5t13.5 -86.5h-327zM245 430q-27 0 -54 -9.5t-49 -31t-37 -56t-19 -84.5h300q1 54 -12 89.5t-34 55.5t-46 28t-49 8zM131 627q0 9 6.5 15.5t15.5 6.5t15.5 -6.5t6.5 -15.5t-6.5 -15.5t-15.5 -6.5t-15.5 6.5t-6.5 15.5zM323 627q0 9 6.5 15.5t15.5 6.5
t15.5 -6.5t6.5 -15.5t-6.5 -15.5t-15.5 -6.5t-15.5 6.5t-6.5 15.5z" />
    <glyph glyph-name="igrave" unicode="&#xec;" 
d="M129 520l-125 161h20l112 -161h-7zM128 7h82v-7h-190v7h82v416h-80v7h106v-423z" />
    <glyph glyph-name="iacute" unicode="&#xed;" 
d="M70 520l112 161h20l-125 -161h-7zM128 7h82v-7h-190v7h82v416h-80v7h106v-423z" />
    <glyph glyph-name="icircumflex" unicode="&#xee;" 
d="M120 681q5 -24 15 -47.5t24.5 -44.5t31.5 -38t35 -27l-2 -6q-14 8 -29.5 21t-30.5 30t-27.5 37t-20.5 41h-1q-8 -21 -20.5 -41t-27.5 -37t-31 -30t-29 -21l-2 6q18 10 35 27t31.5 38t24.5 44.5t15 47.5h9zM128 7h82v-7h-190v7h82v416h-80v7h106v-423z" />
    <glyph glyph-name="idieresis" unicode="&#xef;" 
d="M-12 627q0 9 6.5 15.5t15.5 6.5t15.5 -6.5t6.5 -15.5t-6.5 -15.5t-15.5 -6.5t-15.5 6.5t-6.5 15.5zM180 627q0 9 6.5 15.5t15.5 6.5t15.5 -6.5t6.5 -15.5t-6.5 -15.5t-15.5 -6.5t-15.5 6.5t-6.5 15.5zM128 7h82v-7h-190v7h82v416h-80v7h106v-423z" />
    <glyph glyph-name="eth" unicode="&#xf0;" horiz-adv-x="496" 
d="M431 242q0 -46 -10 -90.5t-32.5 -80t-58.5 -57t-88 -21.5q-42 0 -76 18t-59 47.5t-38.5 68t-13.5 79.5t13.5 79.5t38.5 68t59.5 47.5t75.5 18q30 0 55.5 -10.5t46 -28.5t34.5 -41.5t21 -48.5h2v17q0 66 -11.5 118.5t-30.5 93.5t-44 71t-51 51l-68 -72l-5 5l67 72
q-29 23 -57 36.5t-50 21.5l2 6q32 -11 59.5 -26t51.5 -32l66 71l6 -5l-66 -71q87 -67 124 -171.5t37 -233.5zM242 412q-31 0 -59.5 -11t-50 -36t-34.5 -64t-13 -95t13 -95t34.5 -64t50 -36t59.5 -11q35 0 64 11.5t50 37t33 66.5t12 101q0 52 -15 89t-38.5 61t-51.5 35
t-54 11z" />
    <glyph glyph-name="ntilde" unicode="&#xf1;" horiz-adv-x="500" 
d="M128 7h82v-7h-190v7h82v416h-80v7h106v-81q0 -24 -0.5 -39t-1.5 -23h1q4 19 15 45t29.5 49.5t45 39.5t62.5 16q24 0 47 -7.5t41 -24.5t29.5 -44t11.5 -67v-287h82v-7h-190v7h82v283q0 76 -28.5 108t-74.5 32q-40 0 -68.5 -21.5t-47 -52t-27 -63t-8.5 -54.5v-232zM187 626
q-20 0 -30.5 -12t-15.5 -32h-8q5 26 20 39t35 13q21 0 41.5 -8.5t40 -19t38.5 -19t38 -8.5q20 0 30.5 12t15.5 32h8q-5 -26 -20 -39t-35 -13q-19 0 -38.5 8.5t-40 19t-40.5 19t-39 8.5z" />
    <glyph glyph-name="ograve" unicode="&#xf2;" horiz-adv-x="484" 
d="M242 432q-31 0 -59.5 -11.5t-50 -37t-34.5 -66.5t-13 -101t13 -101t34.5 -66.5t50 -37t59.5 -11.5t59.5 11.5t50 37t34.5 66.5t13 101t-13 101t-35 66.5t-50 37t-59 11.5zM242 439q41 0 75.5 -18t59 -48.5t38.5 -71t14 -85.5t-13.5 -85.5t-38.5 -71t-59 -48.5t-76 -18
t-76 18t-59 48.5t-38.5 71t-13.5 85.5t13.5 85.5t38.5 71t59.5 48.5t75.5 18zM255 520l-125 161h20l112 -161h-7z" />
    <glyph glyph-name="oacute" unicode="&#xf3;" horiz-adv-x="484" 
d="M242 432q-31 0 -59.5 -11.5t-50 -37t-34.5 -66.5t-13 -101t13 -101t34.5 -66.5t50 -37t59.5 -11.5t59.5 11.5t50 37t34.5 66.5t13 101t-13 101t-35 66.5t-50 37t-59 11.5zM242 439q41 0 75.5 -18t59 -48.5t38.5 -71t14 -85.5t-13.5 -85.5t-38.5 -71t-59 -48.5t-76 -18
t-76 18t-59 48.5t-38.5 71t-13.5 85.5t13.5 85.5t38.5 71t59.5 48.5t75.5 18zM232 520l112 161h20l-125 -161h-7z" />
    <glyph glyph-name="ocircumflex" unicode="&#xf4;" horiz-adv-x="484" 
d="M242 432q-31 0 -59.5 -11.5t-50 -37t-34.5 -66.5t-13 -101t13 -101t34.5 -66.5t50 -37t59.5 -11.5t59.5 11.5t50 37t34.5 66.5t13 101t-13 101t-35 66.5t-50 37t-59 11.5zM242 439q41 0 75.5 -18t59 -48.5t38.5 -71t14 -85.5t-13.5 -85.5t-38.5 -71t-59 -48.5t-76 -18
t-76 18t-59 48.5t-38.5 71t-13.5 85.5t13.5 85.5t38.5 71t59.5 48.5t75.5 18zM247 681q5 -24 15 -47.5t24.5 -44.5t31.5 -38t35 -27l-2 -6q-14 8 -29.5 21t-30.5 30t-27.5 37t-20.5 41h-1q-8 -21 -20.5 -41t-27.5 -37t-31 -30t-29 -21l-2 6q18 10 35 27t31.5 38t24.5 44.5
t15 47.5h9z" />
    <glyph glyph-name="otilde" unicode="&#xf5;" horiz-adv-x="484" 
d="M242 432q-31 0 -59.5 -11.5t-50 -37t-34.5 -66.5t-13 -101t13 -101t34.5 -66.5t50 -37t59.5 -11.5t59.5 11.5t50 37t34.5 66.5t13 101t-13 101t-35 66.5t-50 37t-59 11.5zM242 439q41 0 75.5 -18t59 -48.5t38.5 -71t14 -85.5t-13.5 -85.5t-38.5 -71t-59 -48.5t-76 -18
t-76 18t-59 48.5t-38.5 71t-13.5 85.5t13.5 85.5t38.5 71t59.5 48.5t75.5 18zM161 626q-20 0 -30.5 -12t-15.5 -32h-8q5 26 20 39t35 13q21 0 41.5 -8.5t40 -19t38.5 -19t38 -8.5q20 0 30.5 12t15.5 32h8q-5 -26 -20 -39t-35 -13q-19 0 -38.5 8.5t-40 19t-40.5 19t-39 8.5z
" />
    <glyph glyph-name="odieresis" unicode="&#xf6;" horiz-adv-x="484" 
d="M242 432q-31 0 -59.5 -11.5t-50 -37t-34.5 -66.5t-13 -101t13 -101t34.5 -66.5t50 -37t59.5 -11.5t59.5 11.5t50 37t34.5 66.5t13 101t-13 101t-35 66.5t-50 37t-59 11.5zM242 439q41 0 75.5 -18t59 -48.5t38.5 -71t14 -85.5t-13.5 -85.5t-38.5 -71t-59 -48.5t-76 -18
t-76 18t-59 48.5t-38.5 71t-13.5 85.5t13.5 85.5t38.5 71t59.5 48.5t75.5 18zM124 627q0 9 6.5 15.5t15.5 6.5t15.5 -6.5t6.5 -15.5t-6.5 -15.5t-15.5 -6.5t-15.5 6.5t-6.5 15.5zM316 627q0 9 6.5 15.5t15.5 6.5t15.5 -6.5t6.5 -15.5t-6.5 -15.5t-15.5 -6.5t-15.5 6.5
t-6.5 15.5z" />
    <glyph glyph-name="divide" unicode="&#xf7;" horiz-adv-x="497" 
d="M477 235v-7h-457v7h457zM276 373q0 -12 -8 -20t-19 -8q-12 0 -20 8t-8 19q0 12 8 20t19 8q12 0 20 -8t8 -19zM276 81q0 -12 -8 -20t-19 -8q-12 0 -20 8t-8 19q0 12 8 20t19 8q12 0 20 -8t8 -19z" />
    <glyph glyph-name="oslash" unicode="&#xf8;" horiz-adv-x="484" 
d="M242 439q39 0 72.5 -16.5t57.5 -45.5l67 77l6 -5l-67 -78q24 -30 37.5 -70t13.5 -85t-13.5 -85.5t-38.5 -71t-59 -48.5t-76 -18t-76 18t-59 48l-62 -71l-5 5l62 72q-23 30 -35 68.5t-12 82.5q0 45 13.5 85.5t38.5 71t59.5 48.5t75.5 18zM399 216q0 48 -8.5 83t-22.5 61
l-251 -289q22 -38 54.5 -54.5t70.5 -16.5q31 0 59.5 11.5t50 37t34.5 66.5t13 101zM242 432q-31 0 -59.5 -11.5t-50 -37t-34.5 -66.5t-13 -101q0 -45 7.5 -79t20.5 -60l250 290q-22 35 -54 50t-67 15z" />
    <glyph glyph-name="ugrave" unicode="&#xf9;" horiz-adv-x="509" 
d="M123 140q0 -76 27.5 -108t72.5 -32q40 0 68.5 21.5t46.5 51.5t26.5 62.5t8.5 54.5v233h-82v7h108v-423h80v-7h-106v81q0 24 0.5 39t1.5 23h-1q-4 -19 -14.5 -44.5t-29 -49t-45 -40t-62.5 -16.5q-24 0 -46.5 7t-40 24t-28.5 44t-11 68v287h-82v7h108v-290zM258 520
l-125 161h20l112 -161h-7z" />
    <glyph glyph-name="uacute" unicode="&#xfa;" horiz-adv-x="509" 
d="M123 140q0 -76 27.5 -108t72.5 -32q40 0 68.5 21.5t46.5 51.5t26.5 62.5t8.5 54.5v233h-82v7h108v-423h80v-7h-106v81q0 24 0.5 39t1.5 23h-1q-4 -19 -14.5 -44.5t-29 -49t-45 -40t-62.5 -16.5q-24 0 -46.5 7t-40 24t-28.5 44t-11 68v287h-82v7h108v-290zM230 520
l112 161h20l-125 -161h-7z" />
    <glyph glyph-name="ucircumflex" unicode="&#xfb;" horiz-adv-x="509" 
d="M123 140q0 -76 27.5 -108t72.5 -32q40 0 68.5 21.5t46.5 51.5t26.5 62.5t8.5 54.5v233h-82v7h108v-423h80v-7h-106v81q0 24 0.5 39t1.5 23h-1q-4 -19 -14.5 -44.5t-29 -49t-45 -40t-62.5 -16.5q-24 0 -46.5 7t-40 24t-28.5 44t-11 68v287h-82v7h108v-290zM246 681
q5 -24 15 -47.5t24.5 -44.5t31.5 -38t35 -27l-2 -6q-14 8 -29.5 21t-30.5 30t-27.5 37t-20.5 41h-1q-8 -21 -20.5 -41t-27.5 -37t-31 -30t-29 -21l-2 6q18 10 35 27t31.5 38t24.5 44.5t15 47.5h9z" />
    <glyph glyph-name="udieresis" unicode="&#xfc;" horiz-adv-x="509" 
d="M123 140q0 -76 27.5 -108t72.5 -32q40 0 68.5 21.5t46.5 51.5t26.5 62.5t8.5 54.5v233h-82v7h108v-423h80v-7h-106v81q0 24 0.5 39t1.5 23h-1q-4 -19 -14.5 -44.5t-29 -49t-45 -40t-62.5 -16.5q-24 0 -46.5 7t-40 24t-28.5 44t-11 68v287h-82v7h108v-290zM126 627
q0 9 6.5 15.5t15.5 6.5t15.5 -6.5t6.5 -15.5t-6.5 -15.5t-15.5 -6.5t-15.5 6.5t-6.5 15.5zM318 627q0 9 6.5 15.5t15.5 6.5t15.5 -6.5t6.5 -15.5t-6.5 -15.5t-15.5 -6.5t-15.5 6.5t-6.5 15.5z" />
    <glyph glyph-name="yacute" unicode="&#xfd;" horiz-adv-x="498" 
d="M105 -240v143h8v-136q31 0 55.5 6t41 23.5t25 48.5t8.5 82v68l-170 428h-73v7h173v-7h-71l162 -418l151 418h-74v7h157v-7h-74l-155 -428v-47q0 -61 -13.5 -98t-35.5 -57t-50 -26.5t-57 -6.5h-8zM261 520l112 161h20l-125 -161h-7z" />
    <glyph glyph-name="thorn" unicode="&#xfe;" horiz-adv-x="516" 
d="M124 215q0 -38 10.5 -76.5t30 -70t48.5 -51t67 -19.5q27 0 54 11.5t48.5 37.5t35 67.5t13.5 100.5t-13.5 100.5t-35 67.5t-48.5 37.5t-54 11.5q-38 0 -67 -19.5t-48.5 -51t-30 -70t-10.5 -76.5zM127 291q7 28 20 55t32.5 47.5t45 33t55.5 12.5q39 0 72 -17.5t57 -48
t38 -71.5t14 -87t-14 -87t-38 -71.5t-57 -48t-72 -17.5q-30 0 -55.5 12.5t-45 33t-32.5 47t-20 55.5h-1q0 -4 0.5 -12t1 -18t0.5 -20v-18v-304h102v-7h-210v7h82v937h-82v7h108v-342q0 -24 -0.5 -47t-1.5 -31h1z" />
    <glyph glyph-name="ydieresis" unicode="&#xff;" horiz-adv-x="498" 
d="M105 -240v143h8v-136q31 0 55.5 6t41 23.5t25 48.5t8.5 82v68l-170 428h-73v7h173v-7h-71l162 -418l151 418h-74v7h157v-7h-74l-155 -428v-47q0 -61 -13.5 -98t-35.5 -57t-50 -26.5t-57 -6.5h-8zM144 627q0 9 6.5 15.5t15.5 6.5t15.5 -6.5t6.5 -15.5t-6.5 -15.5
t-15.5 -6.5t-15.5 6.5t-6.5 15.5zM336 627q0 9 6.5 15.5t15.5 6.5t15.5 -6.5t6.5 -15.5t-6.5 -15.5t-15.5 -6.5t-15.5 6.5t-6.5 15.5z" />
    <glyph glyph-name="Abreve" unicode="&#x102;" horiz-adv-x="660" 
d="M474 240h-318l-67 -233h104v-7h-193v7h80l177 610q12 43 25 62t33 19q28 0 42.5 -21.5t26.5 -60.5l190 -609h86v-7h-212v7h98zM158 247h314l-115 379q-11 34 -18 49.5t-24 15.5q-22 0 -32.5 -25t-20.5 -60zM314 755q49 0 78.5 27.5t32.5 93.5h8q-1 -28 -8 -51.5
t-21 -40.5t-36.5 -26.5t-53.5 -9.5q-32 0 -54 9.5t-36 26.5t-21 40.5t-8 51.5h8q3 -66 32.5 -93.5t78.5 -27.5z" />
    <glyph glyph-name="Amacron" unicode="&#x100;" horiz-adv-x="660" 
d="M474 240h-318l-67 -233h104v-7h-193v7h80l177 610q12 43 25 62t33 19q28 0 42.5 -21.5t26.5 -60.5l190 -609h86v-7h-212v7h98zM158 247h314l-115 379q-11 34 -18 49.5t-24 15.5q-22 0 -32.5 -25t-20.5 -60zM199 810v7h234v-7h-234z" />
    <glyph glyph-name="Aogonek" unicode="&#x104;" horiz-adv-x="660" 
d="M474 240h-318l-67 -233h104v-7h-193v7h80l177 610q12 43 25 62t33 19q28 0 42.5 -21.5t26.5 -60.5l190 -609h86v-7h-212v7h98zM158 247h314l-115 379q-11 34 -18 49.5t-24 15.5q-22 0 -32.5 -25t-20.5 -60zM408 -121q0 20 11.5 37t31.5 32t46.5 27.5t56.5 24.5h13
q-32 -13 -59.5 -26t-47.5 -27.5t-32 -31t-12 -36.5q0 -30 19.5 -48t51.5 -18q28 0 48.5 9.5t34.5 21.5l4 -6q-17 -15 -39 -23.5t-48 -8.5q-38 0 -58.5 20.5t-20.5 52.5z" />
    <glyph glyph-name="Cacute" unicode="&#x106;" horiz-adv-x="722" 
d="M382 -7q-68 0 -126 27.5t-100.5 75.5t-66.5 112t-24 137t24 137.5t66.5 112.5t100.5 75.5t126 27.5q106 0 178.5 -56.5t92.5 -167.5h-9q-10 56 -34 97t-58.5 67.5t-78 39.5t-91.5 13q-54 0 -106 -20t-92 -62t-64.5 -107.5t-24.5 -156.5q0 -92 24.5 -157t64.5 -107
t92 -61.5t106 -19.5q48 0 92 13t79 39.5t60 67.5t35 97h9q-10 -55 -34 -97t-60 -70t-82 -42.5t-99 -14.5zM364 743l154 139h28l-175 -139h-7z" />
    <glyph glyph-name="Ccaron" unicode="&#x10c;" horiz-adv-x="722" 
d="M382 -7q-68 0 -126 27.5t-100.5 75.5t-66.5 112t-24 137t24 137.5t66.5 112.5t100.5 75.5t126 27.5q106 0 178.5 -56.5t92.5 -167.5h-9q-10 56 -34 97t-58.5 67.5t-78 39.5t-91.5 13q-54 0 -106 -20t-92 -62t-64.5 -107.5t-24.5 -156.5q0 -92 24.5 -157t64.5 -107
t92 -61.5t106 -19.5q48 0 92 13t79 39.5t60 67.5t35 97h9q-10 -55 -34 -97t-60 -70t-82 -42.5t-99 -14.5zM376 742q-3 24 -14.5 45t-27.5 38.5t-35.5 30.5t-38.5 20l3 6q13 -4 30.5 -14t34 -24t30.5 -32t22 -37h1q8 19 22 37t30.5 32t33.5 24t31 14l3 -6q-19 -7 -38.5 -20
t-35.5 -30.5t-27.5 -38.5t-14.5 -45h-9v0z" />
    <glyph glyph-name="Ccircumflex" unicode="&#x108;" horiz-adv-x="722" 
d="M382 -7q-68 0 -126 27.5t-100.5 75.5t-66.5 112t-24 137t24 137.5t66.5 112.5t100.5 75.5t126 27.5q106 0 178.5 -56.5t92.5 -167.5h-9q-10 56 -34 97t-58.5 67.5t-78 39.5t-91.5 13q-54 0 -106 -20t-92 -62t-64.5 -107.5t-24.5 -156.5q0 -92 24.5 -157t64.5 -107
t92 -61.5t106 -19.5q48 0 92 13t79 39.5t60 67.5t35 97h9q-10 -55 -34 -97t-60 -70t-82 -42.5t-99 -14.5zM385 882q3 -24 14.5 -45t27.5 -38.5t35.5 -30.5t38.5 -20l-3 -6q-14 4 -31 14t-33.5 24t-30.5 31.5t-22 37.5h-1q-8 -20 -22 -37.5t-30.5 -31.5t-34 -24t-30.5 -14
l-3 6q19 7 38.5 20t35.5 30.5t27.5 38.5t14.5 45h9z" />
    <glyph glyph-name="Cdotaccent" unicode="&#x10a;" horiz-adv-x="722" 
d="M382 -7q-68 0 -126 27.5t-100.5 75.5t-66.5 112t-24 137t24 137.5t66.5 112.5t100.5 75.5t126 27.5q106 0 178.5 -56.5t92.5 -167.5h-9q-10 56 -34 97t-58.5 67.5t-78 39.5t-91.5 13q-54 0 -106 -20t-92 -62t-64.5 -107.5t-24.5 -156.5q0 -92 24.5 -157t64.5 -107
t92 -61.5t106 -19.5q48 0 92 13t79 39.5t60 67.5t35 97h9q-10 -55 -34 -97t-60 -70t-82 -42.5t-99 -14.5zM354 817q0 9 6.5 15.5t15.5 6.5t15.5 -6.5t6.5 -15.5t-6.5 -15.5t-15.5 -6.5t-15.5 6.5t-6.5 15.5z" />
    <glyph glyph-name="Dcaron" unicode="&#x10e;" horiz-adv-x="727" 
d="M662 347q0 -77 -26 -141t-74 -110t-116 -71.5t-152 -25.5q-26 0 -56.5 0.5t-56.5 0.5h-141v7h102v678h-100v7h133q28 0 59.5 0.5t59.5 0.5q84 0 152 -25t116 -71t74 -109.5t26 -140.5zM631 347q0 99 -30 164.5t-78 104.5t-109 54.5t-124 15.5h-27.5t-94.5 -1v-678
q68 -1 94.5 -1h27.5q63 0 124 16t109 55t78 105t30 165zM306 742q-3 24 -14.5 45t-27.5 38.5t-35.5 30.5t-38.5 20l3 6q13 -4 30.5 -14t34 -24t30.5 -32t22 -37h1q8 19 22 37t30.5 32t33.5 24t31 14l3 -6q-19 -7 -38.5 -20t-35.5 -30.5t-27.5 -38.5t-14.5 -45h-9v0z" />
    <glyph glyph-name="Dcroat" unicode="&#x110;" horiz-adv-x="727" 
d="M50 373h92v312h-100v7h133q28 0 59.5 0.5t59.5 0.5q84 0 152 -25t116 -71t74 -109.5t26 -140.5t-26 -141t-74 -110t-116 -71.5t-152 -25.5q-26 0 -56.5 0.5t-56.5 0.5h-141v7h102v359h-92v7zM631 347q0 99 -30 164.5t-78 104.5t-109 54.5t-124 15.5h-27.5t-94.5 -1v-312
h151v-7h-151v-359q68 -1 94.5 -1h27.5q63 0 124 16t109 55t78 105t30 165z" />
    <glyph glyph-name="Ebreve" unicode="&#x114;" horiz-adv-x="638" 
d="M548 692v-166h-8v159h-372v-312h257v113h8v-229h-8v109h-257v-359h397v171h8v-178h-533v7h102v678h-100v7h506zM337 755q49 0 78.5 27.5t32.5 93.5h8q-1 -28 -8 -51.5t-21 -40.5t-36.5 -26.5t-53.5 -9.5q-32 0 -54 9.5t-36 26.5t-21 40.5t-8 51.5h8q3 -66 32.5 -93.5
t78.5 -27.5z" />
    <glyph glyph-name="Ecaron" unicode="&#x11a;" horiz-adv-x="638" 
d="M548 692v-166h-8v159h-372v-312h257v113h8v-229h-8v109h-257v-359h397v171h8v-178h-533v7h102v678h-100v7h506zM335 742q-3 24 -14.5 45t-27.5 38.5t-35.5 30.5t-38.5 20l3 6q13 -4 30.5 -14t34 -24t30.5 -32t22 -37h1q8 19 22 37t30.5 32t33.5 24t31 14l3 -6
q-19 -7 -38.5 -20t-35.5 -30.5t-27.5 -38.5t-14.5 -45h-9v0z" />
    <glyph glyph-name="Emacron" unicode="&#x112;" horiz-adv-x="638" 
d="M548 692v-166h-8v159h-372v-312h257v113h8v-229h-8v109h-257v-359h397v171h8v-178h-533v7h102v678h-100v7h506zM228 810v7h234v-7h-234z" />
    <glyph glyph-name="Eogonek" unicode="&#x118;" horiz-adv-x="638" 
d="M548 692v-166h-8v159h-372v-312h257v113h8v-229h-8v109h-257v-359h397v171h8v-178h-533v7h102v678h-100v7h506zM414 -121q0 20 11.5 37t31.5 32t46.5 27.5t56.5 24.5h13q-32 -13 -59.5 -26t-47.5 -27.5t-32 -31t-12 -36.5q0 -30 19.5 -48t51.5 -18q28 0 48.5 9.5
t34.5 21.5l4 -6q-17 -15 -39 -23.5t-48 -8.5q-38 0 -58.5 20.5t-20.5 52.5z" />
    <glyph glyph-name="Edotaccent" unicode="&#x116;" horiz-adv-x="638" 
d="M548 692v-166h-8v159h-372v-312h257v113h8v-229h-8v109h-257v-359h397v171h8v-178h-533v7h102v678h-100v7h506zM316 817q0 9 6.5 15.5t15.5 6.5t15.5 -6.5t6.5 -15.5t-6.5 -15.5t-15.5 -6.5t-15.5 6.5t-6.5 15.5z" />
    <glyph glyph-name="Gbreve" unicode="&#x11e;" horiz-adv-x="765" 
d="M65 345q0 73 24 137.5t66.5 112.5t100.5 75.5t126 27.5q53 0 98.5 -14.5t81.5 -42.5t60 -70t34 -97h-9q-10 56 -34.5 97t-59.5 67.5t-79 39.5t-92 13q-54 0 -106 -20t-92 -62t-64.5 -107.5t-24.5 -156.5q0 -92 25 -157t66.5 -107t94 -61.5t108.5 -19.5q38 0 84.5 10.5
t87.5 40.5t68.5 85t27.5 144v50h-162v7h170v-337h-8v136q0 29 0.5 44t1.5 28h-1q-8 -54 -32 -94.5t-59.5 -67.5t-81 -40t-96.5 -13q-70 0 -129 27.5t-102.5 75.5t-68 112t-24.5 137zM384 755q49 0 78.5 27.5t32.5 93.5h8q-1 -28 -8 -51.5t-21 -40.5t-36.5 -26.5t-53.5 -9.5
q-32 0 -54 9.5t-36 26.5t-21 40.5t-8 51.5h8q3 -66 32.5 -93.5t78.5 -27.5z" />
    <glyph glyph-name="Gcircumflex" unicode="&#x11c;" horiz-adv-x="765" 
d="M65 345q0 73 24 137.5t66.5 112.5t100.5 75.5t126 27.5q53 0 98.5 -14.5t81.5 -42.5t60 -70t34 -97h-9q-10 56 -34.5 97t-59.5 67.5t-79 39.5t-92 13q-54 0 -106 -20t-92 -62t-64.5 -107.5t-24.5 -156.5q0 -92 25 -157t66.5 -107t94 -61.5t108.5 -19.5q38 0 84.5 10.5
t87.5 40.5t68.5 85t27.5 144v50h-162v7h170v-337h-8v136q0 29 0.5 44t1.5 28h-1q-8 -54 -32 -94.5t-59.5 -67.5t-81 -40t-96.5 -13q-70 0 -129 27.5t-102.5 75.5t-68 112t-24.5 137zM397 882q3 -24 14.5 -45t27.5 -38.5t35.5 -30.5t38.5 -20l-3 -6q-14 4 -31 14t-33.5 24
t-30.5 31.5t-22 37.5h-1q-8 -20 -22 -37.5t-30.5 -31.5t-34 -24t-30.5 -14l-3 6q19 7 38.5 20t35.5 30.5t27.5 38.5t14.5 45h9z" />
    <glyph glyph-name="Gcommaaccent" unicode="&#x122;" horiz-adv-x="765" 
d="M65 345q0 73 24 137.5t66.5 112.5t100.5 75.5t126 27.5q53 0 98.5 -14.5t81.5 -42.5t60 -70t34 -97h-9q-10 56 -34.5 97t-59.5 67.5t-79 39.5t-92 13q-54 0 -106 -20t-92 -62t-64.5 -107.5t-24.5 -156.5q0 -92 25 -157t66.5 -107t94 -61.5t108.5 -19.5q38 0 84.5 10.5
t87.5 40.5t68.5 85t27.5 144v50h-162v7h170v-337h-8v136q0 29 0.5 44t1.5 28h-1q-8 -54 -32 -94.5t-59.5 -67.5t-81 -40t-96.5 -13q-70 0 -129 27.5t-102.5 75.5t-68 112t-24.5 137zM375 -99q29 0 37 -34.5t-17 -90.5q-10 -23 -25 -45t-31 -38l-5 5q13 13 27.5 34.5
t25.5 44.5q7 15 11 30t5.5 27t-0.5 19.5t-8 7.5q-10 0 -13.5 -3.5t-11.5 -3.5q-9 0 -15.5 6t-6.5 17t8 17.5t19 6.5z" />
    <glyph glyph-name="Gdotaccent" unicode="&#x120;" horiz-adv-x="765" 
d="M65 345q0 73 24 137.5t66.5 112.5t100.5 75.5t126 27.5q53 0 98.5 -14.5t81.5 -42.5t60 -70t34 -97h-9q-10 56 -34.5 97t-59.5 67.5t-79 39.5t-92 13q-54 0 -106 -20t-92 -62t-64.5 -107.5t-24.5 -156.5q0 -92 25 -157t66.5 -107t94 -61.5t108.5 -19.5q38 0 84.5 10.5
t87.5 40.5t68.5 85t27.5 144v50h-162v7h170v-337h-8v136q0 29 0.5 44t1.5 28h-1q-8 -54 -32 -94.5t-59.5 -67.5t-81 -40t-96.5 -13q-70 0 -129 27.5t-102.5 75.5t-68 112t-24.5 137zM357 817q0 9 6.5 15.5t15.5 6.5t15.5 -6.5t6.5 -15.5t-6.5 -15.5t-15.5 -6.5t-15.5 6.5
t-6.5 15.5z" />
    <glyph glyph-name="Hbar" unicode="&#x126;" horiz-adv-x="753" 
d="M587 366h-421v-359h100v-7h-226v7h100v678h-100v7h226v-7h-100v-152h421v152h-100v7h226v-7h-100v-678h100v-7h-226v7h100v359zM587 373v153h-421v-153h421z" />
    <glyph glyph-name="Hcircumflex" unicode="&#x124;" horiz-adv-x="753" 
d="M587 366h-421v-359h100v-7h-226v7h100v678h-100v7h226v-7h-100v-312h421v312h-100v7h226v-7h-100v-678h100v-7h-226v7h100v359zM381 882q3 -24 14.5 -45t27.5 -38.5t35.5 -30.5t38.5 -20l-3 -6q-14 4 -31 14t-33.5 24t-30.5 31.5t-22 37.5h-1q-8 -20 -22 -37.5
t-30.5 -31.5t-34 -24t-30.5 -14l-3 6q19 7 38.5 20t35.5 30.5t27.5 38.5t14.5 45h9z" />
    <glyph glyph-name="Ibreve" unicode="&#x12c;" horiz-adv-x="306" 
d="M153 755q49 0 78.5 27.5t32.5 93.5h8q-1 -28 -8 -51.5t-21 -40.5t-36.5 -26.5t-53.5 -9.5q-32 0 -54 9.5t-36 26.5t-21 40.5t-8 51.5h8q3 -66 32.5 -93.5t78.5 -27.5zM140 685h-100v7h226v-7h-100v-678h100v-7h-226v7h100v678z" />
    <glyph glyph-name="Idotaccent" unicode="&#x130;" horiz-adv-x="306" 
d="M140 685h-100v7h226v-7h-100v-678h100v-7h-226v7h100v678zM131 817q0 9 6.5 15.5t15.5 6.5t15.5 -6.5t6.5 -15.5t-6.5 -15.5t-15.5 -6.5t-15.5 6.5t-6.5 15.5z" />
    <glyph glyph-name="Imacron" unicode="&#x12a;" horiz-adv-x="306" 
d="M36 810v7h234v-7h-234zM140 685h-100v7h226v-7h-100v-678h100v-7h-226v7h100v678z" />
    <glyph glyph-name="Iogonek" unicode="&#x12e;" horiz-adv-x="306" 
d="M140 685h-100v7h226v-7h-100v-678h100v-7h-226v7h100v678zM3 -121q0 20 11.5 37t31.5 32t46.5 27.5t56.5 24.5h13q-32 -13 -59.5 -26t-47.5 -27.5t-32 -31t-12 -36.5q0 -30 19.5 -48t51.5 -18q28 0 48.5 9.5t34.5 21.5l4 -6q-17 -15 -39 -23.5t-48 -8.5q-38 0 -58.5 20.5
t-20.5 52.5z" />
    <glyph glyph-name="Itilde" unicode="&#x128;" horiz-adv-x="306" 
d="M75 839q-20 0 -30.5 -12t-15.5 -32h-8q5 26 20 39t35 13q21 0 41.5 -8.5t40 -19t38.5 -19t38 -8.5q20 0 30.5 12t15.5 32h8q-5 -26 -20 -39t-35 -13q-19 0 -38.5 8.5t-40 19t-40.5 19t-39 8.5zM140 685h-100v7h226v-7h-100v-678h100v-7h-226v7h100v678z" />
    <glyph glyph-name="uni1ECA" unicode="&#x1eca;" horiz-adv-x="306" 
d="M140 685h-100v7h226v-7h-100v-678h100v-7h-226v7h100v678zM131 -118q0 9 6.5 15.5t15.5 6.5t15.5 -6.5t6.5 -15.5t-6.5 -15.5t-15.5 -6.5t-15.5 6.5t-6.5 15.5z" />
    <glyph glyph-name="Jcircumflex" unicode="&#x134;" horiz-adv-x="459" 
d="M303 685h-110v7h236v-7h-100v-490q0 -94 -45.5 -148t-126.5 -54q-30 0 -57.5 10.5t-49 31.5t-35 51t-15.5 69h8q2 -39 15.5 -68t34 -48.5t46.5 -29t53 -9.5q29 0 55.5 8t46.5 30t32 59.5t12 97.5v490zM309 882q3 -24 14.5 -45t27.5 -38.5t35.5 -30.5t38.5 -20l-3 -6
q-14 4 -31 14t-33.5 24t-30.5 31.5t-22 37.5h-1q-8 -20 -22 -37.5t-30.5 -31.5t-34 -24t-30.5 -14l-3 6q19 7 38.5 20t35.5 30.5t27.5 38.5t14.5 45h9z" />
    <glyph glyph-name="Kcommaaccent" unicode="&#x136;" horiz-adv-x="687" 
d="M539 685h-111v7h237v-7h-114l-353 -323l387 -355h102v-7h-244v7h107l-377 343zM140 685h-100v7h226v-7h-100v-678h100v-7h-226v7h100v678zM354 -99q29 0 37 -34.5t-17 -90.5q-10 -23 -25 -45t-31 -38l-5 5q13 13 27.5 34.5t25.5 44.5q7 15 11 30t5.5 27t-0.5 19.5t-8 7.5
q-10 0 -13.5 -3.5t-11.5 -3.5q-9 0 -15.5 6t-6.5 17t8 17.5t19 6.5z" />
    <glyph glyph-name="Lacute" unicode="&#x139;" horiz-adv-x="588" 
d="M168 685v-678h367v171h8v-178h-503v7h102v678h-100v7h234v-7h-108zM134 743l154 139h28l-175 -139h-7z" />
    <glyph glyph-name="Lcaron" unicode="&#x13d;" horiz-adv-x="588" 
d="M383 698q29 0 37 -34.5t-17 -90.5q-10 -23 -25 -45t-31 -38l-5 5q13 13 27.5 34.5t25.5 44.5q7 15 11 30t5.5 27t-0.5 19.5t-8 7.5q-10 0 -13.5 -3.5t-11.5 -3.5q-9 0 -15.5 6t-6.5 17t8 17.5t19 6.5zM168 685v-678h367v171h8v-178h-503v7h102v678h-100v7h234v-7h-108z
" />
    <glyph glyph-name="Lcommaaccent" unicode="&#x13b;" horiz-adv-x="588" 
d="M168 685v-678h367v171h8v-178h-503v7h102v678h-100v7h234v-7h-108zM311 -99q29 0 37 -34.5t-17 -90.5q-10 -23 -25 -45t-31 -38l-5 5q13 13 27.5 34.5t25.5 44.5q7 15 11 30t5.5 27t-0.5 19.5t-8 7.5q-10 0 -13.5 -3.5t-11.5 -3.5q-9 0 -15.5 6t-6.5 17t8 17.5t19 6.5z
" />
    <glyph glyph-name="Ldot" unicode="&#x13f;" horiz-adv-x="588" 
d="M329 379q0 9 6.5 15.5t15.5 6.5t15.5 -6.5t6.5 -15.5t-6.5 -15.5t-15.5 -6.5t-15.5 6.5t-6.5 15.5zM168 685v-678h367v171h8v-178h-503v7h102v678h-100v7h234v-7h-108z" />
    <glyph glyph-name="Lslash" unicode="&#x141;" horiz-adv-x="588" 
d="M168 685v-310l125 61l3 -7l-128 -63v-359h367v171h8v-178h-503v7h102v347l-104 -51l-3 7l107 52v323h-100v7h234v-7h-108z" />
    <glyph glyph-name="Nacute" unicode="&#x143;" horiz-adv-x="726" 
d="M604 81q0 -50 -13.5 -69t-35.5 -19q-24 0 -45 22t-50 79l-306 591v-678h100v-7h-214v7h106v678h-106v7h141l318 -622q11 -21 18.5 -35t13.5 -21.5t12 -10.5t13 -3q23 0 31.5 22t8.5 64v599h-100v7h216v-7h-108v-604zM351 743l154 139h28l-175 -139h-7z" />
    <glyph glyph-name="Ncaron" unicode="&#x147;" horiz-adv-x="726" 
d="M604 81q0 -50 -13.5 -69t-35.5 -19q-24 0 -45 22t-50 79l-306 591v-678h100v-7h-214v7h106v678h-106v7h141l318 -622q11 -21 18.5 -35t13.5 -21.5t12 -10.5t13 -3q23 0 31.5 22t8.5 64v599h-100v7h216v-7h-108v-604zM386 742q-3 24 -14.5 45t-27.5 38.5t-35.5 30.5
t-38.5 20l3 6q13 -4 30.5 -14t34 -24t30.5 -32t22 -37h1q8 19 22 37t30.5 32t33.5 24t31 14l3 -6q-19 -7 -38.5 -20t-35.5 -30.5t-27.5 -38.5t-14.5 -45h-9v0z" />
    <glyph glyph-name="Ncommaaccent" unicode="&#x145;" horiz-adv-x="726" 
d="M604 81q0 -50 -13.5 -69t-35.5 -19q-24 0 -45 22t-50 79l-306 591v-678h100v-7h-214v7h106v678h-106v7h141l318 -622q11 -21 18.5 -35t13.5 -21.5t12 -10.5t13 -3q23 0 31.5 22t8.5 64v599h-100v7h216v-7h-108v-604zM352 -99q29 0 37 -34.5t-17 -90.5q-10 -23 -25 -45
t-31 -38l-5 5q13 13 27.5 34.5t25.5 44.5q7 15 11 30t5.5 27t-0.5 19.5t-8 7.5q-10 0 -13.5 -3.5t-11.5 -3.5q-9 0 -15.5 6t-6.5 17t8 17.5t19 6.5z" />
    <glyph glyph-name="OE" unicode="&#x152;" horiz-adv-x="1183" 
d="M65 345q0 73 25 137.5t68.5 112.5t103 75.5t129.5 27.5q54 0 100.5 -17t85 -47t66.5 -71.5t44 -90.5v219h406v-166h-8v159h-372v-311h257v113h8v-229h-8v109h-257v-359h397v171h8v-178h-431v217q-16 -50 -44 -91t-66.5 -70.5t-85 -46t-100.5 -16.5q-70 0 -129.5 27.5
t-103 75.5t-68.5 112t-25 137zM95 345q0 -92 25.5 -157t67 -107t94.5 -61.5t109 -19.5q55 0 108.5 19.5t95 61.5t67 107t25.5 157q0 91 -25.5 156.5t-67 107.5t-95 62t-108.5 20q-56 0 -109 -20t-94.5 -62t-67 -107.5t-25.5 -156.5z" />
    <glyph glyph-name="Obreve" unicode="&#x14e;" horiz-adv-x="782" 
d="M95 345q0 -92 25.5 -157t67 -107t94.5 -61.5t109 -19.5q55 0 108.5 19.5t95 61.5t67 107t25.5 157q0 91 -25.5 156.5t-67 107.5t-95 62t-108.5 20q-56 0 -109 -20t-94.5 -62t-67 -107.5t-25.5 -156.5zM65 345q0 73 25 137.5t68.5 112.5t103 75.5t129.5 27.5t129.5 -27.5
t103 -75.5t68.5 -112.5t25 -137.5t-25 -137t-68.5 -112t-103 -75.5t-129.5 -27.5t-129.5 27.5t-103 75.5t-68.5 112t-25 137zM391 755q49 0 78.5 27.5t32.5 93.5h8q-1 -28 -8 -51.5t-21 -40.5t-36.5 -26.5t-53.5 -9.5q-32 0 -54 9.5t-36 26.5t-21 40.5t-8 51.5h8
q3 -66 32.5 -93.5t78.5 -27.5z" />
    <glyph glyph-name="Ohungarumlaut" unicode="&#x150;" horiz-adv-x="782" 
d="M95 345q0 -92 25.5 -157t67 -107t94.5 -61.5t109 -19.5q55 0 108.5 19.5t95 61.5t67 107t25.5 157q0 91 -25.5 156.5t-67 107.5t-95 62t-108.5 20q-56 0 -109 -20t-94.5 -62t-67 -107.5t-25.5 -156.5zM65 345q0 73 25 137.5t68.5 112.5t103 75.5t129.5 27.5t129.5 -27.5
t103 -75.5t68.5 -112.5t25 -137.5t-25 -137t-68.5 -112t-103 -75.5t-129.5 -27.5t-129.5 27.5t-103 75.5t-68.5 112t-25 137zM464 743l154 139h28l-175 -139h-7zM304 743l154 139h28l-175 -139h-7z" />
    <glyph glyph-name="Omacron" unicode="&#x14c;" horiz-adv-x="782" 
d="M95 345q0 -92 25.5 -157t67 -107t94.5 -61.5t109 -19.5q55 0 108.5 19.5t95 61.5t67 107t25.5 157q0 91 -25.5 156.5t-67 107.5t-95 62t-108.5 20q-56 0 -109 -20t-94.5 -62t-67 -107.5t-25.5 -156.5zM65 345q0 73 25 137.5t68.5 112.5t103 75.5t129.5 27.5t129.5 -27.5
t103 -75.5t68.5 -112.5t25 -137.5t-25 -137t-68.5 -112t-103 -75.5t-129.5 -27.5t-129.5 27.5t-103 75.5t-68.5 112t-25 137zM274 810v7h234v-7h-234z" />
    <glyph glyph-name="uni1ECC" unicode="&#x1ecc;" horiz-adv-x="782" 
d="M95 345q0 -92 25.5 -157t67 -107t94.5 -61.5t109 -19.5q55 0 108.5 19.5t95 61.5t67 107t25.5 157q0 91 -25.5 156.5t-67 107.5t-95 62t-108.5 20q-56 0 -109 -20t-94.5 -62t-67 -107.5t-25.5 -156.5zM65 345q0 73 25 137.5t68.5 112.5t103 75.5t129.5 27.5t129.5 -27.5
t103 -75.5t68.5 -112.5t25 -137.5t-25 -137t-68.5 -112t-103 -75.5t-129.5 -27.5t-129.5 27.5t-103 75.5t-68.5 112t-25 137zM369 -118q0 9 6.5 15.5t15.5 6.5t15.5 -6.5t6.5 -15.5t-6.5 -15.5t-15.5 -6.5t-15.5 6.5t-6.5 15.5z" />
    <glyph glyph-name="Racute" unicode="&#x154;" horiz-adv-x="701" 
d="M676 53q-9 -35 -25 -47.5t-38 -12.5q-35 0 -59.5 40t-26.5 121l-1 39q-1 49 -15 81.5t-40 51.5t-64.5 26.5t-89.5 7.5h-149v-353h108v-7h-236v7h102v678h-100v7h136h29t35.5 0.5t35.5 0.5h29q49 0 93 -8.5t76.5 -27t51.5 -49t19 -74.5q0 -36 -14 -66t-38 -52t-57.5 -35
t-72.5 -16v-1q91 -5 138.5 -54t49.5 -125l1 -31q1 -40 3.5 -69t9 -48t18 -28t30.5 -9q16 0 31.5 10t22.5 45zM306 686q-31 0 -61.5 -0.5t-76.5 -0.5v-318h162q39 0 73 9t59.5 28t40 49.5t14.5 72.5q0 49 -15.5 80t-43 49t-66.5 24.5t-86 6.5zM284 743l154 139h28l-175 -139
h-7z" />
    <glyph glyph-name="Rcaron" unicode="&#x158;" horiz-adv-x="701" 
d="M676 53q-9 -35 -25 -47.5t-38 -12.5q-35 0 -59.5 40t-26.5 121l-1 39q-1 49 -15 81.5t-40 51.5t-64.5 26.5t-89.5 7.5h-149v-353h108v-7h-236v7h102v678h-100v7h136h29t35.5 0.5t35.5 0.5h29q49 0 93 -8.5t76.5 -27t51.5 -49t19 -74.5q0 -36 -14 -66t-38 -52t-57.5 -35
t-72.5 -16v-1q91 -5 138.5 -54t49.5 -125l1 -31q1 -40 3.5 -69t9 -48t18 -28t30.5 -9q16 0 31.5 10t22.5 45zM306 686q-31 0 -61.5 -0.5t-76.5 -0.5v-318h162q39 0 73 9t59.5 28t40 49.5t14.5 72.5q0 49 -15.5 80t-43 49t-66.5 24.5t-86 6.5zM306 742q-3 24 -14.5 45
t-27.5 38.5t-35.5 30.5t-38.5 20l3 6q13 -4 30.5 -14t34 -24t30.5 -32t22 -37h1q8 19 22 37t30.5 32t33.5 24t31 14l3 -6q-19 -7 -38.5 -20t-35.5 -30.5t-27.5 -38.5t-14.5 -45h-9v0z" />
    <glyph glyph-name="Rcommaaccent" unicode="&#x156;" horiz-adv-x="701" 
d="M676 53q-9 -35 -25 -47.5t-38 -12.5q-35 0 -59.5 40t-26.5 121l-1 39q-1 49 -15 81.5t-40 51.5t-64.5 26.5t-89.5 7.5h-149v-353h108v-7h-236v7h102v678h-100v7h136h29t35.5 0.5t35.5 0.5h29q49 0 93 -8.5t76.5 -27t51.5 -49t19 -74.5q0 -36 -14 -66t-38 -52t-57.5 -35
t-72.5 -16v-1q91 -5 138.5 -54t49.5 -125l1 -31q1 -40 3.5 -69t9 -48t18 -28t30.5 -9q16 0 31.5 10t22.5 45zM306 686q-31 0 -61.5 -0.5t-76.5 -0.5v-318h162q39 0 73 9t59.5 28t40 49.5t14.5 72.5q0 49 -15.5 80t-43 49t-66.5 24.5t-86 6.5zM355 -99q29 0 37 -34.5
t-17 -90.5q-10 -23 -25 -45t-31 -38l-5 5q13 13 27.5 34.5t25.5 44.5q7 15 11 30t5.5 27t-0.5 19.5t-8 7.5q-10 0 -13.5 -3.5t-11.5 -3.5q-9 0 -15.5 6t-6.5 17t8 17.5t19 6.5z" />
    <glyph glyph-name="Sacute" unicode="&#x15a;" horiz-adv-x="596" 
d="M100 557q0 -54 43 -91t133 -69l58 -21q39 -14 73.5 -31.5t60.5 -42t41 -56.5t15 -75q0 -46 -16 -79.5t-45.5 -55.5t-70.5 -32.5t-91 -10.5t-91.5 15t-72 43t-49.5 67t-23 86h9q4 -47 22.5 -84.5t48.5 -64t69.5 -41t86.5 -14.5q40 0 78.5 8t68.5 28t48.5 52.5t18.5 82.5
q0 40 -17 68.5t-44 49t-61.5 35.5t-70.5 28l-59 22q-85 31 -128.5 75.5t-43.5 107.5q0 30 14 56t39 44.5t59.5 29.5t75.5 11q39 0 75 -9t65.5 -29.5t49.5 -54t28 -82.5h-9q-7 47 -27 79.5t-48.5 52t-62.5 28t-70 8.5q-38 0 -71 -9.5t-57 -27t-38 -42.5t-14 -55zM274 743
l154 139h28l-175 -139h-7z" />
    <glyph glyph-name="Scaron" unicode="&#x160;" horiz-adv-x="614" 
d="M118 557q0 -54 43 -91t133 -69l58 -21q39 -14 73.5 -31.5t60.5 -42t41 -56.5t15 -75q0 -46 -16 -79.5t-45.5 -55.5t-70.5 -32.5t-91 -10.5t-91.5 15t-72 43t-49.5 67t-23 86h9q4 -47 22.5 -84.5t48.5 -64t69.5 -41t86.5 -14.5q40 0 78.5 8t68.5 28t48.5 52.5t18.5 82.5
q0 40 -17 68.5t-44 49t-61.5 35.5t-70.5 28l-59 22q-85 31 -128.5 75.5t-43.5 107.5q0 30 14 56t39 44.5t59.5 29.5t75.5 11q39 0 75 -9t65.5 -29.5t49.5 -54t28 -82.5h-9q-7 47 -27 79.5t-48.5 52t-62.5 28t-70 8.5q-38 0 -71 -9.5t-57 -27t-38 -42.5t-14 -55zM301 742
q-3 24 -14.5 45t-27.5 38.5t-35.5 30.5t-38.5 20l3 6q13 -4 30.5 -14t34 -24t30.5 -32t22 -37h1q8 19 22 37t30.5 32t33.5 24t31 14l3 -6q-19 -7 -38.5 -20t-35.5 -30.5t-27.5 -38.5t-14.5 -45h-9v0z" />
    <glyph glyph-name="Scedilla" unicode="&#x15e;" horiz-adv-x="596" 
d="M100 557q0 -54 43 -91t133 -69l58 -21q39 -14 73.5 -31.5t60.5 -42t41 -56.5t15 -75q0 -46 -16 -79.5t-45.5 -55.5t-70.5 -32.5t-91 -10.5t-91.5 15t-72 43t-49.5 67t-23 86h9q4 -47 22.5 -84.5t48.5 -64t69.5 -41t86.5 -14.5q40 0 78.5 8t68.5 28t48.5 52.5t18.5 82.5
q0 40 -17 68.5t-44 49t-61.5 35.5t-70.5 28l-59 22q-85 31 -128.5 75.5t-43.5 107.5q0 30 14 56t39 44.5t59.5 29.5t75.5 11q39 0 75 -9t65.5 -29.5t49.5 -54t28 -82.5h-9q-7 47 -27 79.5t-48.5 52t-62.5 28t-70 8.5q-38 0 -71 -9.5t-57 -27t-38 -42.5t-14 -55zM374 -167
q0 -38 -23.5 -62.5t-63.5 -24.5q-35 0 -57 18.5t-30 47.5l7 3q8 -29 28 -45.5t52 -16.5q38 0 58.5 23t20.5 56q0 38 -23 57t-50 19q-24 0 -37 -7t-19 -13l-8 9l55 103h8l-54 -101l1 -1q8 6 20.5 11.5t33.5 5.5q12 0 26.5 -4.5t26.5 -14.5t20 -25.5t8 -37.5z" />
    <glyph glyph-name="Scircumflex" unicode="&#x15c;" horiz-adv-x="596" 
d="M100 557q0 -54 43 -91t133 -69l58 -21q39 -14 73.5 -31.5t60.5 -42t41 -56.5t15 -75q0 -46 -16 -79.5t-45.5 -55.5t-70.5 -32.5t-91 -10.5t-91.5 15t-72 43t-49.5 67t-23 86h9q4 -47 22.5 -84.5t48.5 -64t69.5 -41t86.5 -14.5q40 0 78.5 8t68.5 28t48.5 52.5t18.5 82.5
q0 40 -17 68.5t-44 49t-61.5 35.5t-70.5 28l-59 22q-85 31 -128.5 75.5t-43.5 107.5q0 30 14 56t39 44.5t59.5 29.5t75.5 11q39 0 75 -9t65.5 -29.5t49.5 -54t28 -82.5h-9q-7 47 -27 79.5t-48.5 52t-62.5 28t-70 8.5q-38 0 -71 -9.5t-57 -27t-38 -42.5t-14 -55zM296 882
q3 -24 14.5 -45t27.5 -38.5t35.5 -30.5t38.5 -20l-3 -6q-14 4 -31 14t-33.5 24t-30.5 31.5t-22 37.5h-1q-8 -20 -22 -37.5t-30.5 -31.5t-34 -24t-30.5 -14l-3 6q19 7 38.5 20t35.5 30.5t27.5 38.5t14.5 45h9z" />
    <glyph glyph-name="Scommaaccent" unicode="&#x218;" horiz-adv-x="596" 
d="M100 557q0 -54 43 -91t133 -69l58 -21q39 -14 73.5 -31.5t60.5 -42t41 -56.5t15 -75q0 -46 -16 -79.5t-45.5 -55.5t-70.5 -32.5t-91 -10.5t-91.5 15t-72 43t-49.5 67t-23 86h9q4 -47 22.5 -84.5t48.5 -64t69.5 -41t86.5 -14.5q40 0 78.5 8t68.5 28t48.5 52.5t18.5 82.5
q0 40 -17 68.5t-44 49t-61.5 35.5t-70.5 28l-59 22q-85 31 -128.5 75.5t-43.5 107.5q0 30 14 56t39 44.5t59.5 29.5t75.5 11q39 0 75 -9t65.5 -29.5t49.5 -54t28 -82.5h-9q-7 47 -27 79.5t-48.5 52t-62.5 28t-70 8.5q-38 0 -71 -9.5t-57 -27t-38 -42.5t-14 -55zM298 -99
q29 0 37 -34.5t-17 -90.5q-10 -23 -25 -45t-31 -38l-5 5q13 13 27.5 34.5t25.5 44.5q7 15 11 30t5.5 27t-0.5 19.5t-8 7.5q-10 0 -13.5 -3.5t-11.5 -3.5q-9 0 -15.5 6t-6.5 17t8 17.5t19 6.5z" />
    <glyph glyph-name="Tcaron" unicode="&#x164;" horiz-adv-x="670" 
d="M45 692h580v-166h-8v159h-269v-678h120v-7h-266v7h120v678h-269v-159h-8v166zM331 742q-3 24 -14.5 45t-27.5 38.5t-35.5 30.5t-38.5 20l3 6q13 -4 30.5 -14t34 -24t30.5 -32t22 -37h1q8 19 22 37t30.5 32t33.5 24t31 14l3 -6q-19 -7 -38.5 -20t-35.5 -30.5t-27.5 -38.5
t-14.5 -45h-9v0z" />
    <glyph glyph-name="uni0162" unicode="&#x162;" horiz-adv-x="670" 
d="M45 692h580v-166h-8v159h-269v-678h120v-7h-266v7h120v678h-269v-159h-8v166zM325 -99q29 0 37 -34.5t-17 -90.5q-10 -23 -25 -45t-31 -38l-5 5q13 13 27.5 34.5t25.5 44.5q7 15 11 30t5.5 27t-0.5 19.5t-8 7.5q-10 0 -13.5 -3.5t-11.5 -3.5q-9 0 -15.5 6t-6.5 17t8 17.5
t19 6.5z" />
    <glyph glyph-name="Tcommaaccent" unicode="&#x21a;" horiz-adv-x="670" 
d="M45 692h580v-166h-8v159h-269v-678h120v-7h-266v7h120v678h-269v-159h-8v166zM325 -99q29 0 37 -34.5t-17 -90.5q-10 -23 -25 -45t-31 -38l-5 5q13 13 27.5 34.5t25.5 44.5q7 15 11 30t5.5 27t-0.5 19.5t-8 7.5q-10 0 -13.5 -3.5t-11.5 -3.5q-9 0 -15.5 6t-6.5 17t8 17.5
t19 6.5z" />
    <glyph glyph-name="Ubreve" unicode="&#x16c;" horiz-adv-x="707" 
d="M146 212q0 -54 16 -94t45 -66.5t68.5 -39t86.5 -12.5q49 0 90 12.5t70 39t45.5 66.5t16.5 95v472h-106v7h219v-7h-105v-471q0 -59 -18 -101t-49.5 -68.5t-73 -39t-89.5 -12.5q-69 0 -115.5 20t-74.5 53t-40 75t-12 85v459h-100v7h226v-7h-100v-473zM374 755
q49 0 78.5 27.5t32.5 93.5h8q-1 -28 -8 -51.5t-21 -40.5t-36.5 -26.5t-53.5 -9.5q-32 0 -54 9.5t-36 26.5t-21 40.5t-8 51.5h8q3 -66 32.5 -93.5t78.5 -27.5z" />
    <glyph glyph-name="Uhungarumlaut" unicode="&#x170;" horiz-adv-x="707" 
d="M146 212q0 -54 16 -94t45 -66.5t68.5 -39t86.5 -12.5q49 0 90 12.5t70 39t45.5 66.5t16.5 95v472h-106v7h219v-7h-105v-471q0 -59 -18 -101t-49.5 -68.5t-73 -39t-89.5 -12.5q-69 0 -115.5 20t-74.5 53t-40 75t-12 85v459h-100v7h226v-7h-100v-473zM434 743l154 139h28
l-175 -139h-7zM274 743l154 139h28l-175 -139h-7z" />
    <glyph glyph-name="Umacron" unicode="&#x16a;" horiz-adv-x="707" 
d="M146 212q0 -54 16 -94t45 -66.5t68.5 -39t86.5 -12.5q49 0 90 12.5t70 39t45.5 66.5t16.5 95v472h-106v7h219v-7h-105v-471q0 -59 -18 -101t-49.5 -68.5t-73 -39t-89.5 -12.5q-69 0 -115.5 20t-74.5 53t-40 75t-12 85v459h-100v7h226v-7h-100v-473zM252 810v7h234v-7
h-234z" />
    <glyph glyph-name="Uogonek" unicode="&#x172;" horiz-adv-x="707" 
d="M146 212q0 -54 16 -94t45 -66.5t68.5 -39t86.5 -12.5q49 0 90 12.5t70 39t45.5 66.5t16.5 95v472h-106v7h219v-7h-105v-471q0 -59 -18 -101t-49.5 -68.5t-73 -39t-89.5 -12.5q-69 0 -115.5 20t-74.5 53t-40 75t-12 85v459h-100v7h226v-7h-100v-473zM238 -121
q0 20 11.5 37t31.5 32t46.5 27.5t56.5 24.5h13q-32 -13 -59.5 -26t-47.5 -27.5t-32 -31t-12 -36.5q0 -30 19.5 -48t51.5 -18q28 0 48.5 9.5t34.5 21.5l4 -6q-17 -15 -39 -23.5t-48 -8.5q-38 0 -58.5 20.5t-20.5 52.5z" />
    <glyph glyph-name="Uring" unicode="&#x16e;" horiz-adv-x="707" 
d="M146 212q0 -54 16 -94t45 -66.5t68.5 -39t86.5 -12.5q49 0 90 12.5t70 39t45.5 66.5t16.5 95v472h-106v7h219v-7h-105v-471q0 -59 -18 -101t-49.5 -68.5t-73 -39t-89.5 -12.5q-69 0 -115.5 20t-74.5 53t-40 75t-12 85v459h-100v7h226v-7h-100v-473zM380 745q12 0 24 4
t22 12t16.5 21.5t6.5 31.5t-6.5 31.5t-16.5 22.5t-22 13t-24 4t-24 -4t-22 -13t-16.5 -22.5t-6.5 -31.5t6.5 -31.5t16.5 -21.5t22 -12t24 -4zM380 892q32 0 54.5 -22t22.5 -56q0 -35 -22.5 -55.5t-54.5 -20.5t-54.5 20.5t-22.5 55.5q0 34 22.5 56t54.5 22z" />
    <glyph glyph-name="Utilde" unicode="&#x168;" horiz-adv-x="707" 
d="M146 212q0 -54 16 -94t45 -66.5t68.5 -39t86.5 -12.5q49 0 90 12.5t70 39t45.5 66.5t16.5 95v472h-106v7h219v-7h-105v-471q0 -59 -18 -101t-49.5 -68.5t-73 -39t-89.5 -12.5q-69 0 -115.5 20t-74.5 53t-40 75t-12 85v459h-100v7h226v-7h-100v-473zM296 839
q-20 0 -30.5 -12t-15.5 -32h-8q5 26 20 39t35 13q21 0 41.5 -8.5t40 -19t38.5 -19t38 -8.5q20 0 30.5 12t15.5 32h8q-5 -26 -20 -39t-35 -13q-19 0 -38.5 8.5t-40 19t-40.5 19t-39 8.5z" />
    <glyph glyph-name="uni1EE4" unicode="&#x1ee4;" horiz-adv-x="707" 
d="M146 212q0 -54 16 -94t45 -66.5t68.5 -39t86.5 -12.5q49 0 90 12.5t70 39t45.5 66.5t16.5 95v472h-106v7h219v-7h-105v-471q0 -59 -18 -101t-49.5 -68.5t-73 -39t-89.5 -12.5q-69 0 -115.5 20t-74.5 53t-40 75t-12 85v459h-100v7h226v-7h-100v-473zM333 -118
q0 9 6.5 15.5t15.5 6.5t15.5 -6.5t6.5 -15.5t-6.5 -15.5t-15.5 -6.5t-15.5 6.5t-6.5 15.5z" />
    <glyph glyph-name="Wacute" unicode="&#x1e82;" horiz-adv-x="930" 
d="M511 596q-7 38 -16.5 51.5t-26.5 13.5q-23 0 -33.5 -19t-15.5 -57l-69 -511q-6 -45 -22.5 -63t-37.5 -18q-29 0 -45 21t-24 61l-120 610h-86v7h212v-7h-98l119 -620q7 -37 15.5 -51t26.5 -14q25 0 36.5 22.5t16.5 60.5l68 504q6 47 21.5 64t37.5 17q29 0 45 -21.5
t23 -60.5l90 -521q6 -37 15.5 -51t26.5 -14q25 0 36 24t17 59l104 602h-85v7h173v-7h-79l-107 -611q-8 -44 -23 -62.5t-36 -18.5q-55 0 -69 82zM464 743l154 139h28l-175 -139h-7z" />
    <glyph glyph-name="Wcircumflex" unicode="&#x174;" horiz-adv-x="930" 
d="M511 596q-7 38 -16.5 51.5t-26.5 13.5q-23 0 -33.5 -19t-15.5 -57l-69 -511q-6 -45 -22.5 -63t-37.5 -18q-29 0 -45 21t-24 61l-120 610h-86v7h212v-7h-98l119 -620q7 -37 15.5 -51t26.5 -14q25 0 36.5 22.5t16.5 60.5l68 504q6 47 21.5 64t37.5 17q29 0 45 -21.5
t23 -60.5l90 -521q6 -37 15.5 -51t26.5 -14q25 0 36 24t17 59l104 602h-85v7h173v-7h-79l-107 -611q-8 -44 -23 -62.5t-36 -18.5q-55 0 -69 82zM481 882q3 -24 14.5 -45t27.5 -38.5t35.5 -30.5t38.5 -20l-3 -6q-14 4 -31 14t-33.5 24t-30.5 31.5t-22 37.5h-1
q-8 -20 -22 -37.5t-30.5 -31.5t-34 -24t-30.5 -14l-3 6q19 7 38.5 20t35.5 30.5t27.5 38.5t14.5 45h9z" />
    <glyph glyph-name="Wdieresis" unicode="&#x1e84;" horiz-adv-x="930" 
d="M511 596q-7 38 -16.5 51.5t-26.5 13.5q-23 0 -33.5 -19t-15.5 -57l-69 -511q-6 -45 -22.5 -63t-37.5 -18q-29 0 -45 21t-24 61l-120 610h-86v7h212v-7h-98l119 -620q7 -37 15.5 -51t26.5 -14q25 0 36.5 22.5t16.5 60.5l68 504q6 47 21.5 64t37.5 17q29 0 45 -21.5
t23 -60.5l90 -521q6 -37 15.5 -51t26.5 -14q25 0 36 24t17 59l104 602h-85v7h173v-7h-79l-107 -611q-8 -44 -23 -62.5t-36 -18.5q-55 0 -69 82zM360 817q0 9 6.5 15.5t15.5 6.5t15.5 -6.5t6.5 -15.5t-6.5 -15.5t-15.5 -6.5t-15.5 6.5t-6.5 15.5zM552 817q0 9 6.5 15.5
t15.5 6.5t15.5 -6.5t6.5 -15.5t-6.5 -15.5t-15.5 -6.5t-15.5 6.5t-6.5 15.5z" />
    <glyph glyph-name="Wgrave" unicode="&#x1e80;" horiz-adv-x="930" 
d="M511 596q-7 38 -16.5 51.5t-26.5 13.5q-23 0 -33.5 -19t-15.5 -57l-69 -511q-6 -45 -22.5 -63t-37.5 -18q-29 0 -45 21t-24 61l-120 610h-86v7h212v-7h-98l119 -620q7 -37 15.5 -51t26.5 -14q25 0 36.5 22.5t16.5 60.5l68 504q6 47 21.5 64t37.5 17q29 0 45 -21.5
t23 -60.5l90 -521q6 -37 15.5 -51t26.5 -14q25 0 36 24t17 59l104 602h-85v7h173v-7h-79l-107 -611q-8 -44 -23 -62.5t-36 -18.5q-55 0 -69 82zM304 882h28l154 -139h-7z" />
    <glyph glyph-name="Ycircumflex" unicode="&#x176;" horiz-adv-x="687" 
d="M581 685l-219 -377v-301h106v-7h-238v7h106v303l-230 375h-96v7h224v-7h-100l225 -366l212 366h-107v7h213v-7h-96zM367 882q3 -24 14.5 -45t27.5 -38.5t35.5 -30.5t38.5 -20l-3 -6q-14 4 -31 14t-33.5 24t-30.5 31.5t-22 37.5h-1q-8 -20 -22 -37.5t-30.5 -31.5t-34 -24
t-30.5 -14l-3 6q19 7 38.5 20t35.5 30.5t27.5 38.5t14.5 45h9z" />
    <glyph glyph-name="Ydieresis" unicode="&#x178;" horiz-adv-x="687" 
d="M581 685l-219 -377v-301h106v-7h-238v7h106v303l-230 375h-96v7h224v-7h-100l225 -366l212 366h-107v7h213v-7h-96zM239 817q0 9 6.5 15.5t15.5 6.5t15.5 -6.5t6.5 -15.5t-6.5 -15.5t-15.5 -6.5t-15.5 6.5t-6.5 15.5zM431 817q0 9 6.5 15.5t15.5 6.5t15.5 -6.5t6.5 -15.5
t-6.5 -15.5t-15.5 -6.5t-15.5 6.5t-6.5 15.5z" />
    <glyph glyph-name="Ygrave" unicode="&#x1ef2;" horiz-adv-x="687" 
d="M581 685l-219 -377v-301h106v-7h-238v7h106v303l-230 375h-96v7h224v-7h-100l225 -366l212 366h-107v7h213v-7h-96zM207 882h28l154 -139h-7z" />
    <glyph glyph-name="uni0232" unicode="&#x232;" horiz-adv-x="687" 
d="M581 685l-219 -377v-301h106v-7h-238v7h106v303l-230 375h-96v7h224v-7h-100l225 -366l212 366h-107v7h213v-7h-96zM227 810v7h234v-7h-234z" />
    <glyph glyph-name="Zacute" unicode="&#x179;" horiz-adv-x="616" 
d="M45 0l465 685h-401v-184h-7v191h444l-467 -685h451v198h7v-205h-492zM297 743l154 139h28l-175 -139h-7z" />
    <glyph glyph-name="Zcaron" unicode="&#x17d;" horiz-adv-x="616" 
d="M45 0l465 685h-401v-184h-7v191h444l-467 -685h451v198h7v-205h-492zM306 742q-3 24 -14.5 45t-27.5 38.5t-35.5 30.5t-38.5 20l3 6q13 -4 30.5 -14t34 -24t30.5 -32t22 -37h1q8 19 22 37t30.5 32t33.5 24t31 14l3 -6q-19 -7 -38.5 -20t-35.5 -30.5t-27.5 -38.5
t-14.5 -45h-9v0z" />
    <glyph glyph-name="Zdotaccent" unicode="&#x17b;" horiz-adv-x="616" 
d="M45 0l465 685h-401v-184h-7v191h444l-467 -685h451v198h7v-205h-492zM301 817q0 9 6.5 15.5t15.5 6.5t15.5 -6.5t6.5 -15.5t-6.5 -15.5t-15.5 -6.5t-15.5 6.5t-6.5 15.5z" />
    <glyph glyph-name="abreve" unicode="&#x103;" horiz-adv-x="450" 
d="M197 441q22 0 47 -5.5t46 -21.5t34.5 -43.5t13.5 -72.5v-237q0 -35 12 -46.5t28 -11.5q38 0 47 46l7 -2q-6 -28 -20.5 -39.5t-34.5 -11.5q-11 0 -22 4t-20.5 15.5t-15 32t-5.5 54.5h-1q-5 -21 -17 -41t-30.5 -35t-42.5 -24t-54 -9q-27 0 -50.5 7.5t-41.5 22t-28.5 34.5
t-10.5 44q0 35 19 57.5t54.5 37.5t86 26t114.5 23v63q0 39 -9.5 63.5t-25 38.5t-36.5 19t-45 5q-21 0 -43 -6t-40.5 -19t-31.5 -33t-15 -48h-9q3 28 16 49t32.5 35.5t43.5 21.5t48 7zM312 238q-60 -10 -105.5 -20t-76.5 -25t-46.5 -37t-15.5 -56q0 -47 26 -73.5t75 -26.5
q31 0 57.5 11t45.5 31t29.5 47.5t10.5 60.5v88zM197 543q49 0 78.5 27.5t32.5 93.5h8q-1 -28 -8 -51.5t-21 -40.5t-36.5 -26.5t-53.5 -9.5q-32 0 -54 9.5t-36 26.5t-21 40.5t-8 51.5h8q3 -66 32.5 -93.5t78.5 -27.5z" />
    <glyph glyph-name="amacron" unicode="&#x101;" horiz-adv-x="450" 
d="M197 441q22 0 47 -5.5t46 -21.5t34.5 -43.5t13.5 -72.5v-237q0 -35 12 -46.5t28 -11.5q38 0 47 46l7 -2q-6 -28 -20.5 -39.5t-34.5 -11.5q-11 0 -22 4t-20.5 15.5t-15 32t-5.5 54.5h-1q-5 -21 -17 -41t-30.5 -35t-42.5 -24t-54 -9q-27 0 -50.5 7.5t-41.5 22t-28.5 34.5
t-10.5 44q0 35 19 57.5t54.5 37.5t86 26t114.5 23v63q0 39 -9.5 63.5t-25 38.5t-36.5 19t-45 5q-21 0 -43 -6t-40.5 -19t-31.5 -33t-15 -48h-9q3 28 16 49t32.5 35.5t43.5 21.5t48 7zM312 238q-60 -10 -105.5 -20t-76.5 -25t-46.5 -37t-15.5 -56q0 -47 26 -73.5t75 -26.5
q31 0 57.5 11t45.5 31t29.5 47.5t10.5 60.5v88zM82 602v7h234v-7h-234z" />
    <glyph glyph-name="aogonek" unicode="&#x105;" horiz-adv-x="450" 
d="M197 441q22 0 47 -5.5t46 -21.5t34.5 -43.5t13.5 -72.5v-237q0 -35 12 -46.5t28 -11.5q38 0 47 46l7 -2q-6 -28 -20.5 -39.5t-34.5 -11.5q-11 0 -22 4t-20.5 15.5t-15 32t-5.5 54.5h-1q-5 -21 -17 -41t-30.5 -35t-42.5 -24t-54 -9q-27 0 -50.5 7.5t-41.5 22t-28.5 34.5
t-10.5 44q0 35 19 57.5t54.5 37.5t86 26t114.5 23v63q0 39 -9.5 63.5t-25 38.5t-36.5 19t-45 5q-21 0 -43 -6t-40.5 -19t-31.5 -33t-15 -48h-9q3 28 16 49t32.5 35.5t43.5 21.5t48 7zM312 238q-60 -10 -105.5 -20t-76.5 -25t-46.5 -37t-15.5 -56q0 -47 26 -73.5t75 -26.5
q31 0 57.5 11t45.5 31t29.5 47.5t10.5 60.5v88zM236 -121q0 20 11.5 37t31.5 32t46.5 27.5t56.5 24.5h13q-32 -13 -59.5 -26t-47.5 -27.5t-32 -31t-12 -36.5q0 -30 19.5 -48t51.5 -18q28 0 48.5 9.5t34.5 21.5l4 -6q-17 -15 -39 -23.5t-48 -8.5q-38 0 -58.5 20.5t-20.5 52.5
z" />
    <glyph glyph-name="cacute" unicode="&#x107;" horiz-adv-x="461" 
d="M85 216q0 -60 13.5 -101t36 -66.5t52 -37t60.5 -11.5q25 0 49.5 7.5t45.5 22.5t35.5 38.5t20.5 56.5h8q-5 -33 -20 -57.5t-36.5 -41t-48 -25t-54.5 -8.5q-42 0 -77.5 17.5t-61 47.5t-39.5 70.5t-14 87.5q0 46 14.5 87t40 71t61 47.5t76.5 17.5q28 0 54 -8t47 -24
t35.5 -41t20.5 -58h-8q-5 33 -19.5 56.5t-35 38.5t-45 22t-49.5 7q-30 0 -59 -11.5t-52 -37t-37 -66.5t-14 -101zM244 520l112 161h20l-125 -161h-7z" />
    <glyph glyph-name="ccaron" unicode="&#x10d;" horiz-adv-x="461" 
d="M85 216q0 -60 13.5 -101t36 -66.5t52 -37t60.5 -11.5q25 0 49.5 7.5t45.5 22.5t35.5 38.5t20.5 56.5h8q-5 -33 -20 -57.5t-36.5 -41t-48 -25t-54.5 -8.5q-42 0 -77.5 17.5t-61 47.5t-39.5 70.5t-14 87.5q0 46 14.5 87t40 71t61 47.5t76.5 17.5q28 0 54 -8t47 -24
t35.5 -41t20.5 -58h-8q-5 33 -19.5 56.5t-35 38.5t-45 22t-49.5 7q-30 0 -59 -11.5t-52 -37t-37 -66.5t-14 -101zM236 518q-5 24 -15 47.5t-24.5 44.5t-31.5 37.5t-35 27.5l2 6q13 -8 29 -21t31 -30t27.5 -37t20.5 -41h1q8 21 20.5 41t27.5 37t30.5 30t29.5 21l2 -6
q-18 -11 -35 -27.5t-31.5 -37.5t-24.5 -44.5t-15 -47.5h-9z" />
    <glyph glyph-name="ccircumflex" unicode="&#x109;" horiz-adv-x="461" 
d="M85 216q0 -60 13.5 -101t36 -66.5t52 -37t60.5 -11.5q25 0 49.5 7.5t45.5 22.5t35.5 38.5t20.5 56.5h8q-5 -33 -20 -57.5t-36.5 -41t-48 -25t-54.5 -8.5q-42 0 -77.5 17.5t-61 47.5t-39.5 70.5t-14 87.5q0 46 14.5 87t40 71t61 47.5t76.5 17.5q28 0 54 -8t47 -24
t35.5 -41t20.5 -58h-8q-5 33 -19.5 56.5t-35 38.5t-45 22t-49.5 7q-30 0 -59 -11.5t-52 -37t-37 -66.5t-14 -101zM247 681q5 -24 15 -47.5t24.5 -44.5t31.5 -38t35 -27l-2 -6q-14 8 -29.5 21t-30.5 30t-27.5 37t-20.5 41h-1q-8 -21 -20.5 -41t-27.5 -37t-31 -30t-29 -21
l-2 6q18 10 35 27t31.5 38t24.5 44.5t15 47.5h9z" />
    <glyph glyph-name="cdotaccent" unicode="&#x10b;" horiz-adv-x="461" 
d="M85 216q0 -60 13.5 -101t36 -66.5t52 -37t60.5 -11.5q25 0 49.5 7.5t45.5 22.5t35.5 38.5t20.5 56.5h8q-5 -33 -20 -57.5t-36.5 -41t-48 -25t-54.5 -8.5q-42 0 -77.5 17.5t-61 47.5t-39.5 70.5t-14 87.5q0 46 14.5 87t40 71t61 47.5t76.5 17.5q28 0 54 -8t47 -24
t35.5 -41t20.5 -58h-8q-5 33 -19.5 56.5t-35 38.5t-45 22t-49.5 7q-30 0 -59 -11.5t-52 -37t-37 -66.5t-14 -101zM218 627q0 9 6.5 15.5t15.5 6.5t15.5 -6.5t6.5 -15.5t-6.5 -15.5t-15.5 -6.5t-15.5 6.5t-6.5 15.5z" />
    <glyph glyph-name="dcaron" unicode="&#x10f;" horiz-adv-x="534" 
d="M390 291q-1 8 -1.5 31t-0.5 47v335h-98v7h124v-704h82v-7h-108v71v18t0.5 20t1 18t0.5 12h-1q-7 -29 -20 -55.5t-32.5 -47t-45 -33t-55.5 -12.5q-39 0 -72 17.5t-57 48t-38 71.5t-14 87t14 87t38 71.5t57 48t72 17.5q30 0 55.5 -12.5t45 -33t32.5 -47.5t20 -55h1z
M392 215q0 38 -10.5 76.5t-30 70t-49 51t-66.5 19.5q-27 0 -54 -11.5t-48.5 -37.5t-35 -67.5t-13.5 -100.5t13.5 -100.5t35 -67.5t48.5 -37.5t54 -11.5q37 0 66.5 19.5t49 51t30 70t10.5 76.5zM489 719q29 0 37 -34.5t-17 -90.5q-10 -23 -25 -45t-31 -38l-5 5
q13 13 27.5 34.5t25.5 44.5q7 15 11 30t5.5 27t-0.5 19.5t-8 7.5q-10 0 -13.5 -3.5t-11.5 -3.5q-9 0 -15.5 6t-6.5 17t8 17.5t19 6.5z" />
    <glyph glyph-name="dcroat" unicode="&#x111;" horiz-adv-x="531" 
d="M390 291q-1 8 -1.5 31t-0.5 47v181h-113v7h113v147h-98v7h124v-154h82v-7h-82v-543h82v-7h-108v71v18t0.5 20t1 18t0.5 12h-1q-7 -29 -20 -55.5t-32.5 -47t-45 -33t-55.5 -12.5q-39 0 -72 17.5t-57 48t-38 71.5t-14 87t14 87t38 71.5t57 48t72 17.5q30 0 55.5 -12.5
t45 -33t32.5 -47.5t20 -55h1zM392 215q0 38 -10.5 76.5t-30 70t-49 51t-66.5 19.5q-27 0 -54 -11.5t-48.5 -37.5t-35 -67.5t-13.5 -100.5t13.5 -100.5t35 -67.5t48.5 -37.5t54 -11.5q37 0 66.5 19.5t49 51t30 70t10.5 76.5z" />
    <glyph glyph-name="ebreve" unicode="&#x115;" horiz-adv-x="468" 
d="M86 243q-1 -7 -1 -13.5v-14.5q0 -60 13 -101t35.5 -66.5t52.5 -36.5t63 -11q24 0 48 7t45 22.5t37.5 40.5t24.5 62l8 -2q-8 -37 -25 -63t-39 -42.5t-47.5 -24t-51.5 -7.5q-44 0 -80 17t-61.5 47t-39 70.5t-13.5 87.5t14.5 87.5t40 70.5t60 47t75.5 17q31 0 61.5 -11.5
t54.5 -35.5t38.5 -60.5t13.5 -86.5h-327zM245 430q-27 0 -54 -9.5t-49 -31t-37 -56t-19 -84.5h300q1 54 -12 89.5t-34 55.5t-46 28t-49 8zM242 543q49 0 78.5 27.5t32.5 93.5h8q-1 -28 -8 -51.5t-21 -40.5t-36.5 -26.5t-53.5 -9.5q-32 0 -54 9.5t-36 26.5t-21 40.5t-8 51.5
h8q3 -66 32.5 -93.5t78.5 -27.5z" />
    <glyph glyph-name="ecaron" unicode="&#x11b;" horiz-adv-x="468" 
d="M86 243q-1 -7 -1 -13.5v-14.5q0 -60 13 -101t35.5 -66.5t52.5 -36.5t63 -11q24 0 48 7t45 22.5t37.5 40.5t24.5 62l8 -2q-8 -37 -25 -63t-39 -42.5t-47.5 -24t-51.5 -7.5q-44 0 -80 17t-61.5 47t-39 70.5t-13.5 87.5t14.5 87.5t40 70.5t60 47t75.5 17q31 0 61.5 -11.5
t54.5 -35.5t38.5 -60.5t13.5 -86.5h-327zM245 430q-27 0 -54 -9.5t-49 -31t-37 -56t-19 -84.5h300q1 54 -12 89.5t-34 55.5t-46 28t-49 8zM238 518q-5 24 -15 47.5t-24.5 44.5t-31.5 37.5t-35 27.5l2 6q13 -8 29 -21t31 -30t27.5 -37t20.5 -41h1q8 21 20.5 41t27.5 37
t30.5 30t29.5 21l2 -6q-18 -11 -35 -27.5t-31.5 -37.5t-24.5 -44.5t-15 -47.5h-9z" />
    <glyph glyph-name="emacron" unicode="&#x113;" horiz-adv-x="468" 
d="M86 243q-1 -7 -1 -13.5v-14.5q0 -60 13 -101t35.5 -66.5t52.5 -36.5t63 -11q24 0 48 7t45 22.5t37.5 40.5t24.5 62l8 -2q-8 -37 -25 -63t-39 -42.5t-47.5 -24t-51.5 -7.5q-44 0 -80 17t-61.5 47t-39 70.5t-13.5 87.5t14.5 87.5t40 70.5t60 47t75.5 17q31 0 61.5 -11.5
t54.5 -35.5t38.5 -60.5t13.5 -86.5h-327zM245 430q-27 0 -54 -9.5t-49 -31t-37 -56t-19 -84.5h300q1 54 -12 89.5t-34 55.5t-46 28t-49 8zM133 602v7h234v-7h-234z" />
    <glyph glyph-name="eogonek" unicode="&#x119;" horiz-adv-x="468" 
d="M86 243q-1 -7 -1 -13.5v-14.5q0 -60 13 -101t35.5 -66.5t52.5 -36.5t63 -11q24 0 48 7t45 22.5t37.5 40.5t24.5 62l8 -2q-8 -37 -25 -63t-39 -42.5t-47.5 -24t-51.5 -7.5q-44 0 -80 17t-61.5 47t-39 70.5t-13.5 87.5t14.5 87.5t40 70.5t60 47t75.5 17q31 0 61.5 -11.5
t54.5 -35.5t38.5 -60.5t13.5 -86.5h-327zM245 430q-27 0 -54 -9.5t-49 -31t-37 -56t-19 -84.5h300q1 54 -12 89.5t-34 55.5t-46 28t-49 8zM139 -121q0 20 11.5 37t31.5 32t46.5 27.5t56.5 24.5h13q-32 -13 -59.5 -26t-47.5 -27.5t-32 -31t-12 -36.5q0 -30 19.5 -48t51.5 -18
q28 0 48.5 9.5t34.5 21.5l4 -6q-17 -15 -39 -23.5t-48 -8.5q-38 0 -58.5 20.5t-20.5 52.5z" />
    <glyph glyph-name="edotaccent" unicode="&#x117;" horiz-adv-x="468" 
d="M86 243q-1 -7 -1 -13.5v-14.5q0 -60 13 -101t35.5 -66.5t52.5 -36.5t63 -11q24 0 48 7t45 22.5t37.5 40.5t24.5 62l8 -2q-8 -37 -25 -63t-39 -42.5t-47.5 -24t-51.5 -7.5q-44 0 -80 17t-61.5 47t-39 70.5t-13.5 87.5t14.5 87.5t40 70.5t60 47t75.5 17q31 0 61.5 -11.5
t54.5 -35.5t38.5 -60.5t13.5 -86.5h-327zM245 430q-27 0 -54 -9.5t-49 -31t-37 -56t-19 -84.5h300q1 54 -12 89.5t-34 55.5t-46 28t-49 8zM221 627q0 9 6.5 15.5t15.5 6.5t15.5 -6.5t6.5 -15.5t-6.5 -15.5t-15.5 -6.5t-15.5 6.5t-6.5 15.5z" />
    <glyph glyph-name="gbreve" unicode="&#x11f;" horiz-adv-x="478" 
d="M282 423q44 -19 72.5 -57.5t28.5 -87.5q0 -53 -29.5 -92t-78.5 -56v-1q47 2 73.5 -10t26.5 -33q0 -9 -4.5 -17t-15.5 -15t-29.5 -10.5t-46.5 -3.5l-1 -1q25 -1 52 -9.5t48.5 -24.5t35.5 -40.5t14 -57.5q0 -35 -17 -63.5t-45.5 -49t-66.5 -31.5t-81 -11t-80.5 11t-65 31.5
t-43.5 49t-16 63.5q0 27 10 50.5t26.5 41.5t37.5 30t44 17l1 -6q-20 -5 -40 -16t-36 -28t-25.5 -39.5t-9.5 -49.5q0 -34 15.5 -61t42 -46.5t62.5 -30t77 -10.5q37 0 70 8t57.5 26t38.5 46t14 68q0 42 -15 67.5t-36.5 39t-46.5 18t-45 4.5h-8l3 6h10q16 0 32 1t29 5
t21.5 12.5t8.5 24.5q0 13 -7 21t-17.5 12t-23 5t-24.5 1h-18q-9 -2 -22 -3.5t-23 -1.5q-33 0 -63 12.5t-53.5 34t-37 50.5t-13.5 62t13.5 62t37 50.5t53.5 34t63 12.5q12 0 24 -2t24 -5h204v-7h-186zM79 278q0 -41 11.5 -70t30.5 -47.5t43.5 -27t51.5 -8.5t51.5 8.5t43.5 27
t30.5 47.5t11.5 70t-11.5 70t-30.5 47.5t-43.5 27t-51.5 8.5t-51.5 -8.5t-43.5 -27t-30.5 -47.5t-11.5 -70zM221 543q49 0 78.5 27.5t32.5 93.5h8q-1 -28 -8 -51.5t-21 -40.5t-36.5 -26.5t-53.5 -9.5q-32 0 -54 9.5t-36 26.5t-21 40.5t-8 51.5h8q3 -66 32.5 -93.5
t78.5 -27.5z" />
    <glyph glyph-name="gcircumflex" unicode="&#x11d;" horiz-adv-x="478" 
d="M282 423q44 -19 72.5 -57.5t28.5 -87.5q0 -53 -29.5 -92t-78.5 -56v-1q47 2 73.5 -10t26.5 -33q0 -9 -4.5 -17t-15.5 -15t-29.5 -10.5t-46.5 -3.5l-1 -1q25 -1 52 -9.5t48.5 -24.5t35.5 -40.5t14 -57.5q0 -35 -17 -63.5t-45.5 -49t-66.5 -31.5t-81 -11t-80.5 11t-65 31.5
t-43.5 49t-16 63.5q0 27 10 50.5t26.5 41.5t37.5 30t44 17l1 -6q-20 -5 -40 -16t-36 -28t-25.5 -39.5t-9.5 -49.5q0 -34 15.5 -61t42 -46.5t62.5 -30t77 -10.5q37 0 70 8t57.5 26t38.5 46t14 68q0 42 -15 67.5t-36.5 39t-46.5 18t-45 4.5h-8l3 6h10q16 0 32 1t29 5
t21.5 12.5t8.5 24.5q0 13 -7 21t-17.5 12t-23 5t-24.5 1h-18q-9 -2 -22 -3.5t-23 -1.5q-33 0 -63 12.5t-53.5 34t-37 50.5t-13.5 62t13.5 62t37 50.5t53.5 34t63 12.5q12 0 24 -2t24 -5h204v-7h-186zM79 278q0 -41 11.5 -70t30.5 -47.5t43.5 -27t51.5 -8.5t51.5 8.5t43.5 27
t30.5 47.5t11.5 70t-11.5 70t-30.5 47.5t-43.5 27t-51.5 8.5t-51.5 -8.5t-43.5 -27t-30.5 -47.5t-11.5 -70zM227 681q5 -24 15 -47.5t24.5 -44.5t31.5 -38t35 -27l-2 -6q-14 8 -29.5 21t-30.5 30t-27.5 37t-20.5 41h-1q-8 -21 -20.5 -41t-27.5 -37t-31 -30t-29 -21l-2 6
q18 10 35 27t31.5 38t24.5 44.5t15 47.5h9z" />
    <glyph glyph-name="gcommaaccent" unicode="&#x123;" horiz-adv-x="478" 
d="M217 514q-22 0 -31 15.5t-9 33.5q0 14 4.5 35t15.5 44t25.5 45t30.5 38l5 -5q-13 -13 -27.5 -34.5t-25.5 -44.5q-7 -15 -11 -30t-4.5 -26t2.5 -18t11 -7q5 0 8 4.5t11 4.5q11 0 18 -8.5t7 -19.5t-8 -19t-22 -8zM282 423q44 -19 72.5 -57.5t28.5 -87.5q0 -53 -29.5 -92
t-78.5 -56v-1q47 2 73.5 -10t26.5 -33q0 -9 -4.5 -17t-15.5 -15t-29.5 -10.5t-46.5 -3.5l-1 -1q25 -1 52 -9.5t48.5 -24.5t35.5 -40.5t14 -57.5q0 -35 -17 -63.5t-45.5 -49t-66.5 -31.5t-81 -11t-80.5 11t-65 31.5t-43.5 49t-16 63.5q0 27 10 50.5t26.5 41.5t37.5 30t44 17
l1 -6q-20 -5 -40 -16t-36 -28t-25.5 -39.5t-9.5 -49.5q0 -34 15.5 -61t42 -46.5t62.5 -30t77 -10.5q37 0 70 8t57.5 26t38.5 46t14 68q0 42 -15 67.5t-36.5 39t-46.5 18t-45 4.5h-8l3 6h10q16 0 32 1t29 5t21.5 12.5t8.5 24.5q0 13 -7 21t-17.5 12t-23 5t-24.5 1h-18
q-9 -2 -22 -3.5t-23 -1.5q-33 0 -63 12.5t-53.5 34t-37 50.5t-13.5 62t13.5 62t37 50.5t53.5 34t63 12.5q12 0 24 -2t24 -5h204v-7h-186zM79 278q0 -41 11.5 -70t30.5 -47.5t43.5 -27t51.5 -8.5t51.5 8.5t43.5 27t30.5 47.5t11.5 70t-11.5 70t-30.5 47.5t-43.5 27t-51.5 8.5
t-51.5 -8.5t-43.5 -27t-30.5 -47.5t-11.5 -70z" />
    <glyph glyph-name="gdotaccent" unicode="&#x121;" horiz-adv-x="478" 
d="M282 423q44 -19 72.5 -57.5t28.5 -87.5q0 -53 -29.5 -92t-78.5 -56v-1q47 2 73.5 -10t26.5 -33q0 -9 -4.5 -17t-15.5 -15t-29.5 -10.5t-46.5 -3.5l-1 -1q25 -1 52 -9.5t48.5 -24.5t35.5 -40.5t14 -57.5q0 -35 -17 -63.5t-45.5 -49t-66.5 -31.5t-81 -11t-80.5 11t-65 31.5
t-43.5 49t-16 63.5q0 27 10 50.5t26.5 41.5t37.5 30t44 17l1 -6q-20 -5 -40 -16t-36 -28t-25.5 -39.5t-9.5 -49.5q0 -34 15.5 -61t42 -46.5t62.5 -30t77 -10.5q37 0 70 8t57.5 26t38.5 46t14 68q0 42 -15 67.5t-36.5 39t-46.5 18t-45 4.5h-8l3 6h10q16 0 32 1t29 5
t21.5 12.5t8.5 24.5q0 13 -7 21t-17.5 12t-23 5t-24.5 1h-18q-9 -2 -22 -3.5t-23 -1.5q-33 0 -63 12.5t-53.5 34t-37 50.5t-13.5 62t13.5 62t37 50.5t53.5 34t63 12.5q12 0 24 -2t24 -5h204v-7h-186zM79 278q0 -41 11.5 -70t30.5 -47.5t43.5 -27t51.5 -8.5t51.5 8.5t43.5 27
t30.5 47.5t11.5 70t-11.5 70t-30.5 47.5t-43.5 27t-51.5 8.5t-51.5 -8.5t-43.5 -27t-30.5 -47.5t-11.5 -70zM194 627q0 9 6.5 15.5t15.5 6.5t15.5 -6.5t6.5 -15.5t-6.5 -15.5t-15.5 -6.5t-15.5 6.5t-6.5 15.5z" />
    <glyph glyph-name="hbar" unicode="&#x127;" horiz-adv-x="510" 
d="M128 7h82v-7h-190v7h82v543h-82v7h82v147h-80v7h106v-154h113v-7h-113v-201q0 -24 -0.5 -39t-1.5 -23h1q4 19 15 45t29.5 49.5t45 39.5t62.5 16q24 0 47 -7.5t41 -24.5t29.5 -44t11.5 -67v-287h82v-7h-190v7h82v283q0 76 -28.5 108t-74.5 32q-40 0 -68.5 -21.5t-47 -52
t-27 -63t-8.5 -54.5v-232z" />
    <glyph glyph-name="hcircumflex" unicode="&#x125;" horiz-adv-x="510" 
d="M128 7h82v-7h-190v7h82v697h-80v7h106v-362q0 -24 -0.5 -39t-1.5 -23h1q4 19 15 45t29.5 49.5t45 39.5t62.5 16q24 0 47 -7.5t41 -24.5t29.5 -44t11.5 -67v-287h82v-7h-190v7h82v283q0 76 -28.5 108t-74.5 32q-40 0 -68.5 -21.5t-47 -52t-27 -63t-8.5 -54.5v-232z
M105 882q3 -24 14.5 -45t27.5 -38.5t35.5 -30.5t38.5 -20l-3 -6q-14 4 -31 14t-33.5 24t-30.5 31.5t-22 37.5h-1q-8 -20 -22 -37.5t-30.5 -31.5t-34 -24t-30.5 -14l-3 6q19 7 38.5 20t35.5 30.5t27.5 38.5t14.5 45h9z" />
    <glyph glyph-name="dotlessi" unicode="&#x131;" 
d="M128 7h82v-7h-190v7h82v416h-80v7h106v-423z" />
    <glyph glyph-name="ibreve" unicode="&#x12d;" 
d="M114 543q49 0 78.5 27.5t32.5 93.5h8q-1 -28 -8 -51.5t-21 -40.5t-36.5 -26.5t-53.5 -9.5q-32 0 -54 9.5t-36 26.5t-21 40.5t-8 51.5h8q3 -66 32.5 -93.5t78.5 -27.5zM128 7h82v-7h-190v7h82v416h-80v7h106v-423z" />
    <glyph glyph-name="imacron" unicode="&#x12b;" 
d="M-13 602v7h234v-7h-234zM128 7h82v-7h-190v7h82v416h-80v7h106v-423z" />
    <glyph glyph-name="iogonek" unicode="&#x12f;" 
d="M91 647q0 9 6.5 15.5t15.5 6.5t15.5 -6.5t6.5 -15.5t-6.5 -15.5t-15.5 -6.5t-15.5 6.5t-6.5 15.5zM128 7h82v-7h-190v7h82v416h-80v7h106v-423zM-36 -121q0 20 11.5 37t31.5 32t46.5 27.5t56.5 24.5h13q-32 -13 -59.5 -26t-47.5 -27.5t-32 -31t-12 -36.5q0 -30 19.5 -48
t51.5 -18q28 0 48.5 9.5t34.5 21.5l4 -6q-17 -15 -39 -23.5t-48 -8.5q-38 0 -58.5 20.5t-20.5 52.5z" />
    <glyph glyph-name="itilde" unicode="&#x129;" 
d="M26 626q-20 0 -30.5 -12t-15.5 -32h-8q5 26 20 39t35 13q21 0 41.5 -8.5t40 -19t38.5 -19t38 -8.5q20 0 30.5 12t15.5 32h8q-5 -26 -20 -39t-35 -13q-19 0 -38.5 8.5t-40 19t-40.5 19t-39 8.5zM128 7h82v-7h-190v7h82v416h-80v7h106v-423z" />
    <glyph glyph-name="uni1ECB" unicode="&#x1ecb;" 
d="M128 7h82v-7h-190v7h82v416h-80v7h106v-423zM91 647q0 9 6.5 15.5t15.5 6.5t15.5 -6.5t6.5 -15.5t-6.5 -15.5t-15.5 -6.5t-15.5 6.5t-6.5 15.5zM93 -118q0 9 6.5 15.5t15.5 6.5t15.5 -6.5t6.5 -15.5t-6.5 -15.5t-15.5 -6.5t-15.5 6.5t-6.5 15.5z" />
    <glyph glyph-name="dotlessj" unicode="&#x237;" horiz-adv-x="244" 
d="M-40 -240v103h8v-96q37 0 63.5 8t43 28.5t24 54.5t7.5 86v479h-103v7h129v-482q0 -55 -12 -91t-34 -57.5t-52 -30.5t-66 -9h-8z" />
    <glyph glyph-name="jcircumflex" unicode="&#x135;" horiz-adv-x="244" 
d="M119 681q5 -24 15 -47.5t24.5 -44.5t31.5 -38t35 -27l-2 -6q-14 8 -29.5 21t-30.5 30t-27.5 37t-20.5 41h-1q-8 -21 -20.5 -41t-27.5 -37t-31 -30t-29 -21l-2 6q18 10 35 27t31.5 38t24.5 44.5t15 47.5h9zM-40 -240v103h8v-96q37 0 63.5 8t43 28.5t24 54.5t7.5 86v479
h-103v7h129v-482q0 -55 -12 -91t-34 -57.5t-52 -30.5t-66 -9h-8z" />
    <glyph glyph-name="kcommaaccent" unicode="&#x137;" horiz-adv-x="523" 
d="M128 237v-230h82v-7h-190v7h82v697h-80v7h106v-467h92q12 0 24 1.5t24 7t24 17t23 31.5l69 122h-78v7h166v-7h-79l-75 -131q-11 -20 -27 -33.5t-38 -16.5v-1q24 -2 40.5 -11.5t34.5 -41.5l105 -181h80v-7h-186v7h77l-106 185q-11 20 -27.5 32.5t-51.5 12.5h-91zM229 -99
q29 0 37 -34.5t-17 -90.5q-10 -23 -25 -45t-31 -38l-5 5q13 13 27.5 34.5t25.5 44.5q7 15 11 30t5.5 27t-0.5 19.5t-8 7.5q-10 0 -13.5 -3.5t-11.5 -3.5q-9 0 -15.5 6t-6.5 17t8 17.5t19 6.5z" />
    <glyph glyph-name="lacute" unicode="&#x13a;" 
d="M100 743l154 139h28l-175 -139h-7zM128 7h82v-7h-190v7h82v697h-80v7h106v-704z" />
    <glyph glyph-name="lcaron" unicode="&#x13e;" horiz-adv-x="248" 
d="M203 719q29 0 37 -34.5t-17 -90.5q-10 -23 -25 -45t-31 -38l-5 5q13 13 27.5 34.5t25.5 44.5q7 15 11 30t5.5 27t-0.5 19.5t-8 7.5q-10 0 -13.5 -3.5t-11.5 -3.5q-9 0 -15.5 6t-6.5 17t8 17.5t19 6.5zM128 7h82v-7h-190v7h82v697h-80v7h106v-704z" />
    <glyph glyph-name="lcommaaccent" unicode="&#x13c;" 
d="M108 -99q29 0 37 -34.5t-17 -90.5q-10 -23 -25 -45t-31 -38l-5 5q13 13 27.5 34.5t25.5 44.5q7 15 11 30t5.5 27t-0.5 19.5t-8 7.5q-10 0 -13.5 -3.5t-11.5 -3.5q-9 0 -15.5 6t-6.5 17t8 17.5t19 6.5zM128 7h82v-7h-190v7h82v697h-80v7h106v-704z" />
    <glyph glyph-name="ldot" unicode="&#x140;" horiz-adv-x="235" 
d="M210 359q0 9 6.5 15.5t15.5 6.5t15.5 -6.5t6.5 -15.5t-6.5 -15.5t-15.5 -6.5t-15.5 6.5t-6.5 15.5zM128 7h82v-7h-190v7h82v697h-80v7h106v-704z" />
    <glyph glyph-name="lslash" unicode="&#x142;" 
d="M128 363l92 45l3 -7l-95 -46v-348h82v-7h-190v7h82v335l-80 -38l-3 6l83 40v354h-80v7h106v-348z" />
    <glyph glyph-name="nacute" unicode="&#x144;" horiz-adv-x="500" 
d="M128 7h82v-7h-190v7h82v416h-80v7h106v-81q0 -24 -0.5 -39t-1.5 -23h1q4 19 15 45t29.5 49.5t45 39.5t62.5 16q24 0 47 -7.5t41 -24.5t29.5 -44t11.5 -67v-287h82v-7h-190v7h82v283q0 76 -28.5 108t-74.5 32q-40 0 -68.5 -21.5t-47 -52t-27 -63t-8.5 -54.5v-232zM266 520
l112 161h20l-125 -161h-7z" />
    <glyph glyph-name="ncaron" unicode="&#x148;" horiz-adv-x="500" 
d="M128 7h82v-7h-190v7h82v416h-80v7h106v-81q0 -24 -0.5 -39t-1.5 -23h1q4 19 15 45t29.5 49.5t45 39.5t62.5 16q24 0 47 -7.5t41 -24.5t29.5 -44t11.5 -67v-287h82v-7h-190v7h82v283q0 76 -28.5 108t-74.5 32q-40 0 -68.5 -21.5t-47 -52t-27 -63t-8.5 -54.5v-232zM259 518
q-5 24 -15 47.5t-24.5 44.5t-31.5 37.5t-35 27.5l2 6q13 -8 29 -21t31 -30t27.5 -37t20.5 -41h1q8 21 20.5 41t27.5 37t30.5 30t29.5 21l2 -6q-18 -11 -35 -27.5t-31.5 -37.5t-24.5 -44.5t-15 -47.5h-9z" />
    <glyph glyph-name="ncommaaccent" unicode="&#x146;" horiz-adv-x="500" 
d="M128 7h82v-7h-190v7h82v416h-80v7h106v-81q0 -24 -0.5 -39t-1.5 -23h1q4 19 15 45t29.5 49.5t45 39.5t62.5 16q24 0 47 -7.5t41 -24.5t29.5 -44t11.5 -67v-287h82v-7h-190v7h82v283q0 76 -28.5 108t-74.5 32q-40 0 -68.5 -21.5t-47 -52t-27 -63t-8.5 -54.5v-232zM244 -99
q29 0 37 -34.5t-17 -90.5q-10 -23 -25 -45t-31 -38l-5 5q13 13 27.5 34.5t25.5 44.5q7 15 11 30t5.5 27t-0.5 19.5t-8 7.5q-10 0 -13.5 -3.5t-11.5 -3.5q-9 0 -15.5 6t-6.5 17t8 17.5t19 6.5z" />
    <glyph glyph-name="oe" unicode="&#x153;" horiz-adv-x="809" 
d="M242 439q31 0 58.5 -11t49 -30t37.5 -45t25 -57q19 63 65 102t109 39q31 0 61.5 -11.5t54.5 -35.5t38.5 -60.5t13.5 -86.5h-327q-1 -7 -1 -13.5v-14.5q0 -60 13 -101t35.5 -66.5t52.5 -36.5t63 -11q24 0 48 7t45 22.5t37.5 40.5t24.5 62l8 -2q-8 -37 -25 -63t-39 -42.5
t-47.5 -24t-51.5 -7.5q-69 0 -114.5 39t-63.5 102q-19 -62 -63 -101.5t-107 -39.5q-42 0 -76 18t-59 48.5t-38.5 71t-13.5 85.5t13.5 85.5t38.5 71t59.5 48.5t75.5 18zM242 432q-31 0 -59.5 -11.5t-50 -37t-34.5 -66.5t-13 -101t13 -101t34.5 -66.5t50 -37t59.5 -11.5
t59.5 11.5t50 37t34.5 66.5t13 101t-13 101t-35 66.5t-50 37t-59 11.5zM586 430q-27 0 -54 -9.5t-49 -31t-37 -56t-19 -84.5h300q1 54 -12 89.5t-34 55.5t-46 28t-49 8z" />
    <glyph glyph-name="obreve" unicode="&#x14f;" horiz-adv-x="484" 
d="M242 432q-31 0 -59.5 -11.5t-50 -37t-34.5 -66.5t-13 -101t13 -101t34.5 -66.5t50 -37t59.5 -11.5t59.5 11.5t50 37t34.5 66.5t13 101t-13 101t-35 66.5t-50 37t-59 11.5zM242 439q41 0 75.5 -18t59 -48.5t38.5 -71t14 -85.5t-13.5 -85.5t-38.5 -71t-59 -48.5t-76 -18
t-76 18t-59 48.5t-38.5 71t-13.5 85.5t13.5 85.5t38.5 71t59.5 48.5t75.5 18zM242 543q49 0 78.5 27.5t32.5 93.5h8q-1 -28 -8 -51.5t-21 -40.5t-36.5 -26.5t-53.5 -9.5q-32 0 -54 9.5t-36 26.5t-21 40.5t-8 51.5h8q3 -66 32.5 -93.5t78.5 -27.5z" />
    <glyph glyph-name="ohungarumlaut" unicode="&#x151;" horiz-adv-x="484" 
d="M242 432q-31 0 -59.5 -11.5t-50 -37t-34.5 -66.5t-13 -101t13 -101t34.5 -66.5t50 -37t59.5 -11.5t59.5 11.5t50 37t34.5 66.5t13 101t-13 101t-35 66.5t-50 37t-59 11.5zM242 439q41 0 75.5 -18t59 -48.5t38.5 -71t14 -85.5t-13.5 -85.5t-38.5 -71t-59 -48.5t-76 -18
t-76 18t-59 48.5t-38.5 71t-13.5 85.5t13.5 85.5t38.5 71t59.5 48.5t75.5 18zM303 520l112 161h20l-125 -161h-7zM171 520l112 161h20l-125 -161h-7z" />
    <glyph glyph-name="omacron" unicode="&#x14d;" horiz-adv-x="484" 
d="M242 432q-31 0 -59.5 -11.5t-50 -37t-34.5 -66.5t-13 -101t13 -101t34.5 -66.5t50 -37t59.5 -11.5t59.5 11.5t50 37t34.5 66.5t13 101t-13 101t-35 66.5t-50 37t-59 11.5zM242 439q41 0 75.5 -18t59 -48.5t38.5 -71t14 -85.5t-13.5 -85.5t-38.5 -71t-59 -48.5t-76 -18
t-76 18t-59 48.5t-38.5 71t-13.5 85.5t13.5 85.5t38.5 71t59.5 48.5t75.5 18zM125 602v7h234v-7h-234z" />
    <glyph glyph-name="uni1ECD" unicode="&#x1ecd;" horiz-adv-x="484" 
d="M242 432q-31 0 -59.5 -11.5t-50 -37t-34.5 -66.5t-13 -101t13 -101t34.5 -66.5t50 -37t59.5 -11.5t59.5 11.5t50 37t34.5 66.5t13 101t-13 101t-35 66.5t-50 37t-59 11.5zM242 439q41 0 75.5 -18t59 -48.5t38.5 -71t14 -85.5t-13.5 -85.5t-38.5 -71t-59 -48.5t-76 -18
t-76 18t-59 48.5t-38.5 71t-13.5 85.5t13.5 85.5t38.5 71t59.5 48.5t75.5 18zM220 -118q0 9 6.5 15.5t15.5 6.5t15.5 -6.5t6.5 -15.5t-6.5 -15.5t-15.5 -6.5t-15.5 6.5t-6.5 15.5z" />
    <glyph glyph-name="racute" unicode="&#x155;" horiz-adv-x="331" 
d="M127 285q4 27 15 53t31.5 46.5t53.5 33t83 12.5h16v-7h-18q-94 0 -137 -52t-43 -143v-221h103v-7h-211v7h82v416h-80v7h106v-83q0 -24 -0.5 -39t-1.5 -23h1v0zM197 520l112 161h20l-125 -161h-7z" />
    <glyph glyph-name="rcaron" unicode="&#x159;" horiz-adv-x="331" 
d="M127 285q4 27 15 53t31.5 46.5t53.5 33t83 12.5h16v-7h-18q-94 0 -137 -52t-43 -143v-221h103v-7h-211v7h82v416h-80v7h106v-83q0 -24 -0.5 -39t-1.5 -23h1v0zM187 518q-5 24 -15 47.5t-24.5 44.5t-31.5 37.5t-35 27.5l2 6q13 -8 29 -21t31 -30t27.5 -37t20.5 -41h1
q8 21 20.5 41t27.5 37t30.5 30t29.5 21l2 -6q-18 -11 -35 -27.5t-31.5 -37.5t-24.5 -44.5t-15 -47.5h-9z" />
    <glyph glyph-name="rcommaaccent" unicode="&#x157;" horiz-adv-x="331" 
d="M127 285q4 27 15 53t31.5 46.5t53.5 33t83 12.5h16v-7h-18q-94 0 -137 -52t-43 -143v-221h103v-7h-211v7h82v416h-80v7h106v-83q0 -24 -0.5 -39t-1.5 -23h1v0zM111 -99q29 0 37 -34.5t-17 -90.5q-10 -23 -25 -45t-31 -38l-5 5q13 13 27.5 34.5t25.5 44.5q7 15 11 30
t5.5 27t-0.5 19.5t-8 7.5q-10 0 -13.5 -3.5t-11.5 -3.5q-9 0 -15.5 6t-6.5 17t8 17.5t19 6.5z" />
    <glyph glyph-name="sacute" unicode="&#x15b;" horiz-adv-x="385" 
d="M184 439q44 0 78 -9.5t52 -26.5v-88h-8v84q-9 8 -22.5 14.5t-30 10.5t-34.5 6t-35 2q-22 0 -43.5 -5.5t-39 -17t-28 -28t-10.5 -37.5q0 -19 9.5 -33.5t25.5 -26t35 -20.5t39 -16l25 -9q25 -9 50 -19t45 -24.5t32 -35.5t12 -52q0 -28 -11.5 -49.5t-32 -36t-48 -22
t-59.5 -7.5q-42 0 -78 10.5t-58 28.5v103h8v-99q19 -15 54.5 -25.5t73.5 -10.5q63 0 102.5 28.5t39.5 79.5q0 20 -9 34.5t-27 26.5t-44 22.5t-59 22.5l-25 9q-49 17 -79 45t-30 76q0 21 10.5 38.5t28.5 30t41.5 19.5t49.5 7zM188 520l112 161h20l-125 -161h-7z" />
    <glyph glyph-name="scaron" unicode="&#x161;" horiz-adv-x="385" 
d="M184 439q44 0 78 -9.5t52 -26.5v-88h-8v84q-9 8 -22.5 14.5t-30 10.5t-34.5 6t-35 2q-22 0 -43.5 -5.5t-39 -17t-28 -28t-10.5 -37.5q0 -19 9.5 -33.5t25.5 -26t35 -20.5t39 -16l25 -9q25 -9 50 -19t45 -24.5t32 -35.5t12 -52q0 -28 -11.5 -49.5t-32 -36t-48 -22
t-59.5 -7.5q-42 0 -78 10.5t-58 28.5v103h8v-99q19 -15 54.5 -25.5t73.5 -10.5q63 0 102.5 28.5t39.5 79.5q0 20 -9 34.5t-27 26.5t-44 22.5t-59 22.5l-25 9q-49 17 -79 45t-30 76q0 21 10.5 38.5t28.5 30t41.5 19.5t49.5 7zM190 518q-5 24 -15 47.5t-24.5 44.5t-31.5 37.5
t-35 27.5l2 6q13 -8 29 -21t31 -30t27.5 -37t20.5 -41h1q8 21 20.5 41t27.5 37t30.5 30t29.5 21l2 -6q-18 -11 -35 -27.5t-31.5 -37.5t-24.5 -44.5t-15 -47.5h-9z" />
    <glyph glyph-name="scedilla" unicode="&#x15f;" horiz-adv-x="385" 
d="M184 439q44 0 78 -9.5t52 -26.5v-88h-8v84q-9 8 -22.5 14.5t-30 10.5t-34.5 6t-35 2q-22 0 -43.5 -5.5t-39 -17t-28 -28t-10.5 -37.5q0 -19 9.5 -33.5t25.5 -26t35 -20.5t39 -16l25 -9q25 -9 50 -19t45 -24.5t32 -35.5t12 -52q0 -28 -11.5 -49.5t-32 -36t-48 -22
t-59.5 -7.5q-42 0 -78 10.5t-58 28.5v103h8v-99q19 -15 54.5 -25.5t73.5 -10.5q63 0 102.5 28.5t39.5 79.5q0 20 -9 34.5t-27 26.5t-44 22.5t-59 22.5l-25 9q-49 17 -79 45t-30 76q0 21 10.5 38.5t28.5 30t41.5 19.5t49.5 7zM265 -167q0 -38 -23.5 -62.5t-63.5 -24.5
q-35 0 -57 18.5t-30 47.5l7 3q8 -29 28 -45.5t52 -16.5q38 0 58.5 23t20.5 56q0 38 -23 57t-50 19q-24 0 -37 -7t-19 -13l-8 9l55 103h8l-54 -101l1 -1q8 6 20.5 11.5t33.5 5.5q12 0 26.5 -4.5t26.5 -14.5t20 -25.5t8 -37.5z" />
    <glyph glyph-name="scircumflex" unicode="&#x15d;" horiz-adv-x="385" 
d="M184 439q44 0 78 -9.5t52 -26.5v-88h-8v84q-9 8 -22.5 14.5t-30 10.5t-34.5 6t-35 2q-22 0 -43.5 -5.5t-39 -17t-28 -28t-10.5 -37.5q0 -19 9.5 -33.5t25.5 -26t35 -20.5t39 -16l25 -9q25 -9 50 -19t45 -24.5t32 -35.5t12 -52q0 -28 -11.5 -49.5t-32 -36t-48 -22
t-59.5 -7.5q-42 0 -78 10.5t-58 28.5v103h8v-99q19 -15 54.5 -25.5t73.5 -10.5q63 0 102.5 28.5t39.5 79.5q0 20 -9 34.5t-27 26.5t-44 22.5t-59 22.5l-25 9q-49 17 -79 45t-30 76q0 21 10.5 38.5t28.5 30t41.5 19.5t49.5 7zM196 681q5 -24 15 -47.5t24.5 -44.5t31.5 -38
t35 -27l-2 -6q-14 8 -29.5 21t-30.5 30t-27.5 37t-20.5 41h-1q-8 -21 -20.5 -41t-27.5 -37t-31 -30t-29 -21l-2 6q18 10 35 27t31.5 38t24.5 44.5t15 47.5h9z" />
    <glyph glyph-name="scommaaccent" unicode="&#x219;" horiz-adv-x="385" 
d="M184 439q44 0 78 -9.5t52 -26.5v-88h-8v84q-9 8 -22.5 14.5t-30 10.5t-34.5 6t-35 2q-22 0 -43.5 -5.5t-39 -17t-28 -28t-10.5 -37.5q0 -19 9.5 -33.5t25.5 -26t35 -20.5t39 -16l25 -9q25 -9 50 -19t45 -24.5t32 -35.5t12 -52q0 -28 -11.5 -49.5t-32 -36t-48 -22
t-59.5 -7.5q-42 0 -78 10.5t-58 28.5v103h8v-99q19 -15 54.5 -25.5t73.5 -10.5q63 0 102.5 28.5t39.5 79.5q0 20 -9 34.5t-27 26.5t-44 22.5t-59 22.5l-25 9q-49 17 -79 45t-30 76q0 21 10.5 38.5t28.5 30t41.5 19.5t49.5 7zM179 -99q29 0 37 -34.5t-17 -90.5
q-10 -23 -25 -45t-31 -38l-5 5q13 13 27.5 34.5t25.5 44.5q7 15 11 30t5.5 27t-0.5 19.5t-8 7.5q-10 0 -13.5 -3.5t-11.5 -3.5q-9 0 -15.5 6t-6.5 17t8 17.5t19 6.5z" />
    <glyph glyph-name="tcaron" unicode="&#x165;" horiz-adv-x="319" 
d="M285 719q29 0 37 -34.5t-17 -90.5q-10 -23 -25 -45t-31 -38l-5 5q13 13 27.5 34.5t25.5 44.5q7 15 11 30t5.5 27t-0.5 19.5t-8 7.5q-10 0 -13.5 -3.5t-11.5 -3.5q-9 0 -15.5 6t-6.5 17t8 17.5t19 6.5zM279 71q-8 -42 -31.5 -60t-55.5 -18q-17 0 -33.5 5.5t-29 17.5
t-20.5 31.5t-8 47.5v328h-91v7h91v94l23 40h3v-134h158v-7h-158v-331q0 -45 14.5 -68.5t50.5 -23.5q37 0 55 20t25 53z" />
    <glyph glyph-name="uni0163" unicode="&#x163;" horiz-adv-x="320" 
d="M279 71q-8 -42 -31.5 -60t-55.5 -18q-17 0 -33.5 5.5t-29 17.5t-20.5 31.5t-8 47.5v328h-91v7h91v94l23 40h3v-134h158v-7h-158v-331q0 -45 14.5 -68.5t50.5 -23.5q37 0 55 20t25 53zM144 -99q29 0 37 -34.5t-17 -90.5q-10 -23 -25 -45t-31 -38l-5 5q13 13 27.5 34.5
t25.5 44.5q7 15 11 30t5.5 27t-0.5 19.5t-8 7.5q-10 0 -13.5 -3.5t-11.5 -3.5q-9 0 -15.5 6t-6.5 17t8 17.5t19 6.5z" />
    <glyph glyph-name="tcommaaccent" unicode="&#x21b;" horiz-adv-x="320" 
d="M279 71q-8 -42 -31.5 -60t-55.5 -18q-17 0 -33.5 5.5t-29 17.5t-20.5 31.5t-8 47.5v328h-91v7h91v94l23 40h3v-134h158v-7h-158v-331q0 -45 14.5 -68.5t50.5 -23.5q37 0 55 20t25 53zM144 -99q29 0 37 -34.5t-17 -90.5q-10 -23 -25 -45t-31 -38l-5 5q13 13 27.5 34.5
t25.5 44.5q7 15 11 30t5.5 27t-0.5 19.5t-8 7.5q-10 0 -13.5 -3.5t-11.5 -3.5q-9 0 -15.5 6t-6.5 17t8 17.5t19 6.5z" />
    <glyph glyph-name="ubreve" unicode="&#x16d;" horiz-adv-x="509" 
d="M123 140q0 -76 27.5 -108t72.5 -32q40 0 68.5 21.5t46.5 51.5t26.5 62.5t8.5 54.5v233h-82v7h108v-423h80v-7h-106v81q0 24 0.5 39t1.5 23h-1q-4 -19 -14.5 -44.5t-29 -49t-45 -40t-62.5 -16.5q-24 0 -46.5 7t-40 24t-28.5 44t-11 68v287h-82v7h108v-290zM245 543
q49 0 78.5 27.5t32.5 93.5h8q-1 -28 -8 -51.5t-21 -40.5t-36.5 -26.5t-53.5 -9.5q-32 0 -54 9.5t-36 26.5t-21 40.5t-8 51.5h8q3 -66 32.5 -93.5t78.5 -27.5z" />
    <glyph glyph-name="uhungarumlaut" unicode="&#x171;" horiz-adv-x="509" 
d="M123 140q0 -76 27.5 -108t72.5 -32q40 0 68.5 21.5t46.5 51.5t26.5 62.5t8.5 54.5v233h-82v7h108v-423h80v-7h-106v81q0 24 0.5 39t1.5 23h-1q-4 -19 -14.5 -44.5t-29 -49t-45 -40t-62.5 -16.5q-24 0 -46.5 7t-40 24t-28.5 44t-11 68v287h-82v7h108v-290zM321 520
l112 161h20l-125 -161h-7zM189 520l112 161h20l-125 -161h-7z" />
    <glyph glyph-name="umacron" unicode="&#x16b;" horiz-adv-x="509" 
d="M123 140q0 -76 27.5 -108t72.5 -32q40 0 68.5 21.5t46.5 51.5t26.5 62.5t8.5 54.5v233h-82v7h108v-423h80v-7h-106v81q0 24 0.5 39t1.5 23h-1q-4 -19 -14.5 -44.5t-29 -49t-45 -40t-62.5 -16.5q-24 0 -46.5 7t-40 24t-28.5 44t-11 68v287h-82v7h108v-290zM124 602v7h234
v-7h-234z" />
    <glyph glyph-name="uogonek" unicode="&#x173;" horiz-adv-x="509" 
d="M123 140q0 -76 27.5 -108t72.5 -32q40 0 68.5 21.5t46.5 51.5t26.5 62.5t8.5 54.5v233h-82v7h108v-423h80v-7h-106v81q0 24 0.5 39t1.5 23h-1q-4 -19 -14.5 -44.5t-29 -49t-45 -40t-62.5 -16.5q-24 0 -46.5 7t-40 24t-28.5 44t-11 68v287h-82v7h108v-290zM243 -121
q0 20 11.5 37t31.5 32t46.5 27.5t56.5 24.5h13q-32 -13 -59.5 -26t-47.5 -27.5t-32 -31t-12 -36.5q0 -30 19.5 -48t51.5 -18q28 0 48.5 9.5t34.5 21.5l4 -6q-17 -15 -39 -23.5t-48 -8.5q-38 0 -58.5 20.5t-20.5 52.5z" />
    <glyph glyph-name="uring" unicode="&#x16f;" horiz-adv-x="509" 
d="M123 140q0 -76 27.5 -108t72.5 -32q40 0 68.5 21.5t46.5 51.5t26.5 62.5t8.5 54.5v233h-82v7h108v-423h80v-7h-106v81q0 24 0.5 39t1.5 23h-1q-4 -19 -14.5 -44.5t-29 -49t-45 -40t-62.5 -16.5q-24 0 -46.5 7t-40 24t-28.5 44t-11 68v287h-82v7h108v-290zM247 706
q32 0 54.5 -22t22.5 -56q0 -35 -22.5 -55.5t-54.5 -20.5t-54.5 20.5t-22.5 55.5q0 34 22.5 56t54.5 22zM247 559q12 0 24 4t22 12t16.5 21.5t6.5 31.5t-6.5 31.5t-16.5 22.5t-22 13t-24 4t-24 -4t-22 -13t-16.5 -22.5t-6.5 -31.5t6.5 -31.5t16.5 -21.5t22 -12t24 -4z" />
    <glyph glyph-name="utilde" unicode="&#x169;" horiz-adv-x="509" 
d="M123 140q0 -76 27.5 -108t72.5 -32q40 0 68.5 21.5t46.5 51.5t26.5 62.5t8.5 54.5v233h-82v7h108v-423h80v-7h-106v81q0 24 0.5 39t1.5 23h-1q-4 -19 -14.5 -44.5t-29 -49t-45 -40t-62.5 -16.5q-24 0 -46.5 7t-40 24t-28.5 44t-11 68v287h-82v7h108v-290zM158 626
q-20 0 -30.5 -12t-15.5 -32h-8q5 26 20 39t35 13q21 0 41.5 -8.5t40 -19t38.5 -19t38 -8.5q20 0 30.5 12t15.5 32h8q-5 -26 -20 -39t-35 -13q-19 0 -38.5 8.5t-40 19t-40.5 19t-39 8.5z" />
    <glyph glyph-name="uni1EE5" unicode="&#x1ee5;" horiz-adv-x="509" 
d="M123 140q0 -76 27.5 -108t72.5 -32q40 0 68.5 21.5t46.5 51.5t26.5 62.5t8.5 54.5v233h-82v7h108v-423h80v-7h-106v81q0 24 0.5 39t1.5 23h-1q-4 -19 -14.5 -44.5t-29 -49t-45 -40t-62.5 -16.5q-24 0 -46.5 7t-40 24t-28.5 44t-11 68v287h-82v7h108v-290zM226 -118
q0 9 6.5 15.5t15.5 6.5t15.5 -6.5t6.5 -15.5t-6.5 -15.5t-15.5 -6.5t-15.5 6.5t-6.5 15.5z" />
    <glyph glyph-name="wacute" unicode="&#x1e83;" horiz-adv-x="731" 
d="M647 423l-85 -363q-8 -36 -24 -51.5t-37 -15.5q-27 0 -45.5 17t-28.5 56l-60 244l-58 -250q-8 -36 -24.5 -51.5t-38.5 -15.5q-26 0 -44 17t-28 56l-91 357h-73v7h173v-7h-71l86 -356q9 -37 19 -52t29 -15q15 0 30 11t24 49l63 267l-25 103h29l84 -363q8 -36 19 -51.5
t31 -15.5q14 0 28.5 11t23.5 49l85 363h-74v7h157v-7h-74zM354 520l112 161h20l-125 -161h-7z" />
    <glyph glyph-name="wcircumflex" unicode="&#x175;" horiz-adv-x="731" 
d="M647 423l-85 -363q-8 -36 -24 -51.5t-37 -15.5q-27 0 -45.5 17t-28.5 56l-60 244l-58 -250q-8 -36 -24.5 -51.5t-38.5 -15.5q-26 0 -44 17t-28 56l-91 357h-73v7h173v-7h-71l86 -356q9 -37 19 -52t29 -15q15 0 30 11t24 49l63 267l-25 103h29l84 -363q8 -36 19 -51.5
t31 -15.5q14 0 28.5 11t23.5 49l85 363h-74v7h157v-7h-74zM371 681q5 -24 15 -47.5t24.5 -44.5t31.5 -38t35 -27l-2 -6q-14 8 -29.5 21t-30.5 30t-27.5 37t-20.5 41h-1q-8 -21 -20.5 -41t-27.5 -37t-31 -30t-29 -21l-2 6q18 10 35 27t31.5 38t24.5 44.5t15 47.5h9z" />
    <glyph glyph-name="wdieresis" unicode="&#x1e85;" horiz-adv-x="731" 
d="M647 423l-85 -363q-8 -36 -24 -51.5t-37 -15.5q-27 0 -45.5 17t-28.5 56l-60 244l-58 -250q-8 -36 -24.5 -51.5t-38.5 -15.5q-26 0 -44 17t-28 56l-91 357h-73v7h173v-7h-71l86 -356q9 -37 19 -52t29 -15q15 0 30 11t24 49l63 267l-25 103h29l84 -363q8 -36 19 -51.5
t31 -15.5q14 0 28.5 11t23.5 49l85 363h-74v7h157v-7h-74zM253 627q0 9 6.5 15.5t15.5 6.5t15.5 -6.5t6.5 -15.5t-6.5 -15.5t-15.5 -6.5t-15.5 6.5t-6.5 15.5zM445 627q0 9 6.5 15.5t15.5 6.5t15.5 -6.5t6.5 -15.5t-6.5 -15.5t-15.5 -6.5t-15.5 6.5t-6.5 15.5z" />
    <glyph glyph-name="wgrave" unicode="&#x1e81;" horiz-adv-x="731" 
d="M647 423l-85 -363q-8 -36 -24 -51.5t-37 -15.5q-27 0 -45.5 17t-28.5 56l-60 244l-58 -250q-8 -36 -24.5 -51.5t-38.5 -15.5q-26 0 -44 17t-28 56l-91 357h-73v7h173v-7h-71l86 -356q9 -37 19 -52t29 -15q15 0 30 11t24 49l63 267l-25 103h29l84 -363q8 -36 19 -51.5
t31 -15.5q14 0 28.5 11t23.5 49l85 363h-74v7h157v-7h-74zM350 520l-125 161h20l112 -161h-7z" />
    <glyph glyph-name="ycircumflex" unicode="&#x177;" horiz-adv-x="498" 
d="M105 -240v143h8v-136q31 0 55.5 6t41 23.5t25 48.5t8.5 82v68l-170 428h-73v7h173v-7h-71l162 -418l151 418h-74v7h157v-7h-74l-155 -428v-47q0 -61 -13.5 -98t-35.5 -57t-50 -26.5t-57 -6.5h-8zM259 681q5 -24 15 -47.5t24.5 -44.5t31.5 -38t35 -27l-2 -6
q-14 8 -29.5 21t-30.5 30t-27.5 37t-20.5 41h-1q-8 -21 -20.5 -41t-27.5 -37t-31 -30t-29 -21l-2 6q18 10 35 27t31.5 38t24.5 44.5t15 47.5h9z" />
    <glyph glyph-name="ygrave" unicode="&#x1ef3;" horiz-adv-x="498" 
d="M105 -240v143h8v-136q31 0 55.5 6t41 23.5t25 48.5t8.5 82v68l-170 428h-73v7h173v-7h-71l162 -418l151 418h-74v7h157v-7h-74l-155 -428v-47q0 -61 -13.5 -98t-35.5 -57t-50 -26.5t-57 -6.5h-8zM268 520l-125 161h20l112 -161h-7z" />
    <glyph glyph-name="uni0233" unicode="&#x233;" horiz-adv-x="498" 
d="M105 -240v143h8v-136q31 0 55.5 6t41 23.5t25 48.5t8.5 82v68l-170 428h-73v7h173v-7h-71l162 -418l151 418h-74v7h157v-7h-74l-155 -428v-47q0 -61 -13.5 -98t-35.5 -57t-50 -26.5t-57 -6.5h-8zM132 602v7h234v-7h-234z" />
    <glyph glyph-name="zacute" unicode="&#x17a;" horiz-adv-x="423" 
d="M34 0l291 423h-254v-123h-7v130h296l-292 -423h287v150h7v-157h-328zM205 520l112 161h20l-125 -161h-7z" />
    <glyph glyph-name="zcaron" unicode="&#x17e;" horiz-adv-x="423" 
d="M34 0l291 423h-254v-123h-7v130h296l-292 -423h287v150h7v-157h-328zM207 518q-5 24 -15 47.5t-24.5 44.5t-31.5 37.5t-35 27.5l2 6q13 -8 29 -21t31 -30t27.5 -37t20.5 -41h1q8 21 20.5 41t27.5 37t30.5 30t29.5 21l2 -6q-18 -11 -35 -27.5t-31.5 -37.5t-24.5 -44.5
t-15 -47.5h-9z" />
    <glyph glyph-name="zdotaccent" unicode="&#x17c;" horiz-adv-x="423" 
d="M34 0l291 423h-254v-123h-7v130h296l-292 -423h287v150h7v-157h-328zM197 627q0 9 6.5 15.5t15.5 6.5t15.5 -6.5t6.5 -15.5t-6.5 -15.5t-15.5 -6.5t-15.5 6.5t-6.5 15.5z" />
    <glyph glyph-name="ellipsis" unicode="&#x2026;" horiz-adv-x="435" 
d="M390 21q0 -12 -8 -20t-19 -8q-12 0 -20 8t-8 19q0 12 8 20t19 8q12 0 20 -8t8 -19zM245 21q0 -12 -8 -20t-19 -8q-12 0 -20 8t-8 19q0 12 8 20t19 8q12 0 20 -8t8 -19zM101 21q0 -12 -8 -20t-19 -8q-12 0 -20 8t-8 19q0 12 8 20t19 8q12 0 20 -8t8 -19z" />
    <glyph glyph-name="endash" unicode="&#x2013;" horiz-adv-x="499" 
d="M40 228v7h419v-7h-419z" />
    <glyph glyph-name="emdash" unicode="&#x2014;" horiz-adv-x="648" 
d="M40 228v7h568v-7h-568z" />
    <glyph glyph-name="guilsinglleft" unicode="&#x2039;" horiz-adv-x="230" 
d="M40 225q0 28 8.5 52.5t22.5 44t30.5 34t33.5 23.5l4 -6q-37 -20 -64 -58.5t-27 -89.5q0 -31 7 -50.5t18 -31t24.5 -16.5t27.5 -7q20 -3 27.5 -8.5t7.5 -15.5t-7.5 -14.5t-18.5 -4.5q-14 0 -30.5 11.5t-30.5 31.5t-23.5 47t-9.5 58z" />
    <glyph glyph-name="guilsinglright" unicode="&#x203a;" horiz-adv-x="230" 
d="M190 231q0 -28 -8.5 -52.5t-22.5 -44t-31 -34t-33 -23.5l-4 6q37 20 64 58.5t27 89.5q0 31 -7 50.5t-18 31t-25 16.5t-27 7q-20 3 -27.5 8.5t-7.5 15.5t7.5 14.5t18.5 4.5q14 0 30.5 -11.5t30.5 -31.5t23.5 -47t9.5 -58z" />
    <glyph glyph-name="quoteleft" unicode="&#x2018;" horiz-adv-x="166" 
d="M110 507q-22 0 -31 15.5t-9 33.5q0 14 4.5 35t15.5 44t25.5 45t30.5 38l5 -5q-13 -13 -27.5 -34.5t-25.5 -44.5q-7 -15 -11 -30t-4.5 -26t2.5 -18t11 -7q5 0 8 4.5t11 4.5q11 0 18 -8.5t7 -19.5t-8 -19t-22 -8z" />
    <glyph glyph-name="quoteright" unicode="&#x2019;" horiz-adv-x="166" 
d="M57 718q22 0 31 -15.5t9 -33.5q0 -14 -4.5 -35t-15.5 -44t-25.5 -45t-30.5 -38l-5 5q13 13 27.5 34.5t25.5 44.5q13 31 15.5 56t-13.5 25q-5 0 -8 -4.5t-11 -4.5q-11 0 -18 8.5t-7 19.5t8 19t22 8z" />
    <glyph glyph-name="quotedblleft" unicode="&#x201c;" horiz-adv-x="296" 
d="M240 507q-22 0 -31 15.5t-9 33.5q0 14 4.5 35t15.5 44t25.5 45t30.5 38l5 -5q-13 -13 -27.5 -34.5t-25.5 -44.5q-7 -15 -11 -30t-4.5 -26t2.5 -18t11 -7q5 0 8 4.5t11 4.5q11 0 18 -8.5t7 -19.5t-8 -19t-22 -8zM110 507q-22 0 -31 15.5t-9 33.5q0 14 4.5 35t15.5 44
t25.5 45t30.5 38l5 -5q-13 -13 -27.5 -34.5t-25.5 -44.5q-7 -15 -11 -30t-4.5 -26t2.5 -18t11 -7q5 0 8 4.5t11 4.5q11 0 18 -8.5t7 -19.5t-8 -19t-22 -8z" />
    <glyph glyph-name="quotedblright" unicode="&#x201d;" horiz-adv-x="296" 
d="M186 718q22 0 31 -15.5t9 -33.5q0 -14 -4.5 -35t-15.5 -44t-25.5 -45t-30.5 -38l-5 5q13 13 27.5 34.5t25.5 44.5q13 31 15.5 56t-13.5 25q-5 0 -8 -4.5t-11 -4.5q-11 0 -18 8.5t-7 19.5t8 19t22 8zM57 718q22 0 31 -15.5t9 -33.5q0 -14 -4.5 -35t-15.5 -44t-25.5 -45
t-30.5 -38l-5 5q13 13 27.5 34.5t25.5 44.5q13 31 15.5 56t-13.5 25q-5 0 -8 -4.5t-11 -4.5q-11 0 -18 8.5t-7 19.5t8 19t22 8z" />
    <glyph glyph-name="quotesinglbase" unicode="&#x201a;" horiz-adv-x="166" 
d="M57 48q22 0 31 -15.5t9 -33.5q0 -14 -4.5 -35t-15.5 -44t-25.5 -45t-30.5 -38l-5 5q13 13 27.5 34.5t25.5 44.5q13 31 15.5 56t-13.5 25q-5 0 -8 -4.5t-11 -4.5q-11 0 -18 8.5t-7 19.5t8 19t22 8z" />
    <glyph glyph-name="quotedblbase" unicode="&#x201e;" horiz-adv-x="294" 
d="M184 48q22 0 31 -15.5t9 -33.5q0 -14 -4.5 -35t-15.5 -44t-25.5 -45t-30.5 -38l-5 5q13 13 27.5 34.5t25.5 44.5q13 31 15.5 56t-13.5 25q-5 0 -8 -4.5t-11 -4.5q-11 0 -18 8.5t-7 19.5t8 19t22 8zM57 48q22 0 31 -15.5t9 -33.5q0 -14 -4.5 -35t-15.5 -44t-25.5 -45
t-30.5 -38l-5 5q13 13 27.5 34.5t25.5 44.5q13 31 15.5 56t-13.5 25q-5 0 -8 -4.5t-11 -4.5q-11 0 -18 8.5t-7 19.5t8 19t22 8z" />
    <glyph glyph-name="bullet" unicode="&#x2022;" horiz-adv-x="488" 
d="M408 224q0 -34 -13 -63.5t-35.5 -52t-52 -35.5t-63.5 -13t-63.5 13t-52 35.5t-35.5 52t-13 63.5t13 63.5t35.5 52t52 35.5t63.5 13t63.5 -13t52 -35.5t35.5 -52t13 -63.5z" />
    <glyph glyph-name="minus" unicode="&#x2212;" horiz-adv-x="456" 
d="M416 235v-7h-376v7h376z" />
    <glyph glyph-name="Euro" unicode="&#x20ac;" horiz-adv-x="676" 
d="M409 691q-98 0 -156 -63t-74 -185h219v-7h-220q-3 -21 -4 -44t-1 -47q0 -17 0.5 -33.5t1.5 -31.5h223v-7h-222q11 -136 68 -204.5t159 -68.5q36 0 71.5 9.5t65 31t50.5 56t29 83.5l7 -1q-7 -47 -27.5 -82t-50.5 -58t-67.5 -34.5t-77.5 -11.5q-113 0 -178 75t-79 205h-126
v7h126q-3 31 -3 65q0 47 6 91h-129v7h130q20 119 87.5 187t171.5 68q40 0 77 -12t65.5 -35.5t48 -58t25.5 -80.5l-7 -1q-8 48 -28.5 82.5t-49 56t-62.5 31.5t-69 10z" />
    <glyph glyph-name="fi" unicode="&#xfb01;" horiz-adv-x="515" 
d="M29 0v7h82v416h-82v7h82v28q0 47 13.5 92.5t41 81t70 57.5t100.5 22h1v-7h-1q-48 0 -88 -17.5t-67.5 -50t-40.5 -78.5t-6 -103l3 -25h261v-423h82v-7h-190v7h82v416h-235v-416h112v-7h-220zM360 647q0 9 6.5 15.5t15.5 6.5t15.5 -6.5t6.5 -15.5t-6.5 -15.5t-15.5 -6.5
t-15.5 6.5t-6.5 15.5z" />
    <glyph glyph-name="fl" unicode="&#xfb02;" horiz-adv-x="530" 
d="M413 7h82v-7h-190v7h82v697h-51q-48 0 -88 -17.5t-67.5 -50t-40.5 -78.5t-6 -103l3 -25h165v-7h-165v-416h112v-7h-220v7h82v416h-82v7h82v28q0 47 13.5 92.5t41 81t70 57.5t100.5 22h77v-704z" />
    <glyph glyph-name="breve" unicode="&#x2d8;" horiz-adv-x="278" 
d="M139 543q49 0 78.5 27.5t32.5 93.5h8q-1 -28 -8 -51.5t-21 -40.5t-36.5 -26.5t-53.5 -9.5q-32 0 -54 9.5t-36 26.5t-21 40.5t-8 51.5h8q3 -66 32.5 -93.5t78.5 -27.5z" />
    <glyph glyph-name="caron" unicode="&#x2c7;" horiz-adv-x="261" 
d="M126 518q-5 24 -15 47.5t-24.5 44.5t-31.5 37.5t-35 27.5l2 6q13 -8 29 -21t31 -30t27.5 -37t20.5 -41h1q8 21 20.5 41t27.5 37t30.5 30t29.5 21l2 -6q-18 -11 -35 -27.5t-31.5 -37.5t-24.5 -44.5t-15 -47.5h-9z" />
    <glyph glyph-name="circumflex" unicode="&#x2c6;" horiz-adv-x="261" 
d="M135 681q5 -24 15 -47.5t24.5 -44.5t31.5 -38t35 -27l-2 -6q-14 8 -29.5 21t-30.5 30t-27.5 37t-20.5 41h-1q-8 -21 -20.5 -41t-27.5 -37t-31 -30t-29 -21l-2 6q18 10 35 27t31.5 38t24.5 44.5t15 47.5h9z" />
    <glyph glyph-name="dotaccent" unicode="&#x2d9;" horiz-adv-x="84" 
d="M20 627q0 9 6.5 15.5t15.5 6.5t15.5 -6.5t6.5 -15.5t-6.5 -15.5t-15.5 -6.5t-15.5 6.5t-6.5 15.5z" />
    <glyph glyph-name="dot" horiz-adv-x="500" 
d="M228 647q0 9 6.5 15.5t15.5 6.5t15.5 -6.5t6.5 -15.5t-6.5 -15.5t-15.5 -6.5t-15.5 6.5t-6.5 15.5z" />
    <glyph glyph-name="dotaccent.low" horiz-adv-x="189" 
d="M70 -118q0 9 6.5 15.5t15.5 6.5t15.5 -6.5t6.5 -15.5t-6.5 -15.5t-15.5 -6.5t-15.5 6.5t-6.5 15.5z" />
    <glyph glyph-name="hungarumlaut" unicode="&#x2dd;" horiz-adv-x="272" 
d="M152 520l112 161h20l-125 -161h-7zM20 520l112 161h20l-125 -161h-7z" />
    <glyph glyph-name="commaaccent" horiz-adv-x="210" 
d="M95 -99q29 0 37 -34.5t-17 -90.5q-10 -23 -25 -45t-31 -38l-5 5q13 13 27.5 34.5t25.5 44.5q7 15 11 30t5.5 27t-0.5 19.5t-8 7.5q-10 0 -13.5 -3.5t-11.5 -3.5q-9 0 -15.5 6t-6.5 17t8 17.5t19 6.5z" />
    <glyph glyph-name="ogonek" unicode="&#x2db;" horiz-adv-x="206" 
d="M20 -121q0 20 11.5 37t31.5 32t46.5 27.5t56.5 24.5h13q-32 -13 -59.5 -26t-47.5 -27.5t-32 -31t-12 -36.5q0 -30 19.5 -48t51.5 -18q28 0 48.5 9.5t34.5 21.5l4 -6q-17 -15 -39 -23.5t-48 -8.5q-38 0 -58.5 20.5t-20.5 52.5z" />
    <glyph glyph-name="ring" unicode="&#x2da;" horiz-adv-x="214" 
d="M107 706q32 0 54.5 -22t22.5 -56q0 -35 -22.5 -55.5t-54.5 -20.5t-54.5 20.5t-22.5 55.5q0 34 22.5 56t54.5 22zM107 559q12 0 24 4t22 12t16.5 21.5t6.5 31.5t-6.5 31.5t-16.5 22.5t-22 13t-24 4t-24 -4t-22 -13t-16.5 -22.5t-6.5 -31.5t6.5 -31.5t16.5 -21.5t22 -12
t24 -4z" />
    <glyph glyph-name="tilde" unicode="&#x2dc;" horiz-adv-x="307" 
d="M74 626q-20 0 -30.5 -12t-15.5 -32h-8q5 26 20 39t35 13q21 0 41.5 -8.5t40 -19t38.5 -19t38 -8.5q20 0 30.5 12t15.5 32h8q-5 -26 -20 -39t-35 -13q-19 0 -38.5 8.5t-40 19t-40.5 19t-39 8.5z" />
    <glyph glyph-name="acute.case" horiz-adv-x="252" 
d="M54 743l154 139h28l-175 -139h-7z" />
    <glyph glyph-name="breve.case" horiz-adv-x="278" 
d="M139 755q49 0 78.5 27.5t32.5 93.5h8q-1 -28 -8 -51.5t-21 -40.5t-36.5 -26.5t-53.5 -9.5q-32 0 -54 9.5t-36 26.5t-21 40.5t-8 51.5h8q3 -66 32.5 -93.5t78.5 -27.5z" />
    <glyph glyph-name="caron.case" horiz-adv-x="261" 
d="M126 742q-3 24 -14.5 45t-27.5 38.5t-35.5 30.5t-38.5 20l3 6q13 -4 30.5 -14t34 -24t30.5 -32t22 -37h1q8 19 22 37t30.5 32t33.5 24t31 14l3 -6q-19 -7 -38.5 -20t-35.5 -30.5t-27.5 -38.5t-14.5 -45h-9v0z" />
    <glyph glyph-name="cedilla.case" horiz-adv-x="214" 
d="M194 -167q0 -38 -23.5 -62.5t-63.5 -24.5q-35 0 -57 18.5t-30 47.5l7 3q8 -29 28 -45.5t52 -16.5q38 0 58.5 23t20.5 56q0 38 -23 57t-50 19q-24 0 -37 -7t-19 -13l-8 9l55 103h8l-54 -101l1 -1q8 6 20.5 11.5t33.5 5.5q12 0 26.5 -4.5t26.5 -14.5t20 -25.5t8 -37.5z" />
    <glyph glyph-name="circumflex.case" horiz-adv-x="261" 
d="M135 882q3 -24 14.5 -45t27.5 -38.5t35.5 -30.5t38.5 -20l-3 -6q-14 4 -31 14t-33.5 24t-30.5 31.5t-22 37.5h-1q-8 -20 -22 -37.5t-30.5 -31.5t-34 -24t-30.5 -14l-3 6q19 7 38.5 20t35.5 30.5t27.5 38.5t14.5 45h9z" />
    <glyph glyph-name="dieresis.case" horiz-adv-x="256" 
d="M10 817q0 9 6.5 15.5t15.5 6.5t15.5 -6.5t6.5 -15.5t-6.5 -15.5t-15.5 -6.5t-15.5 6.5t-6.5 15.5zM202 817q0 9 6.5 15.5t15.5 6.5t15.5 -6.5t6.5 -15.5t-6.5 -15.5t-15.5 -6.5t-15.5 6.5t-6.5 15.5z" />
    <glyph glyph-name="dotaccent.case" horiz-adv-x="84" 
d="M20 817q0 9 6.5 15.5t15.5 6.5t15.5 -6.5t6.5 -15.5t-6.5 -15.5t-15.5 -6.5t-15.5 6.5t-6.5 15.5z" />
    <glyph glyph-name="grave.case" horiz-adv-x="232" 
d="M24 882h28l154 -139h-7z" />
    <glyph glyph-name="hungarumlaut.case" horiz-adv-x="320" 
d="M164 743l154 139h28l-175 -139h-7zM4 743l154 139h28l-175 -139h-7z" />
    <glyph glyph-name="macron.case" horiz-adv-x="274" 
d="M20 810v7h234v-7h-234z" />
    <glyph glyph-name="ogonek.case" horiz-adv-x="206" 
d="M20 -121q0 20 11.5 37t31.5 32t46.5 27.5t56.5 24.5h13q-32 -13 -59.5 -26t-47.5 -27.5t-32 -31t-12 -36.5q0 -30 19.5 -48t51.5 -18q28 0 48.5 9.5t34.5 21.5l4 -6q-17 -15 -39 -23.5t-48 -8.5q-38 0 -58.5 20.5t-20.5 52.5z" />
    <glyph glyph-name="ring.case" horiz-adv-x="194" 
d="M97 745q12 0 24 4t22 12t16.5 21.5t6.5 31.5t-6.5 31.5t-16.5 22.5t-22 13t-24 4t-24 -4t-22 -13t-16.5 -22.5t-6.5 -31.5t6.5 -31.5t16.5 -21.5t22 -12t24 -4zM97 892q32 0 54.5 -22t22.5 -56q0 -35 -22.5 -55.5t-54.5 -20.5t-54.5 20.5t-22.5 55.5q0 34 22.5 56
t54.5 22z" />
    <glyph glyph-name="tilde.case" horiz-adv-x="307" 
d="M74 839q-20 0 -30.5 -12t-15.5 -32h-8q5 26 20 39t35 13q21 0 41.5 -8.5t40 -19t38.5 -19t38 -8.5q20 0 30.5 12t15.5 32h8q-5 -26 -20 -39t-35 -13q-19 0 -38.5 8.5t-40 19t-40.5 19t-39 8.5z" />
    </font>
</defs>
</svg>
